<svg width="158" height="164" viewBox="0 0 158 164" fill="none" xmlns="http://www.w3.org/2000/svg">
<path fill-rule="evenodd" clip-rule="evenodd" d="M149.65 149.8V86.2002C149.65 88.0858 149.65 89.0286 149.064 89.6144C148.478 90.2002 147.535 90.2002 145.65 90.2002H111.861C111.156 90.2002 110.804 90.2002 110.54 90.3927C110.277 90.5853 110.17 90.9209 109.955 91.5922L102.994 113.408C102.78 114.079 102.672 114.415 102.409 114.608C102.145 114.8 101.793 114.8 101.088 114.8H56.9108C56.2061 114.8 55.8538 114.8 55.5903 114.608C55.3267 114.415 55.2196 114.079 55.0054 113.408L48.0438 91.5922C47.8296 90.9209 47.7225 90.5853 47.459 90.3927C47.1954 90.2002 46.8431 90.2002 46.1385 90.2002H12.3496C10.464 90.2002 9.52118 90.2002 8.9354 89.6144C8.34961 89.0286 8.34961 88.0858 8.34961 86.2002L8.34961 149.8C8.34961 152.629 8.34961 154.043 9.22829 154.922C10.107 155.8 11.5212 155.8 14.3496 155.8H143.65C146.478 155.8 147.892 155.8 148.771 154.922C149.65 154.043 149.65 152.629 149.65 149.8Z" fill="#6F6F6F"/>
<path d="M110.4 24.5996H145.65C147.535 24.5996 148.478 24.5996 149.064 25.1854C149.65 25.7712 149.65 26.714 149.65 28.5996V151.8C149.65 153.685 149.65 154.628 149.064 155.214C148.478 155.8 147.535 155.8 145.65 155.8H12.3496C10.464 155.8 9.52118 155.8 8.9354 155.214C8.34961 154.628 8.34961 153.685 8.34961 151.8V28.5996C8.34961 26.714 8.34961 25.7712 8.9354 25.1854C9.52118 24.5996 10.464 24.5996 12.3496 24.5996H47.5996" stroke="#6F6F6F" stroke-width="4"/>
<path d="M47.5996 57.4L78.9996 82M78.9996 82L110.4 57.4M78.9996 82L78.9996 3.34108e-06" stroke="#6F6F6F" stroke-width="4"/>
</svg>
