<svg width="321" height="296" viewBox="0 0 321 296" fill="none" xmlns="http://www.w3.org/2000/svg">
<rect x="1.5" y="1.5" width="318" height="293" rx="3.5" fill="#F2F1F1"/>
<rect x="1.5" y="1.5" width="318" height="293" rx="3.5" stroke="#EF8F00" stroke-width="3" stroke-dasharray="10 10"/>
<g opacity="0.5">
<mask id="mask0_376_649" style="mask-type:alpha" maskUnits="userSpaceOnUse" x="142" y="92" width="37" height="36">
<path d="M142.5 100C142.5 96.2288 142.5 94.3431 143.672 93.1716C144.843 92 146.729 92 150.5 92H170.5C174.271 92 176.157 92 177.328 93.1716C178.5 94.3431 178.5 96.2288 178.5 100V120C178.5 123.771 178.5 125.657 177.328 126.828C176.157 128 174.271 128 170.5 128H150.5C146.729 128 144.843 128 143.672 126.828C142.5 125.657 142.5 123.771 142.5 120V100Z" fill="black"/>
</mask>
<g mask="url(#mask0_376_649)">
<path fill-rule="evenodd" clip-rule="evenodd" d="M156.114 108.852L163.089 116.46C163.751 117.183 164.083 117.545 164.51 117.554C164.937 117.564 165.283 117.217 165.977 116.523L167.672 114.829C169.005 113.495 169.672 112.829 170.5 112.829C171.328 112.829 171.995 113.495 173.328 114.829L178.374 119.874C178.455 119.955 178.564 120 178.678 120C179.668 120 180.454 119.169 180.399 118.181L178.944 91.9878C178.735 88.2224 178.63 86.3397 177.395 85.2349C176.16 84.1301 174.278 84.2347 170.512 84.4439L150.056 85.5804C146.478 85.7792 144.688 85.8786 143.594 87.0352C142.5 88.1919 142.5 89.9825 142.5 93.5636V112C144.788 112 148.056 110.038 150.436 108.358C152.003 107.251 152.786 106.698 153.537 106.779C154.287 106.859 154.896 107.523 156.114 108.852ZM169.5 104C171.157 104 172.5 102.657 172.5 101C172.5 99.3433 171.157 98.0001 169.5 98.0001C167.843 98.0001 166.5 99.3433 166.5 101C166.5 102.657 167.843 104 169.5 104Z" fill="#262626"/>
</g>
<path d="M160.5 128H174.5C176.709 128 178.5 126.209 178.5 124V96C178.5 93.7909 176.709 92 174.5 92H146.5C144.291 92 142.5 93.7909 142.5 96V110" stroke="#262626" stroke-width="2" stroke-linecap="round"/>
<path d="M152.5 118V117H153.5V118H152.5ZM143.207 128.707C142.817 129.098 142.183 129.098 141.793 128.707C141.402 128.317 141.402 127.683 141.793 127.293L143.207 128.707ZM151.5 128V118H153.5V128H151.5ZM152.5 119H142.5V117H152.5V119ZM153.207 118.707L143.207 128.707L141.793 127.293L151.793 117.293L153.207 118.707Z" fill="#262626"/>
<path d="M93.6484 155.076C94.0044 155.076 94.3224 155.016 94.6024 154.896C94.8824 154.776 95.1184 154.608 95.3104 154.392C95.5064 154.176 95.6544 153.918 95.7544 153.618C95.8584 153.318 95.9104 152.988 95.9104 152.628V147.402H97.0684V152.628C97.0684 153.124 96.9884 153.584 96.8284 154.008C96.6724 154.432 96.4464 154.8 96.1504 155.112C95.8584 155.42 95.5004 155.662 95.0764 155.838C94.6524 156.014 94.1764 156.102 93.6484 156.102C93.1204 156.102 92.6444 156.014 92.2204 155.838C91.7964 155.662 91.4364 155.42 91.1404 155.112C90.8444 154.8 90.6164 154.432 90.4564 154.008C90.3004 153.584 90.2224 153.124 90.2224 152.628V147.402H91.3804V152.622C91.3804 152.982 91.4304 153.312 91.5304 153.612C91.6344 153.912 91.7824 154.17 91.9744 154.386C92.1704 154.602 92.4084 154.772 92.6884 154.896C92.9724 155.016 93.2924 155.076 93.6484 155.076ZM99.8009 154.536C99.9969 154.8 100.211 154.986 100.443 155.094C100.675 155.202 100.935 155.256 101.223 155.256C101.791 155.256 102.227 155.054 102.531 154.65C102.835 154.246 102.987 153.67 102.987 152.922C102.987 152.526 102.951 152.186 102.879 151.902C102.811 151.618 102.711 151.386 102.579 151.206C102.447 151.022 102.285 150.888 102.093 150.804C101.901 150.72 101.683 150.678 101.439 150.678C101.091 150.678 100.785 150.758 100.521 150.918C100.261 151.078 100.021 151.304 99.8009 151.596V154.536ZM99.7469 150.864C100.003 150.548 100.299 150.294 100.635 150.102C100.971 149.91 101.355 149.814 101.787 149.814C102.139 149.814 102.457 149.882 102.741 150.018C103.025 150.15 103.267 150.348 103.467 150.612C103.667 150.872 103.821 151.196 103.929 151.584C104.037 151.972 104.091 152.418 104.091 152.922C104.091 153.37 104.031 153.788 103.911 154.176C103.791 154.56 103.617 154.894 103.389 155.178C103.165 155.458 102.889 155.68 102.561 155.844C102.237 156.004 101.871 156.084 101.463 156.084C101.091 156.084 100.771 156.022 100.503 155.898C100.239 155.77 100.005 155.594 99.8009 155.37V158.058H98.7269V149.922H99.3689C99.5209 149.922 99.6149 149.996 99.6509 150.144L99.7469 150.864ZM106.557 147.162V156H105.489V147.162H106.557ZM110.851 149.826C111.295 149.826 111.695 149.9 112.051 150.048C112.407 150.196 112.711 150.406 112.963 150.678C113.215 150.95 113.407 151.28 113.539 151.668C113.675 152.052 113.743 152.482 113.743 152.958C113.743 153.438 113.675 153.87 113.539 154.254C113.407 154.638 113.215 154.966 112.963 155.238C112.711 155.51 112.407 155.72 112.051 155.868C111.695 156.012 111.295 156.084 110.851 156.084C110.403 156.084 109.999 156.012 109.639 155.868C109.283 155.72 108.979 155.51 108.727 155.238C108.475 154.966 108.281 154.638 108.145 154.254C108.013 153.87 107.947 153.438 107.947 152.958C107.947 152.482 108.013 152.052 108.145 151.668C108.281 151.28 108.475 150.95 108.727 150.678C108.979 150.406 109.283 150.196 109.639 150.048C109.999 149.9 110.403 149.826 110.851 149.826ZM110.851 155.25C111.451 155.25 111.899 155.05 112.195 154.65C112.491 154.246 112.639 153.684 112.639 152.964C112.639 152.24 112.491 151.676 112.195 151.272C111.899 150.868 111.451 150.666 110.851 150.666C110.547 150.666 110.281 150.718 110.053 150.822C109.829 150.926 109.641 151.076 109.489 151.272C109.341 151.468 109.229 151.71 109.153 151.998C109.081 152.282 109.045 152.604 109.045 152.964C109.045 153.684 109.193 154.246 109.489 154.65C109.789 155.05 110.243 155.25 110.851 155.25ZM118.392 153.264C117.9 153.28 117.48 153.32 117.132 153.384C116.788 153.444 116.506 153.524 116.286 153.624C116.07 153.724 115.912 153.842 115.812 153.978C115.716 154.114 115.668 154.266 115.668 154.434C115.668 154.594 115.694 154.732 115.746 154.848C115.798 154.964 115.868 155.06 115.956 155.136C116.048 155.208 116.154 155.262 116.274 155.298C116.398 155.33 116.53 155.346 116.67 155.346C116.858 155.346 117.03 155.328 117.186 155.292C117.342 155.252 117.488 155.196 117.624 155.124C117.764 155.052 117.896 154.966 118.02 154.866C118.148 154.766 118.272 154.652 118.392 154.524V153.264ZM114.942 150.78C115.278 150.456 115.64 150.214 116.028 150.054C116.416 149.894 116.846 149.814 117.318 149.814C117.658 149.814 117.96 149.87 118.224 149.982C118.488 150.094 118.71 150.25 118.89 150.45C119.07 150.65 119.206 150.892 119.298 151.176C119.39 151.46 119.436 151.772 119.436 152.112V156H118.962C118.858 156 118.778 155.984 118.722 155.952C118.666 155.916 118.622 155.848 118.59 155.748L118.47 155.172C118.31 155.32 118.154 155.452 118.002 155.568C117.85 155.68 117.69 155.776 117.522 155.856C117.354 155.932 117.174 155.99 116.982 156.03C116.794 156.074 116.584 156.096 116.352 156.096C116.116 156.096 115.894 156.064 115.686 156C115.478 155.932 115.296 155.832 115.14 155.7C114.988 155.568 114.866 155.402 114.774 155.202C114.686 154.998 114.642 154.758 114.642 154.482C114.642 154.242 114.708 154.012 114.84 153.792C114.972 153.568 115.186 153.37 115.482 153.198C115.778 153.026 116.164 152.886 116.64 152.778C117.116 152.666 117.7 152.602 118.392 152.586V152.112C118.392 151.64 118.29 151.284 118.086 151.044C117.882 150.8 117.584 150.678 117.192 150.678C116.928 150.678 116.706 150.712 116.526 150.78C116.35 150.844 116.196 150.918 116.064 151.002C115.936 151.082 115.824 151.156 115.728 151.224C115.636 151.288 115.544 151.32 115.452 151.32C115.38 151.32 115.318 151.302 115.266 151.266C115.214 151.226 115.17 151.178 115.134 151.122L114.942 150.78ZM125.023 151.368C124.823 151.1 124.607 150.914 124.375 150.81C124.143 150.702 123.883 150.648 123.595 150.648C123.031 150.648 122.597 150.85 122.293 151.254C121.989 151.658 121.837 152.234 121.837 152.982C121.837 153.378 121.871 153.718 121.939 154.002C122.007 154.282 122.107 154.514 122.239 154.698C122.371 154.878 122.533 155.01 122.725 155.094C122.917 155.178 123.135 155.22 123.379 155.22C123.731 155.22 124.037 155.14 124.297 154.98C124.561 154.82 124.803 154.594 125.023 154.302V151.368ZM126.091 147.162V156H125.455C125.303 156 125.207 155.926 125.167 155.778L125.071 155.04C124.811 155.352 124.515 155.604 124.183 155.796C123.851 155.988 123.467 156.084 123.031 156.084C122.683 156.084 122.367 156.018 122.083 155.886C121.799 155.75 121.557 155.552 121.357 155.292C121.157 155.032 121.003 154.708 120.895 154.32C120.787 153.932 120.733 153.486 120.733 152.982C120.733 152.534 120.793 152.118 120.913 151.734C121.033 151.346 121.205 151.01 121.429 150.726C121.653 150.442 121.927 150.22 122.251 150.06C122.579 149.896 122.947 149.814 123.355 149.814C123.727 149.814 124.045 149.878 124.309 150.006C124.577 150.13 124.815 150.304 125.023 150.528V147.162H126.091ZM135.787 149.922L132.397 157.794C132.361 157.874 132.315 157.938 132.259 157.986C132.207 158.034 132.125 158.058 132.013 158.058H131.221L132.331 155.646L129.823 149.922H130.747C130.839 149.922 130.911 149.946 130.963 149.994C131.019 150.038 131.057 150.088 131.077 150.144L132.703 153.972C132.767 154.14 132.821 154.316 132.865 154.5C132.921 154.312 132.981 154.134 133.045 153.966L134.623 150.144C134.647 150.08 134.687 150.028 134.743 149.988C134.803 149.944 134.869 149.922 134.941 149.922H135.787ZM139.129 149.826C139.573 149.826 139.973 149.9 140.329 150.048C140.685 150.196 140.989 150.406 141.241 150.678C141.493 150.95 141.685 151.28 141.817 151.668C141.953 152.052 142.021 152.482 142.021 152.958C142.021 153.438 141.953 153.87 141.817 154.254C141.685 154.638 141.493 154.966 141.241 155.238C140.989 155.51 140.685 155.72 140.329 155.868C139.973 156.012 139.573 156.084 139.129 156.084C138.681 156.084 138.277 156.012 137.917 155.868C137.561 155.72 137.257 155.51 137.005 155.238C136.753 154.966 136.559 154.638 136.423 154.254C136.291 153.87 136.225 153.438 136.225 152.958C136.225 152.482 136.291 152.052 136.423 151.668C136.559 151.28 136.753 150.95 137.005 150.678C137.257 150.406 137.561 150.196 137.917 150.048C138.277 149.9 138.681 149.826 139.129 149.826ZM139.129 155.25C139.729 155.25 140.177 155.05 140.473 154.65C140.769 154.246 140.917 153.684 140.917 152.964C140.917 152.24 140.769 151.676 140.473 151.272C140.177 150.868 139.729 150.666 139.129 150.666C138.825 150.666 138.559 150.718 138.331 150.822C138.107 150.926 137.919 151.076 137.767 151.272C137.619 151.468 137.507 151.71 137.431 151.998C137.359 152.282 137.323 152.604 137.323 152.964C137.323 153.684 137.471 154.246 137.767 154.65C138.067 155.05 138.521 155.25 139.129 155.25ZM148.373 149.922V156H147.737C147.585 156 147.489 155.926 147.449 155.778L147.365 155.124C147.101 155.416 146.805 155.652 146.477 155.832C146.149 156.008 145.773 156.096 145.349 156.096C145.017 156.096 144.723 156.042 144.467 155.934C144.215 155.822 144.003 155.666 143.831 155.466C143.659 155.266 143.529 155.024 143.441 154.74C143.357 154.456 143.315 154.142 143.315 153.798V149.922H144.383V153.798C144.383 154.258 144.487 154.614 144.695 154.866C144.907 155.118 145.229 155.244 145.661 155.244C145.977 155.244 146.271 155.17 146.543 155.022C146.819 154.87 147.073 154.662 147.305 154.398V149.922H148.373ZM151.081 151.14C151.273 150.724 151.509 150.4 151.789 150.168C152.069 149.932 152.411 149.814 152.815 149.814C152.943 149.814 153.065 149.828 153.181 149.856C153.301 149.884 153.407 149.928 153.499 149.988L153.421 150.786C153.397 150.886 153.337 150.936 153.241 150.936C153.185 150.936 153.103 150.924 152.995 150.9C152.887 150.876 152.765 150.864 152.629 150.864C152.437 150.864 152.265 150.892 152.113 150.948C151.965 151.004 151.831 151.088 151.711 151.2C151.595 151.308 151.489 151.444 151.393 151.608C151.301 151.768 151.217 151.952 151.141 152.16V156H150.067V149.922H150.679C150.795 149.922 150.875 149.944 150.919 149.988C150.963 150.032 150.993 150.108 151.009 150.216L151.081 151.14ZM158.324 154.536C158.52 154.8 158.734 154.986 158.966 155.094C159.198 155.202 159.458 155.256 159.746 155.256C160.314 155.256 160.75 155.054 161.054 154.65C161.358 154.246 161.51 153.67 161.51 152.922C161.51 152.526 161.474 152.186 161.402 151.902C161.334 151.618 161.234 151.386 161.102 151.206C160.97 151.022 160.808 150.888 160.616 150.804C160.424 150.72 160.206 150.678 159.962 150.678C159.614 150.678 159.308 150.758 159.044 150.918C158.784 151.078 158.544 151.304 158.324 151.596V154.536ZM158.27 150.864C158.526 150.548 158.822 150.294 159.158 150.102C159.494 149.91 159.878 149.814 160.31 149.814C160.662 149.814 160.98 149.882 161.264 150.018C161.548 150.15 161.79 150.348 161.99 150.612C162.19 150.872 162.344 151.196 162.452 151.584C162.56 151.972 162.614 152.418 162.614 152.922C162.614 153.37 162.554 153.788 162.434 154.176C162.314 154.56 162.14 154.894 161.912 155.178C161.688 155.458 161.412 155.68 161.084 155.844C160.76 156.004 160.394 156.084 159.986 156.084C159.614 156.084 159.294 156.022 159.026 155.898C158.762 155.77 158.528 155.594 158.324 155.37V158.058H157.25V149.922H157.892C158.044 149.922 158.138 149.996 158.174 150.144L158.27 150.864ZM164.991 151.14C165.183 150.724 165.419 150.4 165.699 150.168C165.979 149.932 166.321 149.814 166.725 149.814C166.853 149.814 166.975 149.828 167.091 149.856C167.211 149.884 167.317 149.928 167.409 149.988L167.331 150.786C167.307 150.886 167.247 150.936 167.151 150.936C167.095 150.936 167.013 150.924 166.905 150.9C166.797 150.876 166.675 150.864 166.539 150.864C166.347 150.864 166.175 150.892 166.023 150.948C165.875 151.004 165.741 151.088 165.621 151.2C165.505 151.308 165.399 151.444 165.303 151.608C165.211 151.768 165.127 151.952 165.051 152.16V156H163.977V149.922H164.589C164.705 149.922 164.785 149.944 164.829 149.988C164.873 150.032 164.903 150.108 164.919 150.216L164.991 151.14ZM170.664 149.826C171.108 149.826 171.508 149.9 171.864 150.048C172.22 150.196 172.524 150.406 172.776 150.678C173.028 150.95 173.22 151.28 173.352 151.668C173.488 152.052 173.556 152.482 173.556 152.958C173.556 153.438 173.488 153.87 173.352 154.254C173.22 154.638 173.028 154.966 172.776 155.238C172.524 155.51 172.22 155.72 171.864 155.868C171.508 156.012 171.108 156.084 170.664 156.084C170.216 156.084 169.812 156.012 169.452 155.868C169.096 155.72 168.792 155.51 168.54 155.238C168.288 154.966 168.094 154.638 167.958 154.254C167.826 153.87 167.76 153.438 167.76 152.958C167.76 152.482 167.826 152.052 167.958 151.668C168.094 151.28 168.288 150.95 168.54 150.678C168.792 150.406 169.096 150.196 169.452 150.048C169.812 149.9 170.216 149.826 170.664 149.826ZM170.664 155.25C171.264 155.25 171.712 155.05 172.008 154.65C172.304 154.246 172.452 153.684 172.452 152.964C172.452 152.24 172.304 151.676 172.008 151.272C171.712 150.868 171.264 150.666 170.664 150.666C170.36 150.666 170.094 150.718 169.866 150.822C169.642 150.926 169.454 151.076 169.302 151.272C169.154 151.468 169.042 151.71 168.966 151.998C168.894 152.282 168.858 152.604 168.858 152.964C168.858 153.684 169.006 154.246 169.302 154.65C169.602 155.05 170.056 155.25 170.664 155.25ZM178.87 151.368C178.67 151.1 178.454 150.914 178.222 150.81C177.99 150.702 177.73 150.648 177.442 150.648C176.878 150.648 176.444 150.85 176.14 151.254C175.836 151.658 175.684 152.234 175.684 152.982C175.684 153.378 175.718 153.718 175.786 154.002C175.854 154.282 175.954 154.514 176.086 154.698C176.218 154.878 176.38 155.01 176.572 155.094C176.764 155.178 176.982 155.22 177.226 155.22C177.578 155.22 177.884 155.14 178.144 154.98C178.408 154.82 178.65 154.594 178.87 154.302V151.368ZM179.938 147.162V156H179.302C179.15 156 179.054 155.926 179.014 155.778L178.918 155.04C178.658 155.352 178.362 155.604 178.03 155.796C177.698 155.988 177.314 156.084 176.878 156.084C176.53 156.084 176.214 156.018 175.93 155.886C175.646 155.75 175.404 155.552 175.204 155.292C175.004 155.032 174.85 154.708 174.742 154.32C174.634 153.932 174.58 153.486 174.58 152.982C174.58 152.534 174.64 152.118 174.76 151.734C174.88 151.346 175.052 151.01 175.276 150.726C175.5 150.442 175.774 150.22 176.098 150.06C176.426 149.896 176.794 149.814 177.202 149.814C177.574 149.814 177.892 149.878 178.156 150.006C178.424 150.13 178.662 150.304 178.87 150.528V147.162H179.938ZM186.623 149.922V156H185.987C185.835 156 185.739 155.926 185.699 155.778L185.615 155.124C185.351 155.416 185.055 155.652 184.727 155.832C184.399 156.008 184.023 156.096 183.599 156.096C183.267 156.096 182.973 156.042 182.717 155.934C182.465 155.822 182.253 155.666 182.081 155.466C181.909 155.266 181.779 155.024 181.691 154.74C181.607 154.456 181.565 154.142 181.565 153.798V149.922H182.633V153.798C182.633 154.258 182.737 154.614 182.945 154.866C183.157 155.118 183.479 155.244 183.911 155.244C184.227 155.244 184.521 155.17 184.793 155.022C185.069 154.87 185.323 154.662 185.555 154.398V149.922H186.623ZM192.547 151.002C192.515 151.046 192.483 151.08 192.451 151.104C192.419 151.128 192.375 151.14 192.319 151.14C192.259 151.14 192.193 151.116 192.121 151.068C192.049 151.016 191.959 150.96 191.851 150.9C191.747 150.84 191.617 150.786 191.461 150.738C191.309 150.686 191.121 150.66 190.897 150.66C190.597 150.66 190.333 150.714 190.105 150.822C189.877 150.926 189.685 151.078 189.529 151.278C189.377 151.478 189.261 151.72 189.181 152.004C189.105 152.288 189.067 152.606 189.067 152.958C189.067 153.326 189.109 153.654 189.193 153.942C189.277 154.226 189.395 154.466 189.547 154.662C189.703 154.854 189.889 155.002 190.105 155.106C190.325 155.206 190.571 155.256 190.843 155.256C191.103 155.256 191.317 155.226 191.485 155.166C191.653 155.102 191.791 155.032 191.899 154.956C192.011 154.88 192.103 154.812 192.175 154.752C192.251 154.688 192.325 154.656 192.397 154.656C192.485 154.656 192.553 154.69 192.601 154.758L192.901 155.148C192.769 155.312 192.619 155.452 192.451 155.568C192.283 155.684 192.101 155.782 191.905 155.862C191.713 155.938 191.511 155.994 191.299 156.03C191.087 156.066 190.871 156.084 190.651 156.084C190.271 156.084 189.917 156.014 189.589 155.874C189.265 155.734 188.983 155.532 188.743 155.268C188.503 155 188.315 154.672 188.179 154.284C188.043 153.896 187.975 153.454 187.975 152.958C187.975 152.506 188.037 152.088 188.161 151.704C188.289 151.32 188.473 150.99 188.713 150.714C188.957 150.434 189.255 150.216 189.607 150.06C189.963 149.904 190.371 149.826 190.831 149.826C191.259 149.826 191.635 149.896 191.959 150.036C192.287 150.172 192.577 150.366 192.829 150.618L192.547 151.002ZM195.913 156.096C195.433 156.096 195.063 155.962 194.803 155.694C194.547 155.426 194.419 155.04 194.419 154.536V150.816H193.687C193.623 150.816 193.569 150.798 193.525 150.762C193.481 150.722 193.459 150.662 193.459 150.582V150.156L194.455 150.03L194.701 148.152C194.713 148.092 194.739 148.044 194.779 148.008C194.823 147.968 194.879 147.948 194.947 147.948H195.487V150.042H197.245V150.816H195.487V154.464C195.487 154.72 195.549 154.91 195.673 155.034C195.797 155.158 195.957 155.22 196.153 155.22C196.265 155.22 196.361 155.206 196.441 155.178C196.525 155.146 196.597 155.112 196.657 155.076C196.717 155.04 196.767 155.008 196.807 154.98C196.851 154.948 196.889 154.932 196.921 154.932C196.977 154.932 197.027 154.966 197.071 155.034L197.383 155.544C197.199 155.716 196.977 155.852 196.717 155.952C196.457 156.048 196.189 156.096 195.913 156.096ZM202.546 149.922V156H201.478V149.922H202.546ZM202.774 148.014C202.774 148.118 202.752 148.216 202.708 148.308C202.668 148.396 202.612 148.476 202.54 148.548C202.472 148.616 202.39 148.67 202.294 148.71C202.202 148.75 202.104 148.77 202 148.77C201.896 148.77 201.798 148.75 201.706 148.71C201.618 148.67 201.54 148.616 201.472 148.548C201.404 148.476 201.35 148.396 201.31 148.308C201.27 148.216 201.25 148.118 201.25 148.014C201.25 147.91 201.27 147.812 201.31 147.72C201.35 147.624 201.404 147.542 201.472 147.474C201.54 147.402 201.618 147.346 201.706 147.306C201.798 147.266 201.896 147.246 202 147.246C202.104 147.246 202.202 147.266 202.294 147.306C202.39 147.346 202.472 147.402 202.54 147.474C202.612 147.542 202.668 147.624 202.708 147.72C202.752 147.812 202.774 147.91 202.774 148.014ZM204.301 156V149.922H204.943C205.095 149.922 205.189 149.996 205.225 150.144L205.303 150.768C205.527 150.492 205.779 150.266 206.059 150.09C206.339 149.914 206.663 149.826 207.031 149.826C207.439 149.826 207.769 149.94 208.021 150.168C208.277 150.396 208.461 150.704 208.573 151.092C208.661 150.872 208.773 150.682 208.909 150.522C209.049 150.362 209.205 150.23 209.377 150.126C209.549 150.022 209.731 149.946 209.923 149.898C210.119 149.85 210.317 149.826 210.517 149.826C210.837 149.826 211.121 149.878 211.369 149.982C211.621 150.082 211.833 150.23 212.005 150.426C212.181 150.622 212.315 150.864 212.407 151.152C212.499 151.436 212.545 151.762 212.545 152.13V156H211.471V152.13C211.471 151.654 211.367 151.294 211.159 151.05C210.951 150.802 210.651 150.678 210.259 150.678C210.083 150.678 209.915 150.71 209.755 150.774C209.599 150.834 209.461 150.924 209.341 151.044C209.221 151.164 209.125 151.316 209.053 151.5C208.985 151.68 208.951 151.89 208.951 152.13V156H207.877V152.13C207.877 151.642 207.779 151.278 207.583 151.038C207.387 150.798 207.101 150.678 206.725 150.678C206.461 150.678 206.217 150.75 205.993 150.894C205.769 151.034 205.563 151.226 205.375 151.47V156H204.301ZM217.462 153.264C216.97 153.28 216.55 153.32 216.202 153.384C215.858 153.444 215.576 153.524 215.356 153.624C215.14 153.724 214.982 153.842 214.882 153.978C214.786 154.114 214.738 154.266 214.738 154.434C214.738 154.594 214.764 154.732 214.816 154.848C214.868 154.964 214.938 155.06 215.026 155.136C215.118 155.208 215.224 155.262 215.344 155.298C215.468 155.33 215.6 155.346 215.74 155.346C215.928 155.346 216.1 155.328 216.256 155.292C216.412 155.252 216.558 155.196 216.694 155.124C216.834 155.052 216.966 154.966 217.09 154.866C217.218 154.766 217.342 154.652 217.462 154.524V153.264ZM214.012 150.78C214.348 150.456 214.71 150.214 215.098 150.054C215.486 149.894 215.916 149.814 216.388 149.814C216.728 149.814 217.03 149.87 217.294 149.982C217.558 150.094 217.78 150.25 217.96 150.45C218.14 150.65 218.276 150.892 218.368 151.176C218.46 151.46 218.506 151.772 218.506 152.112V156H218.032C217.928 156 217.848 155.984 217.792 155.952C217.736 155.916 217.692 155.848 217.66 155.748L217.54 155.172C217.38 155.32 217.224 155.452 217.072 155.568C216.92 155.68 216.76 155.776 216.592 155.856C216.424 155.932 216.244 155.99 216.052 156.03C215.864 156.074 215.654 156.096 215.422 156.096C215.186 156.096 214.964 156.064 214.756 156C214.548 155.932 214.366 155.832 214.21 155.7C214.058 155.568 213.936 155.402 213.844 155.202C213.756 154.998 213.712 154.758 213.712 154.482C213.712 154.242 213.778 154.012 213.91 153.792C214.042 153.568 214.256 153.37 214.552 153.198C214.848 153.026 215.234 152.886 215.71 152.778C216.186 152.666 216.77 152.602 217.462 152.586V152.112C217.462 151.64 217.36 151.284 217.156 151.044C216.952 150.8 216.654 150.678 216.262 150.678C215.998 150.678 215.776 150.712 215.596 150.78C215.42 150.844 215.266 150.918 215.134 151.002C215.006 151.082 214.894 151.156 214.798 151.224C214.706 151.288 214.614 151.32 214.522 151.32C214.45 151.32 214.388 151.302 214.336 151.266C214.284 151.226 214.24 151.178 214.204 151.122L214.012 150.78ZM222.251 153.03C222.467 153.03 222.657 153 222.821 152.94C222.985 152.88 223.123 152.796 223.235 152.688C223.347 152.58 223.431 152.452 223.487 152.304C223.543 152.152 223.571 151.986 223.571 151.806C223.571 151.434 223.457 151.138 223.229 150.918C223.005 150.698 222.679 150.588 222.251 150.588C221.819 150.588 221.489 150.698 221.261 150.918C221.037 151.138 220.925 151.434 220.925 151.806C220.925 151.986 220.953 152.152 221.009 152.304C221.069 152.452 221.155 152.58 221.267 152.688C221.379 152.796 221.517 152.88 221.681 152.94C221.845 153 222.035 153.03 222.251 153.03ZM224.177 156.33C224.177 156.182 224.135 156.062 224.051 155.97C223.967 155.878 223.853 155.806 223.709 155.754C223.569 155.702 223.405 155.666 223.217 155.646C223.029 155.622 222.829 155.604 222.617 155.592C222.409 155.58 222.197 155.568 221.981 155.556C221.765 155.544 221.557 155.524 221.357 155.496C221.133 155.6 220.949 155.732 220.805 155.892C220.665 156.048 220.595 156.232 220.595 156.444C220.595 156.58 220.629 156.706 220.697 156.822C220.769 156.942 220.877 157.044 221.021 157.128C221.165 157.216 221.345 157.284 221.561 157.332C221.781 157.384 222.039 157.41 222.335 157.41C222.623 157.41 222.881 157.384 223.109 157.332C223.337 157.28 223.529 157.206 223.685 157.11C223.845 157.014 223.967 156.9 224.051 156.768C224.135 156.636 224.177 156.49 224.177 156.33ZM225.263 150.162V150.558C225.263 150.69 225.179 150.774 225.011 150.81L224.321 150.9C224.457 151.164 224.525 151.456 224.525 151.776C224.525 152.072 224.467 152.342 224.351 152.586C224.239 152.826 224.083 153.032 223.883 153.204C223.683 153.376 223.443 153.508 223.163 153.6C222.883 153.692 222.579 153.738 222.251 153.738C221.967 153.738 221.699 153.704 221.447 153.636C221.319 153.716 221.221 153.802 221.153 153.894C221.085 153.982 221.051 154.072 221.051 154.164C221.051 154.308 221.109 154.418 221.225 154.494C221.345 154.566 221.501 154.618 221.693 154.65C221.885 154.682 222.103 154.702 222.347 154.71C222.595 154.718 222.847 154.732 223.103 154.752C223.363 154.768 223.615 154.798 223.859 154.842C224.107 154.886 224.327 154.958 224.519 155.058C224.711 155.158 224.865 155.296 224.981 155.472C225.101 155.648 225.161 155.876 225.161 156.156C225.161 156.416 225.095 156.668 224.963 156.912C224.835 157.156 224.649 157.372 224.405 157.56C224.161 157.752 223.861 157.904 223.505 158.016C223.153 158.132 222.755 158.19 222.311 158.19C221.867 158.19 221.479 158.146 221.147 158.058C220.815 157.97 220.539 157.852 220.319 157.704C220.099 157.556 219.933 157.384 219.821 157.188C219.713 156.996 219.659 156.794 219.659 156.582C219.659 156.282 219.753 156.028 219.941 155.82C220.129 155.612 220.387 155.446 220.715 155.322C220.535 155.242 220.391 155.136 220.283 155.004C220.179 154.868 220.127 154.686 220.127 154.458C220.127 154.37 220.143 154.28 220.175 154.188C220.207 154.092 220.255 153.998 220.319 153.906C220.387 153.81 220.469 153.72 220.565 153.636C220.661 153.552 220.773 153.478 220.901 153.414C220.601 153.246 220.367 153.024 220.199 152.748C220.031 152.468 219.947 152.144 219.947 151.776C219.947 151.48 220.003 151.212 220.115 150.972C220.231 150.728 220.391 150.522 220.595 150.354C220.799 150.182 221.041 150.05 221.321 149.958C221.605 149.866 221.915 149.82 222.251 149.82C222.515 149.82 222.761 149.85 222.989 149.91C223.217 149.966 223.425 150.05 223.613 150.162H225.263ZM230.342 152.298C230.342 152.05 230.306 151.824 230.234 151.62C230.166 151.412 230.064 151.234 229.928 151.086C229.796 150.934 229.634 150.818 229.442 150.738C229.25 150.654 229.032 150.612 228.788 150.612C228.276 150.612 227.87 150.762 227.57 151.062C227.274 151.358 227.09 151.77 227.018 152.298H230.342ZM231.206 155.148C231.074 155.308 230.916 155.448 230.732 155.568C230.548 155.684 230.35 155.78 230.138 155.856C229.93 155.932 229.714 155.988 229.49 156.024C229.266 156.064 229.044 156.084 228.824 156.084C228.404 156.084 228.016 156.014 227.66 155.874C227.308 155.73 227.002 155.522 226.742 155.25C226.486 154.974 226.286 154.634 226.142 154.23C225.998 153.826 225.926 153.362 225.926 152.838C225.926 152.414 225.99 152.018 226.118 151.65C226.25 151.282 226.438 150.964 226.682 150.696C226.926 150.424 227.224 150.212 227.576 150.06C227.928 149.904 228.324 149.826 228.764 149.826C229.128 149.826 229.464 149.888 229.772 150.012C230.084 150.132 230.352 150.308 230.576 150.54C230.804 150.768 230.982 151.052 231.11 151.392C231.238 151.728 231.302 152.112 231.302 152.544C231.302 152.712 231.284 152.824 231.248 152.88C231.212 152.936 231.144 152.964 231.044 152.964H226.982C226.994 153.348 227.046 153.682 227.138 153.966C227.234 154.25 227.366 154.488 227.534 154.68C227.702 154.868 227.902 155.01 228.134 155.106C228.366 155.198 228.626 155.244 228.914 155.244C229.182 155.244 229.412 155.214 229.604 155.154C229.8 155.09 229.968 155.022 230.108 154.95C230.248 154.878 230.364 154.812 230.456 154.752C230.552 154.688 230.634 154.656 230.702 154.656C230.79 154.656 230.858 154.69 230.906 154.758L231.206 155.148ZM67.6182 173.704C67.6182 174.348 67.5162 174.94 67.3122 175.48C67.1082 176.016 66.8202 176.478 66.4482 176.866C66.0762 177.254 65.6282 177.556 65.1042 177.772C64.5842 177.984 64.0082 178.09 63.3762 178.09C62.7442 178.09 62.1682 177.984 61.6482 177.772C61.1282 177.556 60.6822 177.254 60.3102 176.866C59.9382 176.478 59.6502 176.016 59.4462 175.48C59.2422 174.94 59.1402 174.348 59.1402 173.704C59.1402 173.06 59.2422 172.47 59.4462 171.934C59.6502 171.394 59.9382 170.93 60.3102 170.542C60.6822 170.15 61.1282 169.846 61.6482 169.63C62.1682 169.414 62.7442 169.306 63.3762 169.306C64.0082 169.306 64.5842 169.414 65.1042 169.63C65.6282 169.846 66.0762 170.15 66.4482 170.542C66.8202 170.93 67.1082 171.394 67.3122 171.934C67.5162 172.47 67.6182 173.06 67.6182 173.704ZM66.4242 173.704C66.4242 173.176 66.3522 172.702 66.2082 172.282C66.0642 171.862 65.8602 171.508 65.5962 171.22C65.3322 170.928 65.0122 170.704 64.6362 170.548C64.2602 170.392 63.8402 170.314 63.3762 170.314C62.9162 170.314 62.4982 170.392 62.1222 170.548C61.7462 170.704 61.4242 170.928 61.1562 171.22C60.8922 171.508 60.6882 171.862 60.5442 172.282C60.4002 172.702 60.3282 173.176 60.3282 173.704C60.3282 174.232 60.4002 174.706 60.5442 175.126C60.6882 175.542 60.8922 175.896 61.1562 176.188C61.4242 176.476 61.7462 176.698 62.1222 176.854C62.4982 177.006 62.9162 177.082 63.3762 177.082C63.8402 177.082 64.2602 177.006 64.6362 176.854C65.0122 176.698 65.3322 176.476 65.5962 176.188C65.8602 175.896 66.0642 175.542 66.2082 175.126C66.3522 174.706 66.4242 174.232 66.4242 173.704ZM69.9224 172.804C70.0544 172.656 70.1944 172.522 70.3424 172.402C70.4904 172.282 70.6464 172.18 70.8104 172.096C70.9784 172.008 71.1544 171.942 71.3384 171.898C71.5264 171.85 71.7284 171.826 71.9444 171.826C72.2764 171.826 72.5684 171.882 72.8204 171.994C73.0764 172.102 73.2884 172.258 73.4564 172.462C73.6284 172.662 73.7584 172.904 73.8464 173.188C73.9344 173.472 73.9784 173.786 73.9784 174.13V178H72.9044V174.13C72.9044 173.67 72.7984 173.314 72.5864 173.062C72.3784 172.806 72.0604 172.678 71.6324 172.678C71.3164 172.678 71.0204 172.754 70.7444 172.906C70.4724 173.058 70.2204 173.264 69.9884 173.524V178H68.9144V171.922H69.5564C69.7084 171.922 69.8024 171.996 69.8384 172.144L69.9224 172.804ZM76.7098 169.162V178H75.6418V169.162H76.7098ZM83.6857 171.922L80.2957 179.794C80.2597 179.874 80.2137 179.938 80.1577 179.986C80.1057 180.034 80.0237 180.058 79.9117 180.058H79.1197L80.2297 177.646L77.7217 171.922H78.6457C78.7377 171.922 78.8097 171.946 78.8617 171.994C78.9177 172.038 78.9557 172.088 78.9757 172.144L80.6017 175.972C80.6657 176.14 80.7197 176.316 80.7637 176.5C80.8197 176.312 80.8797 176.134 80.9437 175.966L82.5217 172.144C82.5457 172.08 82.5857 172.028 82.6417 171.988C82.7017 171.944 82.7677 171.922 82.8397 171.922H83.6857ZM90.1965 173.86C90.5285 173.86 90.8205 173.816 91.0725 173.728C91.3285 173.64 91.5425 173.518 91.7145 173.362C91.8905 173.202 92.0225 173.012 92.1105 172.792C92.1985 172.572 92.2425 172.33 92.2425 172.066C92.2425 171.518 92.0725 171.09 91.7325 170.782C91.3965 170.474 90.8845 170.32 90.1965 170.32H88.8165V173.86H90.1965ZM90.1965 169.402C90.7405 169.402 91.2125 169.466 91.6125 169.594C92.0165 169.718 92.3505 169.896 92.6145 170.128C92.8785 170.36 93.0745 170.64 93.2025 170.968C93.3345 171.296 93.4005 171.662 93.4005 172.066C93.4005 172.466 93.3305 172.832 93.1905 173.164C93.0505 173.496 92.8445 173.782 92.5725 174.022C92.3045 174.262 91.9705 174.45 91.5705 174.586C91.1745 174.718 90.7165 174.784 90.1965 174.784H88.8165V178H87.6585V169.402H90.1965ZM101.832 169.402V178H101.25C101.158 178 101.08 177.984 101.016 177.952C100.956 177.92 100.896 177.866 100.836 177.79L95.8616 171.31C95.8696 171.41 95.8756 171.508 95.8796 171.604C95.8836 171.7 95.8856 171.79 95.8856 171.874V178H94.8656V169.402H95.4656C95.5176 169.402 95.5616 169.406 95.5976 169.414C95.6336 169.418 95.6656 169.428 95.6936 169.444C95.7216 169.456 95.7496 169.476 95.7776 169.504C95.8056 169.528 95.8356 169.56 95.8676 169.6L100.842 176.074C100.834 175.97 100.826 175.87 100.818 175.774C100.814 175.674 100.812 175.58 100.812 175.492V169.402H101.832ZM111.014 173.866V177.166C110.582 177.478 110.12 177.712 109.628 177.868C109.14 178.02 108.604 178.096 108.02 178.096C107.328 178.096 106.704 177.99 106.148 177.778C105.592 177.562 105.116 177.262 104.72 176.878C104.328 176.49 104.026 176.026 103.814 175.486C103.602 174.946 103.496 174.352 103.496 173.704C103.496 173.048 103.598 172.45 103.802 171.91C104.01 171.37 104.304 170.908 104.684 170.524C105.064 170.136 105.526 169.836 106.07 169.624C106.614 169.412 107.222 169.306 107.894 169.306C108.234 169.306 108.55 169.332 108.842 169.384C109.134 169.432 109.404 169.504 109.652 169.6C109.9 169.692 110.13 169.806 110.342 169.942C110.554 170.074 110.752 170.224 110.936 170.392L110.606 170.92C110.554 171 110.486 171.052 110.402 171.076C110.322 171.096 110.232 171.076 110.132 171.016C110.036 170.96 109.926 170.892 109.802 170.812C109.678 170.732 109.526 170.656 109.346 170.584C109.17 170.508 108.96 170.444 108.716 170.392C108.476 170.34 108.19 170.314 107.858 170.314C107.374 170.314 106.936 170.394 106.544 170.554C106.152 170.71 105.818 170.936 105.542 171.232C105.266 171.524 105.054 171.88 104.906 172.3C104.758 172.716 104.684 173.184 104.684 173.704C104.684 174.244 104.76 174.728 104.912 175.156C105.068 175.58 105.288 175.942 105.572 176.242C105.86 176.538 106.208 176.764 106.616 176.92C107.024 177.076 107.482 177.154 107.99 177.154C108.39 177.154 108.744 177.11 109.052 177.022C109.364 176.93 109.668 176.804 109.964 176.644V174.754H108.626C108.55 174.754 108.488 174.732 108.44 174.688C108.396 174.644 108.374 174.59 108.374 174.526V173.866H111.014ZM112.477 179.452C112.445 179.424 112.423 179.398 112.411 179.374C112.399 179.35 112.393 179.32 112.393 179.284C112.393 179.256 112.401 179.228 112.417 179.2C112.437 179.172 112.459 179.146 112.483 179.122C112.523 179.078 112.573 179.02 112.633 178.948C112.697 178.876 112.761 178.79 112.825 178.69C112.889 178.594 112.947 178.486 112.999 178.366C113.055 178.25 113.095 178.126 113.119 177.994C113.107 177.998 113.093 178 113.077 178C113.065 178 113.053 178 113.041 178C112.833 178 112.663 177.932 112.531 177.796C112.403 177.656 112.339 177.478 112.339 177.262C112.339 177.074 112.403 176.914 112.531 176.782C112.663 176.65 112.837 176.584 113.053 176.584C113.173 176.584 113.279 176.606 113.371 176.65C113.463 176.694 113.539 176.756 113.599 176.836C113.663 176.912 113.711 177.002 113.743 177.106C113.775 177.206 113.791 177.316 113.791 177.436C113.791 177.616 113.765 177.804 113.713 178C113.665 178.192 113.591 178.382 113.491 178.57C113.395 178.762 113.277 178.948 113.137 179.128C112.997 179.308 112.837 179.474 112.657 179.626L112.477 179.452ZM121.197 175.03C121.197 175.51 121.137 175.94 121.017 176.32C120.901 176.7 120.727 177.022 120.495 177.286C120.267 177.546 119.985 177.746 119.649 177.886C119.313 178.026 118.927 178.096 118.491 178.096C118.095 178.096 117.691 178.04 117.279 177.928C117.287 177.812 117.297 177.698 117.309 177.586C117.321 177.47 117.331 177.356 117.339 177.244C117.347 177.176 117.371 177.122 117.411 177.082C117.455 177.038 117.521 177.016 117.609 177.016C117.681 177.016 117.775 177.034 117.891 177.07C118.011 177.106 118.171 177.124 118.371 177.124C118.635 177.124 118.871 177.084 119.079 177.004C119.287 176.924 119.461 176.8 119.601 176.632C119.741 176.464 119.847 176.25 119.919 175.99C119.995 175.726 120.033 175.414 120.033 175.054V169.402H121.197V175.03ZM125.845 173.86C126.177 173.86 126.469 173.816 126.721 173.728C126.977 173.64 127.191 173.518 127.363 173.362C127.539 173.202 127.671 173.012 127.759 172.792C127.847 172.572 127.891 172.33 127.891 172.066C127.891 171.518 127.721 171.09 127.381 170.782C127.045 170.474 126.533 170.32 125.845 170.32H124.465V173.86H125.845ZM125.845 169.402C126.389 169.402 126.861 169.466 127.261 169.594C127.665 169.718 127.999 169.896 128.263 170.128C128.527 170.36 128.723 170.64 128.851 170.968C128.983 171.296 129.049 171.662 129.049 172.066C129.049 172.466 128.979 172.832 128.839 173.164C128.699 173.496 128.493 173.782 128.221 174.022C127.953 174.262 127.619 174.45 127.219 174.586C126.823 174.718 126.365 174.784 125.845 174.784H124.465V178H123.307V169.402H125.845ZM137.498 173.866V177.166C137.066 177.478 136.604 177.712 136.112 177.868C135.624 178.02 135.088 178.096 134.504 178.096C133.812 178.096 133.188 177.99 132.632 177.778C132.076 177.562 131.6 177.262 131.204 176.878C130.812 176.49 130.51 176.026 130.298 175.486C130.086 174.946 129.98 174.352 129.98 173.704C129.98 173.048 130.082 172.45 130.286 171.91C130.494 171.37 130.788 170.908 131.168 170.524C131.548 170.136 132.01 169.836 132.554 169.624C133.098 169.412 133.706 169.306 134.378 169.306C134.718 169.306 135.034 169.332 135.326 169.384C135.618 169.432 135.888 169.504 136.136 169.6C136.384 169.692 136.614 169.806 136.826 169.942C137.038 170.074 137.236 170.224 137.42 170.392L137.09 170.92C137.038 171 136.97 171.052 136.886 171.076C136.806 171.096 136.716 171.076 136.616 171.016C136.52 170.96 136.41 170.892 136.286 170.812C136.162 170.732 136.01 170.656 135.83 170.584C135.654 170.508 135.444 170.444 135.2 170.392C134.96 170.34 134.674 170.314 134.342 170.314C133.858 170.314 133.42 170.394 133.028 170.554C132.636 170.71 132.302 170.936 132.026 171.232C131.75 171.524 131.538 171.88 131.39 172.3C131.242 172.716 131.168 173.184 131.168 173.704C131.168 174.244 131.244 174.728 131.396 175.156C131.552 175.58 131.772 175.942 132.056 176.242C132.344 176.538 132.692 176.764 133.1 176.92C133.508 177.076 133.966 177.154 134.474 177.154C134.874 177.154 135.228 177.11 135.536 177.022C135.848 176.93 136.152 176.804 136.448 176.644V174.754H135.11C135.034 174.754 134.972 174.732 134.924 174.688C134.88 174.644 134.858 174.59 134.858 174.526V173.866H137.498ZM144.15 173.764C143.726 173.988 143.406 174.26 143.19 174.58C142.978 174.9 142.872 175.248 142.872 175.624C142.872 175.884 142.92 176.114 143.016 176.314C143.112 176.51 143.238 176.676 143.394 176.812C143.55 176.948 143.728 177.052 143.928 177.124C144.128 177.192 144.332 177.226 144.54 177.226C144.988 177.226 145.39 177.144 145.746 176.98C146.106 176.816 146.42 176.596 146.688 176.32L144.15 173.764ZM149.694 178H148.656C148.54 178 148.446 177.986 148.374 177.958C148.302 177.93 148.224 177.872 148.14 177.784L147.27 176.908C146.894 177.272 146.46 177.562 145.968 177.778C145.48 177.99 144.942 178.096 144.354 178.096C144.034 178.096 143.72 178.042 143.412 177.934C143.108 177.826 142.834 177.67 142.59 177.466C142.346 177.258 142.15 177.006 142.002 176.71C141.854 176.414 141.78 176.08 141.78 175.708C141.78 175.428 141.826 175.164 141.918 174.916C142.014 174.664 142.146 174.432 142.314 174.22C142.482 174.008 142.68 173.818 142.908 173.65C143.136 173.482 143.386 173.338 143.658 173.218C143.414 172.906 143.234 172.606 143.118 172.318C143.002 172.026 142.944 171.724 142.944 171.412C142.944 171.12 142.996 170.846 143.1 170.59C143.208 170.334 143.362 170.112 143.562 169.924C143.762 169.732 144.004 169.582 144.288 169.474C144.576 169.362 144.898 169.306 145.254 169.306C145.57 169.306 145.858 169.358 146.118 169.462C146.378 169.562 146.602 169.696 146.79 169.864C146.978 170.032 147.126 170.228 147.234 170.452C147.346 170.672 147.41 170.902 147.426 171.142L146.76 171.274C146.628 171.306 146.53 171.244 146.466 171.088C146.438 170.984 146.392 170.876 146.328 170.764C146.268 170.652 146.188 170.55 146.088 170.458C145.992 170.366 145.874 170.29 145.734 170.23C145.598 170.17 145.438 170.14 145.254 170.14C145.054 170.14 144.872 170.172 144.708 170.236C144.548 170.3 144.41 170.39 144.294 170.506C144.182 170.618 144.096 170.752 144.036 170.908C143.976 171.06 143.946 171.226 143.946 171.406C143.946 171.546 143.962 171.68 143.994 171.808C144.026 171.936 144.076 172.066 144.144 172.198C144.216 172.33 144.306 172.464 144.414 172.6C144.522 172.736 144.652 172.88 144.804 173.032L147.276 175.546C147.428 175.274 147.55 174.992 147.642 174.7C147.734 174.404 147.794 174.11 147.822 173.818C147.83 173.742 147.854 173.682 147.894 173.638C147.934 173.594 147.99 173.572 148.062 173.572H148.716C148.712 174.032 148.64 174.484 148.5 174.928C148.36 175.368 148.158 175.782 147.894 176.17L149.694 178ZM156.576 175.03C156.576 175.51 156.516 175.94 156.396 176.32C156.28 176.7 156.106 177.022 155.874 177.286C155.646 177.546 155.364 177.746 155.028 177.886C154.692 178.026 154.306 178.096 153.87 178.096C153.474 178.096 153.07 178.04 152.658 177.928C152.666 177.812 152.676 177.698 152.688 177.586C152.7 177.47 152.71 177.356 152.718 177.244C152.726 177.176 152.75 177.122 152.79 177.082C152.834 177.038 152.9 177.016 152.988 177.016C153.06 177.016 153.154 177.034 153.27 177.07C153.39 177.106 153.55 177.124 153.75 177.124C154.014 177.124 154.25 177.084 154.458 177.004C154.666 176.924 154.84 176.8 154.98 176.632C155.12 176.464 155.226 176.25 155.298 175.99C155.374 175.726 155.412 175.414 155.412 175.054V169.402H156.576V175.03ZM161.224 173.86C161.556 173.86 161.848 173.816 162.1 173.728C162.356 173.64 162.57 173.518 162.742 173.362C162.918 173.202 163.05 173.012 163.138 172.792C163.226 172.572 163.27 172.33 163.27 172.066C163.27 171.518 163.1 171.09 162.76 170.782C162.424 170.474 161.912 170.32 161.224 170.32H159.844V173.86H161.224ZM161.224 169.402C161.768 169.402 162.24 169.466 162.64 169.594C163.044 169.718 163.378 169.896 163.642 170.128C163.906 170.36 164.102 170.64 164.23 170.968C164.362 171.296 164.428 171.662 164.428 172.066C164.428 172.466 164.358 172.832 164.218 173.164C164.078 173.496 163.872 173.782 163.6 174.022C163.332 174.262 162.998 174.45 162.598 174.586C162.202 174.718 161.744 174.784 161.224 174.784H159.844V178H158.686V169.402H161.224ZM171.197 177.052L171.191 178H165.893V169.402H171.191V170.35H167.057V173.206H170.405V174.118H167.057V177.052H171.197ZM179.615 173.866V177.166C179.183 177.478 178.721 177.712 178.229 177.868C177.741 178.02 177.205 178.096 176.621 178.096C175.929 178.096 175.305 177.99 174.749 177.778C174.193 177.562 173.717 177.262 173.321 176.878C172.929 176.49 172.627 176.026 172.415 175.486C172.203 174.946 172.097 174.352 172.097 173.704C172.097 173.048 172.199 172.45 172.403 171.91C172.611 171.37 172.905 170.908 173.285 170.524C173.665 170.136 174.127 169.836 174.671 169.624C175.215 169.412 175.823 169.306 176.495 169.306C176.835 169.306 177.151 169.332 177.443 169.384C177.735 169.432 178.005 169.504 178.253 169.6C178.501 169.692 178.731 169.806 178.943 169.942C179.155 170.074 179.353 170.224 179.537 170.392L179.207 170.92C179.155 171 179.087 171.052 179.003 171.076C178.923 171.096 178.833 171.076 178.733 171.016C178.637 170.96 178.527 170.892 178.403 170.812C178.279 170.732 178.127 170.656 177.947 170.584C177.771 170.508 177.561 170.444 177.317 170.392C177.077 170.34 176.791 170.314 176.459 170.314C175.975 170.314 175.537 170.394 175.145 170.554C174.753 170.71 174.419 170.936 174.143 171.232C173.867 171.524 173.655 171.88 173.507 172.3C173.359 172.716 173.285 173.184 173.285 173.704C173.285 174.244 173.361 174.728 173.513 175.156C173.669 175.58 173.889 175.942 174.173 176.242C174.461 176.538 174.809 176.764 175.217 176.92C175.625 177.076 176.083 177.154 176.591 177.154C176.991 177.154 177.345 177.11 177.653 177.022C177.965 176.93 178.269 176.804 178.565 176.644V174.754H177.227C177.151 174.754 177.089 174.732 177.041 174.688C176.997 174.644 176.975 174.59 176.975 174.526V173.866H179.615ZM184.611 178V172.834L183.939 172.756C183.855 172.736 183.785 172.706 183.729 172.666C183.677 172.622 183.651 172.56 183.651 172.48V172.042H184.611V171.454C184.611 171.106 184.659 170.798 184.755 170.53C184.855 170.258 184.995 170.03 185.175 169.846C185.359 169.658 185.579 169.516 185.835 169.42C186.091 169.324 186.379 169.276 186.699 169.276C186.971 169.276 187.221 169.316 187.449 169.396L187.425 169.93C187.417 170.026 187.363 170.078 187.263 170.086C187.167 170.094 187.037 170.098 186.873 170.098C186.689 170.098 186.521 170.122 186.369 170.17C186.221 170.218 186.093 170.296 185.985 170.404C185.877 170.512 185.793 170.654 185.733 170.83C185.677 171.006 185.649 171.224 185.649 171.484V172.042H187.401V172.816H185.685V178H184.611ZM190.785 171.826C191.229 171.826 191.629 171.9 191.985 172.048C192.341 172.196 192.645 172.406 192.897 172.678C193.149 172.95 193.341 173.28 193.473 173.668C193.609 174.052 193.677 174.482 193.677 174.958C193.677 175.438 193.609 175.87 193.473 176.254C193.341 176.638 193.149 176.966 192.897 177.238C192.645 177.51 192.341 177.72 191.985 177.868C191.629 178.012 191.229 178.084 190.785 178.084C190.337 178.084 189.933 178.012 189.573 177.868C189.217 177.72 188.913 177.51 188.661 177.238C188.409 176.966 188.215 176.638 188.079 176.254C187.947 175.87 187.881 175.438 187.881 174.958C187.881 174.482 187.947 174.052 188.079 173.668C188.215 173.28 188.409 172.95 188.661 172.678C188.913 172.406 189.217 172.196 189.573 172.048C189.933 171.9 190.337 171.826 190.785 171.826ZM190.785 177.25C191.385 177.25 191.833 177.05 192.129 176.65C192.425 176.246 192.573 175.684 192.573 174.964C192.573 174.24 192.425 173.676 192.129 173.272C191.833 172.868 191.385 172.666 190.785 172.666C190.481 172.666 190.215 172.718 189.987 172.822C189.763 172.926 189.575 173.076 189.423 173.272C189.275 173.468 189.163 173.71 189.087 173.998C189.015 174.282 188.979 174.604 188.979 174.964C188.979 175.684 189.127 176.246 189.423 176.65C189.723 177.05 190.177 177.25 190.785 177.25ZM196.046 173.14C196.238 172.724 196.474 172.4 196.754 172.168C197.034 171.932 197.376 171.814 197.78 171.814C197.908 171.814 198.03 171.828 198.146 171.856C198.266 171.884 198.372 171.928 198.464 171.988L198.386 172.786C198.362 172.886 198.302 172.936 198.206 172.936C198.15 172.936 198.068 172.924 197.96 172.9C197.852 172.876 197.73 172.864 197.594 172.864C197.402 172.864 197.23 172.892 197.078 172.948C196.93 173.004 196.796 173.088 196.676 173.2C196.56 173.308 196.454 173.444 196.358 173.608C196.266 173.768 196.182 173.952 196.106 174.16V178H195.032V171.922H195.644C195.76 171.922 195.84 171.944 195.884 171.988C195.928 172.032 195.958 172.108 195.974 172.216L196.046 173.14ZM199.403 178V171.922H200.045C200.197 171.922 200.291 171.996 200.327 172.144L200.405 172.768C200.629 172.492 200.881 172.266 201.161 172.09C201.441 171.914 201.765 171.826 202.133 171.826C202.541 171.826 202.871 171.94 203.123 172.168C203.379 172.396 203.563 172.704 203.675 173.092C203.763 172.872 203.875 172.682 204.011 172.522C204.151 172.362 204.307 172.23 204.479 172.126C204.651 172.022 204.833 171.946 205.025 171.898C205.221 171.85 205.419 171.826 205.619 171.826C205.939 171.826 206.223 171.878 206.471 171.982C206.723 172.082 206.935 172.23 207.107 172.426C207.283 172.622 207.417 172.864 207.509 173.152C207.601 173.436 207.647 173.762 207.647 174.13V178H206.573V174.13C206.573 173.654 206.469 173.294 206.261 173.05C206.053 172.802 205.753 172.678 205.361 172.678C205.185 172.678 205.017 172.71 204.857 172.774C204.701 172.834 204.563 172.924 204.443 173.044C204.323 173.164 204.227 173.316 204.155 173.5C204.087 173.68 204.053 173.89 204.053 174.13V178H202.979V174.13C202.979 173.642 202.881 173.278 202.685 173.038C202.489 172.798 202.203 172.678 201.827 172.678C201.563 172.678 201.319 172.75 201.095 172.894C200.871 173.034 200.665 173.226 200.477 173.47V178H199.403ZM212.564 175.264C212.072 175.28 211.652 175.32 211.304 175.384C210.96 175.444 210.678 175.524 210.458 175.624C210.242 175.724 210.084 175.842 209.984 175.978C209.888 176.114 209.84 176.266 209.84 176.434C209.84 176.594 209.866 176.732 209.918 176.848C209.97 176.964 210.04 177.06 210.128 177.136C210.22 177.208 210.326 177.262 210.446 177.298C210.57 177.33 210.702 177.346 210.842 177.346C211.03 177.346 211.202 177.328 211.358 177.292C211.514 177.252 211.66 177.196 211.796 177.124C211.936 177.052 212.068 176.966 212.192 176.866C212.32 176.766 212.444 176.652 212.564 176.524V175.264ZM209.114 172.78C209.45 172.456 209.812 172.214 210.2 172.054C210.588 171.894 211.018 171.814 211.49 171.814C211.83 171.814 212.132 171.87 212.396 171.982C212.66 172.094 212.882 172.25 213.062 172.45C213.242 172.65 213.378 172.892 213.47 173.176C213.562 173.46 213.608 173.772 213.608 174.112V178H213.134C213.03 178 212.95 177.984 212.894 177.952C212.838 177.916 212.794 177.848 212.762 177.748L212.642 177.172C212.482 177.32 212.326 177.452 212.174 177.568C212.022 177.68 211.862 177.776 211.694 177.856C211.526 177.932 211.346 177.99 211.154 178.03C210.966 178.074 210.756 178.096 210.524 178.096C210.288 178.096 210.066 178.064 209.858 178C209.65 177.932 209.468 177.832 209.312 177.7C209.16 177.568 209.038 177.402 208.946 177.202C208.858 176.998 208.814 176.758 208.814 176.482C208.814 176.242 208.88 176.012 209.012 175.792C209.144 175.568 209.358 175.37 209.654 175.198C209.95 175.026 210.336 174.886 210.812 174.778C211.288 174.666 211.872 174.602 212.564 174.586V174.112C212.564 173.64 212.462 173.284 212.258 173.044C212.054 172.8 211.756 172.678 211.364 172.678C211.1 172.678 210.878 172.712 210.698 172.78C210.522 172.844 210.368 172.918 210.236 173.002C210.108 173.082 209.996 173.156 209.9 173.224C209.808 173.288 209.716 173.32 209.624 173.32C209.552 173.32 209.49 173.302 209.438 173.266C209.386 173.226 209.342 173.178 209.306 173.122L209.114 172.78ZM217.019 178.096C216.539 178.096 216.169 177.962 215.909 177.694C215.653 177.426 215.525 177.04 215.525 176.536V172.816H214.793C214.729 172.816 214.675 172.798 214.631 172.762C214.587 172.722 214.565 172.662 214.565 172.582V172.156L215.561 172.03L215.807 170.152C215.819 170.092 215.845 170.044 215.885 170.008C215.929 169.968 215.985 169.948 216.053 169.948H216.593V172.042H218.351V172.816H216.593V176.464C216.593 176.72 216.655 176.91 216.779 177.034C216.903 177.158 217.063 177.22 217.259 177.22C217.371 177.22 217.467 177.206 217.547 177.178C217.631 177.146 217.703 177.112 217.763 177.076C217.823 177.04 217.873 177.008 217.913 176.98C217.957 176.948 217.995 176.932 218.027 176.932C218.083 176.932 218.133 176.966 218.177 177.034L218.489 177.544C218.305 177.716 218.083 177.852 217.823 177.952C217.563 178.048 217.295 178.096 217.019 178.096ZM225.818 175.264C225.326 175.28 224.906 175.32 224.558 175.384C224.214 175.444 223.932 175.524 223.712 175.624C223.496 175.724 223.338 175.842 223.238 175.978C223.142 176.114 223.094 176.266 223.094 176.434C223.094 176.594 223.12 176.732 223.172 176.848C223.224 176.964 223.294 177.06 223.382 177.136C223.474 177.208 223.58 177.262 223.7 177.298C223.824 177.33 223.956 177.346 224.096 177.346C224.284 177.346 224.456 177.328 224.612 177.292C224.768 177.252 224.914 177.196 225.05 177.124C225.19 177.052 225.322 176.966 225.446 176.866C225.574 176.766 225.698 176.652 225.818 176.524V175.264ZM222.368 172.78C222.704 172.456 223.066 172.214 223.454 172.054C223.842 171.894 224.272 171.814 224.744 171.814C225.084 171.814 225.386 171.87 225.65 171.982C225.914 172.094 226.136 172.25 226.316 172.45C226.496 172.65 226.632 172.892 226.724 173.176C226.816 173.46 226.862 173.772 226.862 174.112V178H226.388C226.284 178 226.204 177.984 226.148 177.952C226.092 177.916 226.048 177.848 226.016 177.748L225.896 177.172C225.736 177.32 225.58 177.452 225.428 177.568C225.276 177.68 225.116 177.776 224.948 177.856C224.78 177.932 224.6 177.99 224.408 178.03C224.22 178.074 224.01 178.096 223.778 178.096C223.542 178.096 223.32 178.064 223.112 178C222.904 177.932 222.722 177.832 222.566 177.7C222.414 177.568 222.292 177.402 222.2 177.202C222.112 176.998 222.068 176.758 222.068 176.482C222.068 176.242 222.134 176.012 222.266 175.792C222.398 175.568 222.612 175.37 222.908 175.198C223.204 175.026 223.59 174.886 224.066 174.778C224.542 174.666 225.126 174.602 225.818 174.586V174.112C225.818 173.64 225.716 173.284 225.512 173.044C225.308 172.8 225.01 172.678 224.618 172.678C224.354 172.678 224.132 172.712 223.952 172.78C223.776 172.844 223.622 172.918 223.49 173.002C223.362 173.082 223.25 173.156 223.154 173.224C223.062 173.288 222.97 173.32 222.878 173.32C222.806 173.32 222.744 173.302 222.692 173.266C222.64 173.226 222.596 173.178 222.56 173.122L222.368 172.78ZM229.593 169.162V178H228.525V169.162H229.593ZM232.429 169.162V178H231.361V169.162H232.429ZM236.722 171.826C237.166 171.826 237.566 171.9 237.922 172.048C238.278 172.196 238.582 172.406 238.834 172.678C239.086 172.95 239.278 173.28 239.41 173.668C239.546 174.052 239.614 174.482 239.614 174.958C239.614 175.438 239.546 175.87 239.41 176.254C239.278 176.638 239.086 176.966 238.834 177.238C238.582 177.51 238.278 177.72 237.922 177.868C237.566 178.012 237.166 178.084 236.722 178.084C236.274 178.084 235.87 178.012 235.51 177.868C235.154 177.72 234.85 177.51 234.598 177.238C234.346 176.966 234.152 176.638 234.016 176.254C233.884 175.87 233.818 175.438 233.818 174.958C233.818 174.482 233.884 174.052 234.016 173.668C234.152 173.28 234.346 172.95 234.598 172.678C234.85 172.406 235.154 172.196 235.51 172.048C235.87 171.9 236.274 171.826 236.722 171.826ZM236.722 177.25C237.322 177.25 237.77 177.05 238.066 176.65C238.362 176.246 238.51 175.684 238.51 174.964C238.51 174.24 238.362 173.676 238.066 173.272C237.77 172.868 237.322 172.666 236.722 172.666C236.418 172.666 236.152 172.718 235.924 172.822C235.7 172.926 235.512 173.076 235.36 173.272C235.212 173.468 235.1 173.71 235.024 173.998C234.952 174.282 234.916 174.604 234.916 174.964C234.916 175.684 235.064 176.246 235.36 176.65C235.66 177.05 236.114 177.25 236.722 177.25ZM249.257 171.922L247.289 178H246.443C246.339 178 246.267 177.932 246.227 177.796L244.883 173.674C244.851 173.582 244.825 173.49 244.805 173.398C244.785 173.302 244.765 173.208 244.745 173.116C244.725 173.208 244.705 173.302 244.685 173.398C244.665 173.49 244.639 173.584 244.607 173.68L243.239 177.796C243.203 177.932 243.123 178 242.999 178H242.195L240.227 171.922H241.067C241.151 171.922 241.221 171.944 241.277 171.988C241.337 172.032 241.377 172.084 241.397 172.144L242.561 176.056C242.629 176.344 242.683 176.616 242.723 176.872C242.759 176.74 242.795 176.606 242.831 176.47C242.871 176.334 242.913 176.196 242.957 176.056L244.241 172.12C244.261 172.06 244.295 172.01 244.343 171.97C244.395 171.93 244.457 171.91 244.529 171.91H244.997C245.077 171.91 245.143 171.93 245.195 171.97C245.247 172.01 245.283 172.06 245.303 172.12L246.557 176.056C246.601 176.196 246.641 176.334 246.677 176.47C246.713 176.606 246.747 176.74 246.779 176.872C246.799 176.74 246.823 176.608 246.851 176.476C246.883 176.34 246.917 176.2 246.953 176.056L248.141 172.144C248.161 172.08 248.199 172.028 248.255 171.988C248.311 171.944 248.377 171.922 248.453 171.922H249.257ZM254.283 174.298C254.283 174.05 254.247 173.824 254.175 173.62C254.107 173.412 254.005 173.234 253.869 173.086C253.737 172.934 253.575 172.818 253.383 172.738C253.191 172.654 252.973 172.612 252.729 172.612C252.217 172.612 251.811 172.762 251.511 173.062C251.215 173.358 251.031 173.77 250.959 174.298H254.283ZM255.147 177.148C255.015 177.308 254.857 177.448 254.673 177.568C254.489 177.684 254.291 177.78 254.079 177.856C253.871 177.932 253.655 177.988 253.431 178.024C253.207 178.064 252.985 178.084 252.765 178.084C252.345 178.084 251.957 178.014 251.601 177.874C251.249 177.73 250.943 177.522 250.683 177.25C250.427 176.974 250.227 176.634 250.083 176.23C249.939 175.826 249.867 175.362 249.867 174.838C249.867 174.414 249.931 174.018 250.059 173.65C250.191 173.282 250.379 172.964 250.623 172.696C250.867 172.424 251.165 172.212 251.517 172.06C251.869 171.904 252.265 171.826 252.705 171.826C253.069 171.826 253.405 171.888 253.713 172.012C254.025 172.132 254.293 172.308 254.517 172.54C254.745 172.768 254.923 173.052 255.051 173.392C255.179 173.728 255.243 174.112 255.243 174.544C255.243 174.712 255.225 174.824 255.189 174.88C255.153 174.936 255.085 174.964 254.985 174.964H250.923C250.935 175.348 250.987 175.682 251.079 175.966C251.175 176.25 251.307 176.488 251.475 176.68C251.643 176.868 251.843 177.01 252.075 177.106C252.307 177.198 252.567 177.244 252.855 177.244C253.123 177.244 253.353 177.214 253.545 177.154C253.741 177.09 253.909 177.022 254.049 176.95C254.189 176.878 254.305 176.812 254.397 176.752C254.493 176.688 254.575 176.656 254.643 176.656C254.731 176.656 254.799 176.69 254.847 176.758L255.147 177.148ZM260.515 173.368C260.315 173.1 260.099 172.914 259.867 172.81C259.635 172.702 259.375 172.648 259.087 172.648C258.523 172.648 258.089 172.85 257.785 173.254C257.481 173.658 257.329 174.234 257.329 174.982C257.329 175.378 257.363 175.718 257.431 176.002C257.499 176.282 257.599 176.514 257.731 176.698C257.863 176.878 258.025 177.01 258.217 177.094C258.409 177.178 258.627 177.22 258.871 177.22C259.223 177.22 259.529 177.14 259.789 176.98C260.053 176.82 260.295 176.594 260.515 176.302V173.368ZM261.583 169.162V178H260.947C260.795 178 260.699 177.926 260.659 177.778L260.563 177.04C260.303 177.352 260.007 177.604 259.675 177.796C259.343 177.988 258.959 178.084 258.523 178.084C258.175 178.084 257.859 178.018 257.575 177.886C257.291 177.75 257.049 177.552 256.849 177.292C256.649 177.032 256.495 176.708 256.387 176.32C256.279 175.932 256.225 175.486 256.225 174.982C256.225 174.534 256.285 174.118 256.405 173.734C256.525 173.346 256.697 173.01 256.921 172.726C257.145 172.442 257.419 172.22 257.743 172.06C258.071 171.896 258.439 171.814 258.847 171.814C259.219 171.814 259.537 171.878 259.801 172.006C260.069 172.13 260.307 172.304 260.515 172.528V169.162H261.583ZM70.3517 194.648C70.7997 194.552 71.2117 194.504 71.5877 194.504C72.0357 194.504 72.4317 194.57 72.7757 194.702C73.1197 194.834 73.4057 195.016 73.6337 195.248C73.8657 195.48 74.0397 195.754 74.1557 196.07C74.2757 196.386 74.3357 196.73 74.3357 197.102C74.3357 197.558 74.2557 197.97 74.0957 198.338C73.9397 198.706 73.7217 199.022 73.4417 199.286C73.1657 199.546 72.8397 199.746 72.4637 199.886C72.0877 200.026 71.6817 200.096 71.2457 200.096C70.9937 200.096 70.7517 200.07 70.5197 200.018C70.2877 199.97 70.0697 199.904 69.8657 199.82C69.6657 199.736 69.4797 199.64 69.3077 199.532C69.1357 199.424 68.9837 199.31 68.8517 199.19L69.1817 198.734C69.2537 198.63 69.3477 198.578 69.4637 198.578C69.5437 198.578 69.6337 198.61 69.7337 198.674C69.8337 198.734 69.9557 198.802 70.0997 198.878C70.2437 198.954 70.4117 199.024 70.6037 199.088C70.7997 199.148 71.0317 199.178 71.2997 199.178C71.5997 199.178 71.8697 199.13 72.1097 199.034C72.3497 198.938 72.5557 198.802 72.7277 198.626C72.8997 198.446 73.0317 198.232 73.1237 197.984C73.2157 197.736 73.2617 197.458 73.2617 197.15C73.2617 196.882 73.2217 196.64 73.1417 196.424C73.0657 196.208 72.9477 196.024 72.7877 195.872C72.6317 195.72 72.4357 195.602 72.1997 195.518C71.9637 195.434 71.6877 195.392 71.3717 195.392C71.1557 195.392 70.9297 195.41 70.6937 195.446C70.4617 195.482 70.2237 195.54 69.9797 195.62L69.3077 195.422L69.9977 191.402H74.0717V191.87C74.0717 192.022 74.0237 192.148 73.9277 192.248C73.8357 192.344 73.6757 192.392 73.4477 192.392H70.7477L70.3517 194.648ZM81.7406 195.704C81.7406 196.456 81.6586 197.108 81.4946 197.66C81.3346 198.208 81.1146 198.662 80.8346 199.022C80.5546 199.382 80.2226 199.65 79.8386 199.826C79.4586 200.002 79.0506 200.09 78.6146 200.09C78.1746 200.09 77.7646 200.002 77.3846 199.826C77.0086 199.65 76.6806 199.382 76.4006 199.022C76.1206 198.662 75.9006 198.208 75.7406 197.66C75.5806 197.108 75.5006 196.456 75.5006 195.704C75.5006 194.952 75.5806 194.3 75.7406 193.748C75.9006 193.196 76.1206 192.74 76.4006 192.38C76.6806 192.016 77.0086 191.746 77.3846 191.57C77.7646 191.394 78.1746 191.306 78.6146 191.306C79.0506 191.306 79.4586 191.394 79.8386 191.57C80.2226 191.746 80.5546 192.016 80.8346 192.38C81.1146 192.74 81.3346 193.196 81.4946 193.748C81.6586 194.3 81.7406 194.952 81.7406 195.704ZM80.6306 195.704C80.6306 195.048 80.5746 194.498 80.4626 194.054C80.3546 193.606 80.2066 193.246 80.0186 192.974C79.8346 192.702 79.6206 192.508 79.3766 192.392C79.1326 192.272 78.8786 192.212 78.6146 192.212C78.3506 192.212 78.0966 192.272 77.8526 192.392C77.6086 192.508 77.3946 192.702 77.2106 192.974C77.0266 193.246 76.8786 193.606 76.7666 194.054C76.6586 194.498 76.6046 195.048 76.6046 195.704C76.6046 196.36 76.6586 196.91 76.7666 197.354C76.8786 197.798 77.0266 198.156 77.2106 198.428C77.3946 198.7 77.6086 198.896 77.8526 199.016C78.0966 199.132 78.3506 199.19 78.6146 199.19C78.8786 199.19 79.1326 199.132 79.3766 199.016C79.6206 198.896 79.8346 198.7 80.0186 198.428C80.2066 198.156 80.3546 197.798 80.4626 197.354C80.5746 196.91 80.6306 196.36 80.6306 195.704ZM88.7016 195.704C88.7016 196.456 88.6196 197.108 88.4556 197.66C88.2956 198.208 88.0756 198.662 87.7956 199.022C87.5156 199.382 87.1836 199.65 86.7996 199.826C86.4196 200.002 86.0116 200.09 85.5756 200.09C85.1356 200.09 84.7256 200.002 84.3456 199.826C83.9696 199.65 83.6416 199.382 83.3616 199.022C83.0816 198.662 82.8616 198.208 82.7016 197.66C82.5416 197.108 82.4616 196.456 82.4616 195.704C82.4616 194.952 82.5416 194.3 82.7016 193.748C82.8616 193.196 83.0816 192.74 83.3616 192.38C83.6416 192.016 83.9696 191.746 84.3456 191.57C84.7256 191.394 85.1356 191.306 85.5756 191.306C86.0116 191.306 86.4196 191.394 86.7996 191.57C87.1836 191.746 87.5156 192.016 87.7956 192.38C88.0756 192.74 88.2956 193.196 88.4556 193.748C88.6196 194.3 88.7016 194.952 88.7016 195.704ZM87.5916 195.704C87.5916 195.048 87.5356 194.498 87.4236 194.054C87.3156 193.606 87.1676 193.246 86.9796 192.974C86.7956 192.702 86.5816 192.508 86.3376 192.392C86.0936 192.272 85.8396 192.212 85.5756 192.212C85.3116 192.212 85.0576 192.272 84.8136 192.392C84.5696 192.508 84.3556 192.702 84.1716 192.974C83.9876 193.246 83.8396 193.606 83.7276 194.054C83.6196 194.498 83.5656 195.048 83.5656 195.704C83.5656 196.36 83.6196 196.91 83.7276 197.354C83.8396 197.798 83.9876 198.156 84.1716 198.428C84.3556 198.7 84.5696 198.896 84.8136 199.016C85.0576 199.132 85.3116 199.19 85.5756 199.19C85.8396 199.19 86.0936 199.132 86.3376 199.016C86.5816 198.896 86.7956 198.7 86.9796 198.428C87.1676 198.156 87.3156 197.798 87.4236 197.354C87.5356 196.91 87.5916 196.36 87.5916 195.704ZM97.9708 200H96.9448C96.8568 200 96.7868 199.978 96.7348 199.934C96.6868 199.886 96.6468 199.834 96.6148 199.778L95.0848 197.396C95.0688 197.452 95.0508 197.508 95.0308 197.564C95.0148 197.616 94.9908 197.664 94.9588 197.708L93.5428 199.778C93.5028 199.834 93.4588 199.886 93.4108 199.934C93.3668 199.978 93.3048 200 93.2248 200H92.2708L94.4008 196.88L92.3548 193.922H93.3808C93.4688 193.922 93.5328 193.936 93.5728 193.964C93.6128 193.992 93.6488 194.032 93.6808 194.084L95.1748 196.364C95.2068 196.248 95.2568 196.136 95.3248 196.028L96.6328 194.108C96.6688 194.052 96.7068 194.008 96.7468 193.976C96.7908 193.94 96.8428 193.922 96.9028 193.922H97.8868L95.8408 196.826L97.9708 200ZM103.352 194.648C103.8 194.552 104.212 194.504 104.588 194.504C105.036 194.504 105.432 194.57 105.776 194.702C106.12 194.834 106.406 195.016 106.634 195.248C106.866 195.48 107.04 195.754 107.156 196.07C107.276 196.386 107.336 196.73 107.336 197.102C107.336 197.558 107.256 197.97 107.096 198.338C106.94 198.706 106.722 199.022 106.442 199.286C106.166 199.546 105.84 199.746 105.464 199.886C105.088 200.026 104.682 200.096 104.246 200.096C103.994 200.096 103.752 200.07 103.52 200.018C103.288 199.97 103.07 199.904 102.866 199.82C102.666 199.736 102.48 199.64 102.308 199.532C102.136 199.424 101.984 199.31 101.852 199.19L102.182 198.734C102.254 198.63 102.348 198.578 102.464 198.578C102.544 198.578 102.634 198.61 102.734 198.674C102.834 198.734 102.956 198.802 103.1 198.878C103.244 198.954 103.412 199.024 103.604 199.088C103.8 199.148 104.032 199.178 104.3 199.178C104.6 199.178 104.87 199.13 105.11 199.034C105.35 198.938 105.556 198.802 105.728 198.626C105.9 198.446 106.032 198.232 106.124 197.984C106.216 197.736 106.262 197.458 106.262 197.15C106.262 196.882 106.222 196.64 106.142 196.424C106.066 196.208 105.948 196.024 105.788 195.872C105.632 195.72 105.436 195.602 105.2 195.518C104.964 195.434 104.688 195.392 104.372 195.392C104.156 195.392 103.93 195.41 103.694 195.446C103.462 195.482 103.224 195.54 102.98 195.62L102.308 195.422L102.998 191.402H107.072V191.87C107.072 192.022 107.024 192.148 106.928 192.248C106.836 192.344 106.676 192.392 106.448 192.392H103.748L103.352 194.648ZM114.741 195.704C114.741 196.456 114.659 197.108 114.495 197.66C114.335 198.208 114.115 198.662 113.835 199.022C113.555 199.382 113.223 199.65 112.839 199.826C112.459 200.002 112.051 200.09 111.615 200.09C111.175 200.09 110.765 200.002 110.385 199.826C110.009 199.65 109.681 199.382 109.401 199.022C109.121 198.662 108.901 198.208 108.741 197.66C108.581 197.108 108.501 196.456 108.501 195.704C108.501 194.952 108.581 194.3 108.741 193.748C108.901 193.196 109.121 192.74 109.401 192.38C109.681 192.016 110.009 191.746 110.385 191.57C110.765 191.394 111.175 191.306 111.615 191.306C112.051 191.306 112.459 191.394 112.839 191.57C113.223 191.746 113.555 192.016 113.835 192.38C114.115 192.74 114.335 193.196 114.495 193.748C114.659 194.3 114.741 194.952 114.741 195.704ZM113.631 195.704C113.631 195.048 113.575 194.498 113.463 194.054C113.355 193.606 113.207 193.246 113.019 192.974C112.835 192.702 112.621 192.508 112.377 192.392C112.133 192.272 111.879 192.212 111.615 192.212C111.351 192.212 111.097 192.272 110.853 192.392C110.609 192.508 110.395 192.702 110.211 192.974C110.027 193.246 109.879 193.606 109.767 194.054C109.659 194.498 109.605 195.048 109.605 195.704C109.605 196.36 109.659 196.91 109.767 197.354C109.879 197.798 110.027 198.156 110.211 198.428C110.395 198.7 110.609 198.896 110.853 199.016C111.097 199.132 111.351 199.19 111.615 199.19C111.879 199.19 112.133 199.132 112.377 199.016C112.621 198.896 112.835 198.7 113.019 198.428C113.207 198.156 113.355 197.798 113.463 197.354C113.575 196.91 113.631 196.36 113.631 195.704ZM121.702 195.704C121.702 196.456 121.62 197.108 121.456 197.66C121.296 198.208 121.076 198.662 120.796 199.022C120.516 199.382 120.184 199.65 119.8 199.826C119.42 200.002 119.012 200.09 118.576 200.09C118.136 200.09 117.726 200.002 117.346 199.826C116.97 199.65 116.642 199.382 116.362 199.022C116.082 198.662 115.862 198.208 115.702 197.66C115.542 197.108 115.462 196.456 115.462 195.704C115.462 194.952 115.542 194.3 115.702 193.748C115.862 193.196 116.082 192.74 116.362 192.38C116.642 192.016 116.97 191.746 117.346 191.57C117.726 191.394 118.136 191.306 118.576 191.306C119.012 191.306 119.42 191.394 119.8 191.57C120.184 191.746 120.516 192.016 120.796 192.38C121.076 192.74 121.296 193.196 121.456 193.748C121.62 194.3 121.702 194.952 121.702 195.704ZM120.592 195.704C120.592 195.048 120.536 194.498 120.424 194.054C120.316 193.606 120.168 193.246 119.98 192.974C119.796 192.702 119.582 192.508 119.338 192.392C119.094 192.272 118.84 192.212 118.576 192.212C118.312 192.212 118.058 192.272 117.814 192.392C117.57 192.508 117.356 192.702 117.172 192.974C116.988 193.246 116.84 193.606 116.728 194.054C116.62 194.498 116.566 195.048 116.566 195.704C116.566 196.36 116.62 196.91 116.728 197.354C116.84 197.798 116.988 198.156 117.172 198.428C117.356 198.7 117.57 198.896 117.814 199.016C118.058 199.132 118.312 199.19 118.576 199.19C118.84 199.19 119.094 199.132 119.338 199.016C119.582 198.896 119.796 198.7 119.98 198.428C120.168 198.156 120.316 197.798 120.424 197.354C120.536 196.91 120.592 196.36 120.592 195.704ZM127.053 198.536C127.249 198.8 127.463 198.986 127.695 199.094C127.927 199.202 128.187 199.256 128.475 199.256C129.043 199.256 129.479 199.054 129.783 198.65C130.087 198.246 130.239 197.67 130.239 196.922C130.239 196.526 130.203 196.186 130.131 195.902C130.063 195.618 129.963 195.386 129.831 195.206C129.699 195.022 129.537 194.888 129.345 194.804C129.153 194.72 128.935 194.678 128.691 194.678C128.343 194.678 128.037 194.758 127.773 194.918C127.513 195.078 127.273 195.304 127.053 195.596V198.536ZM126.999 194.864C127.255 194.548 127.551 194.294 127.887 194.102C128.223 193.91 128.607 193.814 129.039 193.814C129.391 193.814 129.709 193.882 129.993 194.018C130.277 194.15 130.519 194.348 130.719 194.612C130.919 194.872 131.073 195.196 131.181 195.584C131.289 195.972 131.343 196.418 131.343 196.922C131.343 197.37 131.283 197.788 131.163 198.176C131.043 198.56 130.869 198.894 130.641 199.178C130.417 199.458 130.141 199.68 129.813 199.844C129.489 200.004 129.123 200.084 128.715 200.084C128.343 200.084 128.023 200.022 127.755 199.898C127.491 199.77 127.257 199.594 127.053 199.37V202.058H125.979V193.922H126.621C126.773 193.922 126.867 193.996 126.903 194.144L126.999 194.864ZM133.833 193.922V200H132.765V193.922H133.833ZM134.061 192.014C134.061 192.118 134.039 192.216 133.995 192.308C133.955 192.396 133.899 192.476 133.827 192.548C133.759 192.616 133.677 192.67 133.581 192.71C133.489 192.75 133.391 192.77 133.287 192.77C133.183 192.77 133.085 192.75 132.993 192.71C132.905 192.67 132.827 192.616 132.759 192.548C132.691 192.476 132.637 192.396 132.597 192.308C132.557 192.216 132.537 192.118 132.537 192.014C132.537 191.91 132.557 191.812 132.597 191.72C132.637 191.624 132.691 191.542 132.759 191.474C132.827 191.402 132.905 191.346 132.993 191.306C133.085 191.266 133.183 191.246 133.287 191.246C133.391 191.246 133.489 191.266 133.581 191.306C133.677 191.346 133.759 191.402 133.827 191.474C133.899 191.542 133.955 191.624 133.995 191.72C134.039 191.812 134.061 191.91 134.061 192.014ZM140.58 200H139.554C139.466 200 139.396 199.978 139.344 199.934C139.296 199.886 139.256 199.834 139.224 199.778L137.694 197.396C137.678 197.452 137.66 197.508 137.64 197.564C137.624 197.616 137.6 197.664 137.568 197.708L136.152 199.778C136.112 199.834 136.068 199.886 136.02 199.934C135.976 199.978 135.914 200 135.834 200H134.88L137.01 196.88L134.964 193.922H135.99C136.078 193.922 136.142 193.936 136.182 193.964C136.222 193.992 136.258 194.032 136.29 194.084L137.784 196.364C137.816 196.248 137.866 196.136 137.934 196.028L139.242 194.108C139.278 194.052 139.316 194.008 139.356 193.976C139.4 193.94 139.452 193.922 139.512 193.922H140.496L138.45 196.826L140.58 200ZM145.363 196.298C145.363 196.05 145.327 195.824 145.255 195.62C145.187 195.412 145.085 195.234 144.949 195.086C144.817 194.934 144.655 194.818 144.463 194.738C144.271 194.654 144.053 194.612 143.809 194.612C143.297 194.612 142.891 194.762 142.591 195.062C142.295 195.358 142.111 195.77 142.039 196.298H145.363ZM146.227 199.148C146.095 199.308 145.937 199.448 145.753 199.568C145.569 199.684 145.371 199.78 145.159 199.856C144.951 199.932 144.735 199.988 144.511 200.024C144.287 200.064 144.065 200.084 143.845 200.084C143.425 200.084 143.037 200.014 142.681 199.874C142.329 199.73 142.023 199.522 141.763 199.25C141.507 198.974 141.307 198.634 141.163 198.23C141.019 197.826 140.947 197.362 140.947 196.838C140.947 196.414 141.011 196.018 141.139 195.65C141.271 195.282 141.459 194.964 141.703 194.696C141.947 194.424 142.245 194.212 142.597 194.06C142.949 193.904 143.345 193.826 143.785 193.826C144.149 193.826 144.485 193.888 144.793 194.012C145.105 194.132 145.373 194.308 145.597 194.54C145.825 194.768 146.003 195.052 146.131 195.392C146.259 195.728 146.323 196.112 146.323 196.544C146.323 196.712 146.305 196.824 146.269 196.88C146.233 196.936 146.165 196.964 146.065 196.964H142.003C142.015 197.348 142.067 197.682 142.159 197.966C142.255 198.25 142.387 198.488 142.555 198.68C142.723 198.868 142.923 199.01 143.155 199.106C143.387 199.198 143.647 199.244 143.935 199.244C144.203 199.244 144.433 199.214 144.625 199.154C144.821 199.09 144.989 199.022 145.129 198.95C145.269 198.878 145.385 198.812 145.477 198.752C145.573 198.688 145.655 198.656 145.723 198.656C145.811 198.656 145.879 198.69 145.927 198.758L146.227 199.148ZM148.739 191.162V200H147.671V191.162H148.739ZM154.011 194.924C153.963 195.012 153.889 195.056 153.789 195.056C153.729 195.056 153.661 195.034 153.585 194.99C153.509 194.946 153.415 194.898 153.303 194.846C153.195 194.79 153.065 194.74 152.913 194.696C152.761 194.648 152.581 194.624 152.373 194.624C152.193 194.624 152.031 194.648 151.887 194.696C151.743 194.74 151.619 194.802 151.515 194.882C151.415 194.962 151.337 195.056 151.281 195.164C151.229 195.268 151.203 195.382 151.203 195.506C151.203 195.662 151.247 195.792 151.335 195.896C151.427 196 151.547 196.09 151.695 196.166C151.843 196.242 152.011 196.31 152.199 196.37C152.387 196.426 152.579 196.488 152.775 196.556C152.975 196.62 153.169 196.692 153.357 196.772C153.545 196.852 153.713 196.952 153.861 197.072C154.009 197.192 154.127 197.34 154.215 197.516C154.307 197.688 154.353 197.896 154.353 198.14C154.353 198.42 154.303 198.68 154.203 198.92C154.103 199.156 153.955 199.362 153.759 199.538C153.563 199.71 153.323 199.846 153.039 199.946C152.755 200.046 152.427 200.096 152.055 200.096C151.631 200.096 151.247 200.028 150.903 199.892C150.559 199.752 150.267 199.574 150.027 199.358L150.279 198.95C150.311 198.898 150.349 198.858 150.393 198.83C150.437 198.802 150.493 198.788 150.561 198.788C150.633 198.788 150.709 198.816 150.789 198.872C150.869 198.928 150.965 198.99 151.077 199.058C151.193 199.126 151.333 199.188 151.497 199.244C151.661 199.3 151.865 199.328 152.109 199.328C152.317 199.328 152.499 199.302 152.655 199.25C152.811 199.194 152.941 199.12 153.045 199.028C153.149 198.936 153.225 198.83 153.273 198.71C153.325 198.59 153.351 198.462 153.351 198.326C153.351 198.158 153.305 198.02 153.213 197.912C153.125 197.8 153.007 197.706 152.859 197.63C152.711 197.55 152.541 197.482 152.349 197.426C152.161 197.366 151.967 197.304 151.767 197.24C151.571 197.176 151.377 197.104 151.185 197.024C150.997 196.94 150.829 196.836 150.681 196.712C150.533 196.588 150.413 196.436 150.321 196.256C150.233 196.072 150.189 195.85 150.189 195.59C150.189 195.358 150.237 195.136 150.333 194.924C150.429 194.708 150.569 194.52 150.753 194.36C150.937 194.196 151.163 194.066 151.431 193.97C151.699 193.874 152.005 193.826 152.349 193.826C152.749 193.826 153.107 193.89 153.423 194.018C153.743 194.142 154.019 194.314 154.251 194.534L154.011 194.924ZM162.027 197.264C161.535 197.28 161.115 197.32 160.767 197.384C160.423 197.444 160.141 197.524 159.921 197.624C159.705 197.724 159.547 197.842 159.447 197.978C159.351 198.114 159.303 198.266 159.303 198.434C159.303 198.594 159.329 198.732 159.381 198.848C159.433 198.964 159.503 199.06 159.591 199.136C159.683 199.208 159.789 199.262 159.909 199.298C160.033 199.33 160.165 199.346 160.305 199.346C160.493 199.346 160.665 199.328 160.821 199.292C160.977 199.252 161.123 199.196 161.259 199.124C161.399 199.052 161.531 198.966 161.655 198.866C161.783 198.766 161.907 198.652 162.027 198.524V197.264ZM158.577 194.78C158.913 194.456 159.275 194.214 159.663 194.054C160.051 193.894 160.481 193.814 160.953 193.814C161.293 193.814 161.595 193.87 161.859 193.982C162.123 194.094 162.345 194.25 162.525 194.45C162.705 194.65 162.841 194.892 162.933 195.176C163.025 195.46 163.071 195.772 163.071 196.112V200H162.597C162.493 200 162.413 199.984 162.357 199.952C162.301 199.916 162.257 199.848 162.225 199.748L162.105 199.172C161.945 199.32 161.789 199.452 161.637 199.568C161.485 199.68 161.325 199.776 161.157 199.856C160.989 199.932 160.809 199.99 160.617 200.03C160.429 200.074 160.219 200.096 159.987 200.096C159.751 200.096 159.529 200.064 159.321 200C159.113 199.932 158.931 199.832 158.775 199.7C158.623 199.568 158.501 199.402 158.409 199.202C158.321 198.998 158.277 198.758 158.277 198.482C158.277 198.242 158.343 198.012 158.475 197.792C158.607 197.568 158.821 197.37 159.117 197.198C159.413 197.026 159.799 196.886 160.275 196.778C160.751 196.666 161.335 196.602 162.027 196.586V196.112C162.027 195.64 161.925 195.284 161.721 195.044C161.517 194.8 161.219 194.678 160.827 194.678C160.563 194.678 160.341 194.712 160.161 194.78C159.985 194.844 159.831 194.918 159.699 195.002C159.571 195.082 159.459 195.156 159.363 195.224C159.271 195.288 159.179 195.32 159.087 195.32C159.015 195.32 158.953 195.302 158.901 195.266C158.849 195.226 158.805 195.178 158.769 195.122L158.577 194.78ZM165.712 195.14C165.904 194.724 166.14 194.4 166.42 194.168C166.7 193.932 167.042 193.814 167.446 193.814C167.574 193.814 167.696 193.828 167.812 193.856C167.932 193.884 168.038 193.928 168.13 193.988L168.052 194.786C168.028 194.886 167.968 194.936 167.872 194.936C167.816 194.936 167.734 194.924 167.626 194.9C167.518 194.876 167.396 194.864 167.26 194.864C167.068 194.864 166.896 194.892 166.744 194.948C166.596 195.004 166.462 195.088 166.342 195.2C166.226 195.308 166.12 195.444 166.024 195.608C165.932 195.768 165.848 195.952 165.772 196.16V200H164.698V193.922H165.31C165.426 193.922 165.506 193.944 165.55 193.988C165.594 194.032 165.624 194.108 165.64 194.216L165.712 195.14ZM172.891 196.298C172.891 196.05 172.855 195.824 172.783 195.62C172.715 195.412 172.613 195.234 172.477 195.086C172.345 194.934 172.183 194.818 171.991 194.738C171.799 194.654 171.581 194.612 171.337 194.612C170.825 194.612 170.419 194.762 170.119 195.062C169.823 195.358 169.639 195.77 169.567 196.298H172.891ZM173.755 199.148C173.623 199.308 173.465 199.448 173.281 199.568C173.097 199.684 172.899 199.78 172.687 199.856C172.479 199.932 172.263 199.988 172.039 200.024C171.815 200.064 171.593 200.084 171.373 200.084C170.953 200.084 170.565 200.014 170.209 199.874C169.857 199.73 169.551 199.522 169.291 199.25C169.035 198.974 168.835 198.634 168.691 198.23C168.547 197.826 168.475 197.362 168.475 196.838C168.475 196.414 168.539 196.018 168.667 195.65C168.799 195.282 168.987 194.964 169.231 194.696C169.475 194.424 169.773 194.212 170.125 194.06C170.477 193.904 170.873 193.826 171.313 193.826C171.677 193.826 172.013 193.888 172.321 194.012C172.633 194.132 172.901 194.308 173.125 194.54C173.353 194.768 173.531 195.052 173.659 195.392C173.787 195.728 173.851 196.112 173.851 196.544C173.851 196.712 173.833 196.824 173.797 196.88C173.761 196.936 173.693 196.964 173.593 196.964H169.531C169.543 197.348 169.595 197.682 169.687 197.966C169.783 198.25 169.915 198.488 170.083 198.68C170.251 198.868 170.451 199.01 170.683 199.106C170.915 199.198 171.175 199.244 171.463 199.244C171.731 199.244 171.961 199.214 172.153 199.154C172.349 199.09 172.517 199.022 172.657 198.95C172.797 198.878 172.913 198.812 173.005 198.752C173.101 198.688 173.183 198.656 173.251 198.656C173.339 198.656 173.407 198.69 173.455 198.758L173.755 199.148ZM179.247 195.14C179.439 194.724 179.675 194.4 179.955 194.168C180.235 193.932 180.577 193.814 180.981 193.814C181.109 193.814 181.231 193.828 181.347 193.856C181.467 193.884 181.573 193.928 181.665 193.988L181.587 194.786C181.563 194.886 181.503 194.936 181.407 194.936C181.351 194.936 181.269 194.924 181.161 194.9C181.053 194.876 180.931 194.864 180.795 194.864C180.603 194.864 180.431 194.892 180.279 194.948C180.131 195.004 179.997 195.088 179.877 195.2C179.761 195.308 179.655 195.444 179.559 195.608C179.467 195.768 179.383 195.952 179.307 196.16V200H178.233V193.922H178.845C178.961 193.922 179.041 193.944 179.085 193.988C179.129 194.032 179.159 194.108 179.175 194.216L179.247 195.14ZM186.426 196.298C186.426 196.05 186.39 195.824 186.318 195.62C186.25 195.412 186.148 195.234 186.012 195.086C185.88 194.934 185.718 194.818 185.526 194.738C185.334 194.654 185.116 194.612 184.872 194.612C184.36 194.612 183.954 194.762 183.654 195.062C183.358 195.358 183.174 195.77 183.102 196.298H186.426ZM187.29 199.148C187.158 199.308 187 199.448 186.816 199.568C186.632 199.684 186.434 199.78 186.222 199.856C186.014 199.932 185.798 199.988 185.574 200.024C185.35 200.064 185.128 200.084 184.908 200.084C184.488 200.084 184.1 200.014 183.744 199.874C183.392 199.73 183.086 199.522 182.826 199.25C182.57 198.974 182.37 198.634 182.226 198.23C182.082 197.826 182.01 197.362 182.01 196.838C182.01 196.414 182.074 196.018 182.202 195.65C182.334 195.282 182.522 194.964 182.766 194.696C183.01 194.424 183.308 194.212 183.66 194.06C184.012 193.904 184.408 193.826 184.848 193.826C185.212 193.826 185.548 193.888 185.856 194.012C186.168 194.132 186.436 194.308 186.66 194.54C186.888 194.768 187.066 195.052 187.194 195.392C187.322 195.728 187.386 196.112 187.386 196.544C187.386 196.712 187.368 196.824 187.332 196.88C187.296 196.936 187.228 196.964 187.128 196.964H183.066C183.078 197.348 183.13 197.682 183.222 197.966C183.318 198.25 183.45 198.488 183.618 198.68C183.786 198.868 183.986 199.01 184.218 199.106C184.45 199.198 184.71 199.244 184.998 199.244C185.266 199.244 185.496 199.214 185.688 199.154C185.884 199.09 186.052 199.022 186.192 198.95C186.332 198.878 186.448 198.812 186.54 198.752C186.636 198.688 186.718 198.656 186.786 198.656C186.874 198.656 186.942 198.69 186.99 198.758L187.29 199.148ZM192.928 195.002C192.896 195.046 192.864 195.08 192.832 195.104C192.8 195.128 192.756 195.14 192.7 195.14C192.64 195.14 192.574 195.116 192.502 195.068C192.43 195.016 192.34 194.96 192.232 194.9C192.128 194.84 191.998 194.786 191.842 194.738C191.69 194.686 191.502 194.66 191.278 194.66C190.978 194.66 190.714 194.714 190.486 194.822C190.258 194.926 190.066 195.078 189.91 195.278C189.758 195.478 189.642 195.72 189.562 196.004C189.486 196.288 189.448 196.606 189.448 196.958C189.448 197.326 189.49 197.654 189.574 197.942C189.658 198.226 189.776 198.466 189.928 198.662C190.084 198.854 190.27 199.002 190.486 199.106C190.706 199.206 190.952 199.256 191.224 199.256C191.484 199.256 191.698 199.226 191.866 199.166C192.034 199.102 192.172 199.032 192.28 198.956C192.392 198.88 192.484 198.812 192.556 198.752C192.632 198.688 192.706 198.656 192.778 198.656C192.866 198.656 192.934 198.69 192.982 198.758L193.282 199.148C193.15 199.312 193 199.452 192.832 199.568C192.664 199.684 192.482 199.782 192.286 199.862C192.094 199.938 191.892 199.994 191.68 200.03C191.468 200.066 191.252 200.084 191.032 200.084C190.652 200.084 190.298 200.014 189.97 199.874C189.646 199.734 189.364 199.532 189.124 199.268C188.884 199 188.696 198.672 188.56 198.284C188.424 197.896 188.356 197.454 188.356 196.958C188.356 196.506 188.418 196.088 188.542 195.704C188.67 195.32 188.854 194.99 189.094 194.714C189.338 194.434 189.636 194.216 189.988 194.06C190.344 193.904 190.752 193.826 191.212 193.826C191.64 193.826 192.016 193.896 192.34 194.036C192.668 194.172 192.958 194.366 193.21 194.618L192.928 195.002ZM196.885 193.826C197.329 193.826 197.729 193.9 198.085 194.048C198.441 194.196 198.745 194.406 198.997 194.678C199.249 194.95 199.441 195.28 199.573 195.668C199.709 196.052 199.777 196.482 199.777 196.958C199.777 197.438 199.709 197.87 199.573 198.254C199.441 198.638 199.249 198.966 198.997 199.238C198.745 199.51 198.441 199.72 198.085 199.868C197.729 200.012 197.329 200.084 196.885 200.084C196.437 200.084 196.033 200.012 195.673 199.868C195.317 199.72 195.013 199.51 194.761 199.238C194.509 198.966 194.315 198.638 194.179 198.254C194.047 197.87 193.981 197.438 193.981 196.958C193.981 196.482 194.047 196.052 194.179 195.668C194.315 195.28 194.509 194.95 194.761 194.678C195.013 194.406 195.317 194.196 195.673 194.048C196.033 193.9 196.437 193.826 196.885 193.826ZM196.885 199.25C197.485 199.25 197.933 199.05 198.229 198.65C198.525 198.246 198.673 197.684 198.673 196.964C198.673 196.24 198.525 195.676 198.229 195.272C197.933 194.868 197.485 194.666 196.885 194.666C196.581 194.666 196.315 194.718 196.087 194.822C195.863 194.926 195.675 195.076 195.523 195.272C195.375 195.468 195.263 195.71 195.187 195.998C195.115 196.282 195.079 196.604 195.079 196.964C195.079 197.684 195.227 198.246 195.523 198.65C195.823 199.05 196.277 199.25 196.885 199.25ZM201.131 200V193.922H201.773C201.925 193.922 202.019 193.996 202.055 194.144L202.133 194.768C202.357 194.492 202.609 194.266 202.889 194.09C203.169 193.914 203.493 193.826 203.861 193.826C204.269 193.826 204.599 193.94 204.851 194.168C205.107 194.396 205.291 194.704 205.403 195.092C205.491 194.872 205.603 194.682 205.739 194.522C205.879 194.362 206.035 194.23 206.207 194.126C206.379 194.022 206.561 193.946 206.753 193.898C206.949 193.85 207.147 193.826 207.347 193.826C207.667 193.826 207.951 193.878 208.199 193.982C208.451 194.082 208.663 194.23 208.835 194.426C209.011 194.622 209.145 194.864 209.237 195.152C209.329 195.436 209.375 195.762 209.375 196.13V200H208.301V196.13C208.301 195.654 208.197 195.294 207.989 195.05C207.781 194.802 207.481 194.678 207.089 194.678C206.913 194.678 206.745 194.71 206.585 194.774C206.429 194.834 206.291 194.924 206.171 195.044C206.051 195.164 205.955 195.316 205.883 195.5C205.815 195.68 205.781 195.89 205.781 196.13V200H204.707V196.13C204.707 195.642 204.609 195.278 204.413 195.038C204.217 194.798 203.931 194.678 203.555 194.678C203.291 194.678 203.047 194.75 202.823 194.894C202.599 195.034 202.393 195.226 202.205 195.47V200H201.131ZM210.998 200V193.922H211.64C211.792 193.922 211.886 193.996 211.922 194.144L212 194.768C212.224 194.492 212.476 194.266 212.756 194.09C213.036 193.914 213.36 193.826 213.728 193.826C214.136 193.826 214.466 193.94 214.718 194.168C214.974 194.396 215.158 194.704 215.27 195.092C215.358 194.872 215.47 194.682 215.606 194.522C215.746 194.362 215.902 194.23 216.074 194.126C216.246 194.022 216.428 193.946 216.62 193.898C216.816 193.85 217.014 193.826 217.214 193.826C217.534 193.826 217.818 193.878 218.066 193.982C218.318 194.082 218.53 194.23 218.702 194.426C218.878 194.622 219.012 194.864 219.104 195.152C219.196 195.436 219.242 195.762 219.242 196.13V200H218.168V196.13C218.168 195.654 218.064 195.294 217.856 195.05C217.648 194.802 217.348 194.678 216.956 194.678C216.78 194.678 216.612 194.71 216.452 194.774C216.296 194.834 216.158 194.924 216.038 195.044C215.918 195.164 215.822 195.316 215.75 195.5C215.682 195.68 215.648 195.89 215.648 196.13V200H214.574V196.13C214.574 195.642 214.476 195.278 214.28 195.038C214.084 194.798 213.798 194.678 213.422 194.678C213.158 194.678 212.914 194.75 212.69 194.894C212.466 195.034 212.26 195.226 212.072 195.47V200H210.998ZM224.934 196.298C224.934 196.05 224.898 195.824 224.826 195.62C224.758 195.412 224.656 195.234 224.52 195.086C224.388 194.934 224.226 194.818 224.034 194.738C223.842 194.654 223.624 194.612 223.38 194.612C222.868 194.612 222.462 194.762 222.162 195.062C221.866 195.358 221.682 195.77 221.61 196.298H224.934ZM225.798 199.148C225.666 199.308 225.508 199.448 225.324 199.568C225.14 199.684 224.942 199.78 224.73 199.856C224.522 199.932 224.306 199.988 224.082 200.024C223.858 200.064 223.636 200.084 223.416 200.084C222.996 200.084 222.608 200.014 222.252 199.874C221.9 199.73 221.594 199.522 221.334 199.25C221.078 198.974 220.878 198.634 220.734 198.23C220.59 197.826 220.518 197.362 220.518 196.838C220.518 196.414 220.582 196.018 220.71 195.65C220.842 195.282 221.03 194.964 221.274 194.696C221.518 194.424 221.816 194.212 222.168 194.06C222.52 193.904 222.916 193.826 223.356 193.826C223.72 193.826 224.056 193.888 224.364 194.012C224.676 194.132 224.944 194.308 225.168 194.54C225.396 194.768 225.574 195.052 225.702 195.392C225.83 195.728 225.894 196.112 225.894 196.544C225.894 196.712 225.876 196.824 225.84 196.88C225.804 196.936 225.736 196.964 225.636 196.964H221.574C221.586 197.348 221.638 197.682 221.73 197.966C221.826 198.25 221.958 198.488 222.126 198.68C222.294 198.868 222.494 199.01 222.726 199.106C222.958 199.198 223.218 199.244 223.506 199.244C223.774 199.244 224.004 199.214 224.196 199.154C224.392 199.09 224.56 199.022 224.7 198.95C224.84 198.878 224.956 198.812 225.048 198.752C225.144 198.688 225.226 198.656 225.294 198.656C225.382 198.656 225.45 198.69 225.498 198.758L225.798 199.148ZM228.213 194.804C228.345 194.656 228.485 194.522 228.633 194.402C228.781 194.282 228.937 194.18 229.101 194.096C229.269 194.008 229.445 193.942 229.629 193.898C229.817 193.85 230.019 193.826 230.235 193.826C230.567 193.826 230.859 193.882 231.111 193.994C231.367 194.102 231.579 194.258 231.747 194.462C231.919 194.662 232.049 194.904 232.137 195.188C232.225 195.472 232.269 195.786 232.269 196.13V200H231.195V196.13C231.195 195.67 231.089 195.314 230.877 195.062C230.669 194.806 230.351 194.678 229.923 194.678C229.607 194.678 229.311 194.754 229.035 194.906C228.763 195.058 228.511 195.264 228.279 195.524V200H227.205V193.922H227.847C227.999 193.922 228.093 193.996 228.129 194.144L228.213 194.804ZM237.857 195.368C237.657 195.1 237.441 194.914 237.209 194.81C236.977 194.702 236.717 194.648 236.429 194.648C235.865 194.648 235.431 194.85 235.127 195.254C234.823 195.658 234.671 196.234 234.671 196.982C234.671 197.378 234.705 197.718 234.773 198.002C234.841 198.282 234.941 198.514 235.073 198.698C235.205 198.878 235.367 199.01 235.559 199.094C235.751 199.178 235.969 199.22 236.213 199.22C236.565 199.22 236.871 199.14 237.131 198.98C237.395 198.82 237.637 198.594 237.857 198.302V195.368ZM238.925 191.162V200H238.289C238.137 200 238.041 199.926 238.001 199.778L237.905 199.04C237.645 199.352 237.349 199.604 237.017 199.796C236.685 199.988 236.301 200.084 235.865 200.084C235.517 200.084 235.201 200.018 234.917 199.886C234.633 199.75 234.391 199.552 234.191 199.292C233.991 199.032 233.837 198.708 233.729 198.32C233.621 197.932 233.567 197.486 233.567 196.982C233.567 196.534 233.627 196.118 233.747 195.734C233.867 195.346 234.039 195.01 234.263 194.726C234.487 194.442 234.761 194.22 235.085 194.06C235.413 193.896 235.781 193.814 236.189 193.814C236.561 193.814 236.879 193.878 237.143 194.006C237.411 194.13 237.649 194.304 237.857 194.528V191.162H238.925ZM244.68 196.298C244.68 196.05 244.644 195.824 244.572 195.62C244.504 195.412 244.402 195.234 244.266 195.086C244.134 194.934 243.972 194.818 243.78 194.738C243.588 194.654 243.37 194.612 243.126 194.612C242.614 194.612 242.208 194.762 241.908 195.062C241.612 195.358 241.428 195.77 241.356 196.298H244.68ZM245.544 199.148C245.412 199.308 245.254 199.448 245.07 199.568C244.886 199.684 244.688 199.78 244.476 199.856C244.268 199.932 244.052 199.988 243.828 200.024C243.604 200.064 243.382 200.084 243.162 200.084C242.742 200.084 242.354 200.014 241.998 199.874C241.646 199.73 241.34 199.522 241.08 199.25C240.824 198.974 240.624 198.634 240.48 198.23C240.336 197.826 240.264 197.362 240.264 196.838C240.264 196.414 240.328 196.018 240.456 195.65C240.588 195.282 240.776 194.964 241.02 194.696C241.264 194.424 241.562 194.212 241.914 194.06C242.266 193.904 242.662 193.826 243.102 193.826C243.466 193.826 243.802 193.888 244.11 194.012C244.422 194.132 244.69 194.308 244.914 194.54C245.142 194.768 245.32 195.052 245.448 195.392C245.576 195.728 245.64 196.112 245.64 196.544C245.64 196.712 245.622 196.824 245.586 196.88C245.55 196.936 245.482 196.964 245.382 196.964H241.32C241.332 197.348 241.384 197.682 241.476 197.966C241.572 198.25 241.704 198.488 241.872 198.68C242.04 198.868 242.24 199.01 242.472 199.106C242.704 199.198 242.964 199.244 243.252 199.244C243.52 199.244 243.75 199.214 243.942 199.154C244.138 199.09 244.306 199.022 244.446 198.95C244.586 198.878 244.702 198.812 244.794 198.752C244.89 198.688 244.972 198.656 245.04 198.656C245.128 198.656 245.196 198.69 245.244 198.758L245.544 199.148ZM250.911 195.368C250.711 195.1 250.495 194.914 250.263 194.81C250.031 194.702 249.771 194.648 249.483 194.648C248.919 194.648 248.485 194.85 248.181 195.254C247.877 195.658 247.725 196.234 247.725 196.982C247.725 197.378 247.759 197.718 247.827 198.002C247.895 198.282 247.995 198.514 248.127 198.698C248.259 198.878 248.421 199.01 248.613 199.094C248.805 199.178 249.023 199.22 249.267 199.22C249.619 199.22 249.925 199.14 250.185 198.98C250.449 198.82 250.691 198.594 250.911 198.302V195.368ZM251.979 191.162V200H251.343C251.191 200 251.095 199.926 251.055 199.778L250.959 199.04C250.699 199.352 250.403 199.604 250.071 199.796C249.739 199.988 249.355 200.084 248.919 200.084C248.571 200.084 248.255 200.018 247.971 199.886C247.687 199.75 247.445 199.552 247.245 199.292C247.045 199.032 246.891 198.708 246.783 198.32C246.675 197.932 246.621 197.486 246.621 196.982C246.621 196.534 246.681 196.118 246.801 195.734C246.921 195.346 247.093 195.01 247.317 194.726C247.541 194.442 247.815 194.22 248.139 194.06C248.467 193.896 248.835 193.814 249.243 193.814C249.615 193.814 249.933 193.878 250.197 194.006C250.465 194.13 250.703 194.304 250.911 194.528V191.162H251.979Z" fill="#262626"/>
</g>
</svg>
