<svg width="846" height="296" viewBox="0 0 846 296" fill="none" xmlns="http://www.w3.org/2000/svg">
<rect x="1.5" y="1.5" width="843" height="293" rx="3.5" fill="#F2F1F1"/>
<rect x="1.5" y="1.5" width="843" height="293" rx="3.5" stroke="#FBBC04" stroke-width="3" stroke-dasharray="10 10"/>
<g opacity="0.5">
<path fill-rule="evenodd" clip-rule="evenodd" d="M424.5 90V102L424.5 102.054V102.054C424.5 102.479 424.5 102.891 424.546 103.231C424.597 103.614 424.723 104.051 425.086 104.414C425.449 104.777 425.886 104.903 426.269 104.954C426.609 105 427.022 105 427.446 105L427.5 105H443V118C443 123.657 443 126.485 440.803 128.243C438.607 130 435.071 130 428 130H418C410.929 130 407.393 130 405.197 128.243C403 126.485 403 123.657 403 118V102C403 96.3431 403 93.5147 405.197 91.7574C407.393 90 410.929 90 418 90H424.5ZM426.5 90V102C426.5 102.5 426.502 102.774 426.528 102.964L426.529 102.971L426.536 102.972C426.726 102.998 427 103 427.5 103H443C442.998 101.571 442.975 100.813 442.619 100.126C442.239 99.3911 441.516 98.813 440.071 97.6569L440.071 97.6569L440.071 97.6569L440.071 97.6569L433.429 92.3431C431.984 91.187 431.261 90.609 430.342 90.3045C429.445 90.0071 428.449 90.0002 426.5 90ZM414.5 112C414.5 111.448 414.948 111 415.5 111H430.5C431.052 111 431.5 111.448 431.5 112C431.5 112.552 431.052 113 430.5 113H415.5C414.948 113 414.5 112.552 414.5 112ZM415.5 119C414.948 119 414.5 119.448 414.5 120C414.5 120.552 414.948 121 415.5 121H425.5C426.052 121 426.5 120.552 426.5 120C426.5 119.448 426.052 119 425.5 119H415.5Z" fill="#262626"/>
<path d="M356.148 155.076C356.504 155.076 356.822 155.016 357.102 154.896C357.382 154.776 357.618 154.608 357.81 154.392C358.006 154.176 358.154 153.918 358.254 153.618C358.358 153.318 358.41 152.988 358.41 152.628V147.402H359.568V152.628C359.568 153.124 359.488 153.584 359.328 154.008C359.172 154.432 358.946 154.8 358.65 155.112C358.358 155.42 358 155.662 357.576 155.838C357.152 156.014 356.676 156.102 356.148 156.102C355.62 156.102 355.144 156.014 354.72 155.838C354.296 155.662 353.936 155.42 353.64 155.112C353.344 154.8 353.116 154.432 352.956 154.008C352.8 153.584 352.722 153.124 352.722 152.628V147.402H353.88V152.622C353.88 152.982 353.93 153.312 354.03 153.612C354.134 153.912 354.282 154.17 354.474 154.386C354.67 154.602 354.908 154.772 355.188 154.896C355.472 155.016 355.792 155.076 356.148 155.076ZM362.301 154.536C362.497 154.8 362.711 154.986 362.943 155.094C363.175 155.202 363.435 155.256 363.723 155.256C364.291 155.256 364.727 155.054 365.031 154.65C365.335 154.246 365.487 153.67 365.487 152.922C365.487 152.526 365.451 152.186 365.379 151.902C365.311 151.618 365.211 151.386 365.079 151.206C364.947 151.022 364.785 150.888 364.593 150.804C364.401 150.72 364.183 150.678 363.939 150.678C363.591 150.678 363.285 150.758 363.021 150.918C362.761 151.078 362.521 151.304 362.301 151.596V154.536ZM362.247 150.864C362.503 150.548 362.799 150.294 363.135 150.102C363.471 149.91 363.855 149.814 364.287 149.814C364.639 149.814 364.957 149.882 365.241 150.018C365.525 150.15 365.767 150.348 365.967 150.612C366.167 150.872 366.321 151.196 366.429 151.584C366.537 151.972 366.591 152.418 366.591 152.922C366.591 153.37 366.531 153.788 366.411 154.176C366.291 154.56 366.117 154.894 365.889 155.178C365.665 155.458 365.389 155.68 365.061 155.844C364.737 156.004 364.371 156.084 363.963 156.084C363.591 156.084 363.271 156.022 363.003 155.898C362.739 155.77 362.505 155.594 362.301 155.37V158.058H361.227V149.922H361.869C362.021 149.922 362.115 149.996 362.151 150.144L362.247 150.864ZM369.057 147.162V156H367.989V147.162H369.057ZM373.351 149.826C373.795 149.826 374.195 149.9 374.551 150.048C374.907 150.196 375.211 150.406 375.463 150.678C375.715 150.95 375.907 151.28 376.039 151.668C376.175 152.052 376.243 152.482 376.243 152.958C376.243 153.438 376.175 153.87 376.039 154.254C375.907 154.638 375.715 154.966 375.463 155.238C375.211 155.51 374.907 155.72 374.551 155.868C374.195 156.012 373.795 156.084 373.351 156.084C372.903 156.084 372.499 156.012 372.139 155.868C371.783 155.72 371.479 155.51 371.227 155.238C370.975 154.966 370.781 154.638 370.645 154.254C370.513 153.87 370.447 153.438 370.447 152.958C370.447 152.482 370.513 152.052 370.645 151.668C370.781 151.28 370.975 150.95 371.227 150.678C371.479 150.406 371.783 150.196 372.139 150.048C372.499 149.9 372.903 149.826 373.351 149.826ZM373.351 155.25C373.951 155.25 374.399 155.05 374.695 154.65C374.991 154.246 375.139 153.684 375.139 152.964C375.139 152.24 374.991 151.676 374.695 151.272C374.399 150.868 373.951 150.666 373.351 150.666C373.047 150.666 372.781 150.718 372.553 150.822C372.329 150.926 372.141 151.076 371.989 151.272C371.841 151.468 371.729 151.71 371.653 151.998C371.581 152.282 371.545 152.604 371.545 152.964C371.545 153.684 371.693 154.246 371.989 154.65C372.289 155.05 372.743 155.25 373.351 155.25ZM380.892 153.264C380.4 153.28 379.98 153.32 379.632 153.384C379.288 153.444 379.006 153.524 378.786 153.624C378.57 153.724 378.412 153.842 378.312 153.978C378.216 154.114 378.168 154.266 378.168 154.434C378.168 154.594 378.194 154.732 378.246 154.848C378.298 154.964 378.368 155.06 378.456 155.136C378.548 155.208 378.654 155.262 378.774 155.298C378.898 155.33 379.03 155.346 379.17 155.346C379.358 155.346 379.53 155.328 379.686 155.292C379.842 155.252 379.988 155.196 380.124 155.124C380.264 155.052 380.396 154.966 380.52 154.866C380.648 154.766 380.772 154.652 380.892 154.524V153.264ZM377.442 150.78C377.778 150.456 378.14 150.214 378.528 150.054C378.916 149.894 379.346 149.814 379.818 149.814C380.158 149.814 380.46 149.87 380.724 149.982C380.988 150.094 381.21 150.25 381.39 150.45C381.57 150.65 381.706 150.892 381.798 151.176C381.89 151.46 381.936 151.772 381.936 152.112V156H381.462C381.358 156 381.278 155.984 381.222 155.952C381.166 155.916 381.122 155.848 381.09 155.748L380.97 155.172C380.81 155.32 380.654 155.452 380.502 155.568C380.35 155.68 380.19 155.776 380.022 155.856C379.854 155.932 379.674 155.99 379.482 156.03C379.294 156.074 379.084 156.096 378.852 156.096C378.616 156.096 378.394 156.064 378.186 156C377.978 155.932 377.796 155.832 377.64 155.7C377.488 155.568 377.366 155.402 377.274 155.202C377.186 154.998 377.142 154.758 377.142 154.482C377.142 154.242 377.208 154.012 377.34 153.792C377.472 153.568 377.686 153.37 377.982 153.198C378.278 153.026 378.664 152.886 379.14 152.778C379.616 152.666 380.2 152.602 380.892 152.586V152.112C380.892 151.64 380.79 151.284 380.586 151.044C380.382 150.8 380.084 150.678 379.692 150.678C379.428 150.678 379.206 150.712 379.026 150.78C378.85 150.844 378.696 150.918 378.564 151.002C378.436 151.082 378.324 151.156 378.228 151.224C378.136 151.288 378.044 151.32 377.952 151.32C377.88 151.32 377.818 151.302 377.766 151.266C377.714 151.226 377.67 151.178 377.634 151.122L377.442 150.78ZM387.523 151.368C387.323 151.1 387.107 150.914 386.875 150.81C386.643 150.702 386.383 150.648 386.095 150.648C385.531 150.648 385.097 150.85 384.793 151.254C384.489 151.658 384.337 152.234 384.337 152.982C384.337 153.378 384.371 153.718 384.439 154.002C384.507 154.282 384.607 154.514 384.739 154.698C384.871 154.878 385.033 155.01 385.225 155.094C385.417 155.178 385.635 155.22 385.879 155.22C386.231 155.22 386.537 155.14 386.797 154.98C387.061 154.82 387.303 154.594 387.523 154.302V151.368ZM388.591 147.162V156H387.955C387.803 156 387.707 155.926 387.667 155.778L387.571 155.04C387.311 155.352 387.015 155.604 386.683 155.796C386.351 155.988 385.967 156.084 385.531 156.084C385.183 156.084 384.867 156.018 384.583 155.886C384.299 155.75 384.057 155.552 383.857 155.292C383.657 155.032 383.503 154.708 383.395 154.32C383.287 153.932 383.233 153.486 383.233 152.982C383.233 152.534 383.293 152.118 383.413 151.734C383.533 151.346 383.705 151.01 383.929 150.726C384.153 150.442 384.427 150.22 384.751 150.06C385.079 149.896 385.447 149.814 385.855 149.814C386.227 149.814 386.545 149.878 386.809 150.006C387.077 150.13 387.315 150.304 387.523 150.528V147.162H388.591ZM398.287 149.922L394.897 157.794C394.861 157.874 394.815 157.938 394.759 157.986C394.707 158.034 394.625 158.058 394.513 158.058H393.721L394.831 155.646L392.323 149.922H393.247C393.339 149.922 393.411 149.946 393.463 149.994C393.519 150.038 393.557 150.088 393.577 150.144L395.203 153.972C395.267 154.14 395.321 154.316 395.365 154.5C395.421 154.312 395.481 154.134 395.545 153.966L397.123 150.144C397.147 150.08 397.187 150.028 397.243 149.988C397.303 149.944 397.369 149.922 397.441 149.922H398.287ZM401.629 149.826C402.073 149.826 402.473 149.9 402.829 150.048C403.185 150.196 403.489 150.406 403.741 150.678C403.993 150.95 404.185 151.28 404.317 151.668C404.453 152.052 404.521 152.482 404.521 152.958C404.521 153.438 404.453 153.87 404.317 154.254C404.185 154.638 403.993 154.966 403.741 155.238C403.489 155.51 403.185 155.72 402.829 155.868C402.473 156.012 402.073 156.084 401.629 156.084C401.181 156.084 400.777 156.012 400.417 155.868C400.061 155.72 399.757 155.51 399.505 155.238C399.253 154.966 399.059 154.638 398.923 154.254C398.791 153.87 398.725 153.438 398.725 152.958C398.725 152.482 398.791 152.052 398.923 151.668C399.059 151.28 399.253 150.95 399.505 150.678C399.757 150.406 400.061 150.196 400.417 150.048C400.777 149.9 401.181 149.826 401.629 149.826ZM401.629 155.25C402.229 155.25 402.677 155.05 402.973 154.65C403.269 154.246 403.417 153.684 403.417 152.964C403.417 152.24 403.269 151.676 402.973 151.272C402.677 150.868 402.229 150.666 401.629 150.666C401.325 150.666 401.059 150.718 400.831 150.822C400.607 150.926 400.419 151.076 400.267 151.272C400.119 151.468 400.007 151.71 399.931 151.998C399.859 152.282 399.823 152.604 399.823 152.964C399.823 153.684 399.971 154.246 400.267 154.65C400.567 155.05 401.021 155.25 401.629 155.25ZM410.873 149.922V156H410.237C410.085 156 409.989 155.926 409.949 155.778L409.865 155.124C409.601 155.416 409.305 155.652 408.977 155.832C408.649 156.008 408.273 156.096 407.849 156.096C407.517 156.096 407.223 156.042 406.967 155.934C406.715 155.822 406.503 155.666 406.331 155.466C406.159 155.266 406.029 155.024 405.941 154.74C405.857 154.456 405.815 154.142 405.815 153.798V149.922H406.883V153.798C406.883 154.258 406.987 154.614 407.195 154.866C407.407 155.118 407.729 155.244 408.161 155.244C408.477 155.244 408.771 155.17 409.043 155.022C409.319 154.87 409.573 154.662 409.805 154.398V149.922H410.873ZM413.581 151.14C413.773 150.724 414.009 150.4 414.289 150.168C414.569 149.932 414.911 149.814 415.315 149.814C415.443 149.814 415.565 149.828 415.681 149.856C415.801 149.884 415.907 149.928 415.999 149.988L415.921 150.786C415.897 150.886 415.837 150.936 415.741 150.936C415.685 150.936 415.603 150.924 415.495 150.9C415.387 150.876 415.265 150.864 415.129 150.864C414.937 150.864 414.765 150.892 414.613 150.948C414.465 151.004 414.331 151.088 414.211 151.2C414.095 151.308 413.989 151.444 413.893 151.608C413.801 151.768 413.717 151.952 413.641 152.16V156H412.567V149.922H413.179C413.295 149.922 413.375 149.944 413.419 149.988C413.463 150.032 413.493 150.108 413.509 150.216L413.581 151.14ZM420.824 154.536C421.02 154.8 421.234 154.986 421.466 155.094C421.698 155.202 421.958 155.256 422.246 155.256C422.814 155.256 423.25 155.054 423.554 154.65C423.858 154.246 424.01 153.67 424.01 152.922C424.01 152.526 423.974 152.186 423.902 151.902C423.834 151.618 423.734 151.386 423.602 151.206C423.47 151.022 423.308 150.888 423.116 150.804C422.924 150.72 422.706 150.678 422.462 150.678C422.114 150.678 421.808 150.758 421.544 150.918C421.284 151.078 421.044 151.304 420.824 151.596V154.536ZM420.77 150.864C421.026 150.548 421.322 150.294 421.658 150.102C421.994 149.91 422.378 149.814 422.81 149.814C423.162 149.814 423.48 149.882 423.764 150.018C424.048 150.15 424.29 150.348 424.49 150.612C424.69 150.872 424.844 151.196 424.952 151.584C425.06 151.972 425.114 152.418 425.114 152.922C425.114 153.37 425.054 153.788 424.934 154.176C424.814 154.56 424.64 154.894 424.412 155.178C424.188 155.458 423.912 155.68 423.584 155.844C423.26 156.004 422.894 156.084 422.486 156.084C422.114 156.084 421.794 156.022 421.526 155.898C421.262 155.77 421.028 155.594 420.824 155.37V158.058H419.75V149.922H420.392C420.544 149.922 420.638 149.996 420.674 150.144L420.77 150.864ZM427.491 151.14C427.683 150.724 427.919 150.4 428.199 150.168C428.479 149.932 428.821 149.814 429.225 149.814C429.353 149.814 429.475 149.828 429.591 149.856C429.711 149.884 429.817 149.928 429.909 149.988L429.831 150.786C429.807 150.886 429.747 150.936 429.651 150.936C429.595 150.936 429.513 150.924 429.405 150.9C429.297 150.876 429.175 150.864 429.039 150.864C428.847 150.864 428.675 150.892 428.523 150.948C428.375 151.004 428.241 151.088 428.121 151.2C428.005 151.308 427.899 151.444 427.803 151.608C427.711 151.768 427.627 151.952 427.551 152.16V156H426.477V149.922H427.089C427.205 149.922 427.285 149.944 427.329 149.988C427.373 150.032 427.403 150.108 427.419 150.216L427.491 151.14ZM433.164 149.826C433.608 149.826 434.008 149.9 434.364 150.048C434.72 150.196 435.024 150.406 435.276 150.678C435.528 150.95 435.72 151.28 435.852 151.668C435.988 152.052 436.056 152.482 436.056 152.958C436.056 153.438 435.988 153.87 435.852 154.254C435.72 154.638 435.528 154.966 435.276 155.238C435.024 155.51 434.72 155.72 434.364 155.868C434.008 156.012 433.608 156.084 433.164 156.084C432.716 156.084 432.312 156.012 431.952 155.868C431.596 155.72 431.292 155.51 431.04 155.238C430.788 154.966 430.594 154.638 430.458 154.254C430.326 153.87 430.26 153.438 430.26 152.958C430.26 152.482 430.326 152.052 430.458 151.668C430.594 151.28 430.788 150.95 431.04 150.678C431.292 150.406 431.596 150.196 431.952 150.048C432.312 149.9 432.716 149.826 433.164 149.826ZM433.164 155.25C433.764 155.25 434.212 155.05 434.508 154.65C434.804 154.246 434.952 153.684 434.952 152.964C434.952 152.24 434.804 151.676 434.508 151.272C434.212 150.868 433.764 150.666 433.164 150.666C432.86 150.666 432.594 150.718 432.366 150.822C432.142 150.926 431.954 151.076 431.802 151.272C431.654 151.468 431.542 151.71 431.466 151.998C431.394 152.282 431.358 152.604 431.358 152.964C431.358 153.684 431.506 154.246 431.802 154.65C432.102 155.05 432.556 155.25 433.164 155.25ZM441.37 151.368C441.17 151.1 440.954 150.914 440.722 150.81C440.49 150.702 440.23 150.648 439.942 150.648C439.378 150.648 438.944 150.85 438.64 151.254C438.336 151.658 438.184 152.234 438.184 152.982C438.184 153.378 438.218 153.718 438.286 154.002C438.354 154.282 438.454 154.514 438.586 154.698C438.718 154.878 438.88 155.01 439.072 155.094C439.264 155.178 439.482 155.22 439.726 155.22C440.078 155.22 440.384 155.14 440.644 154.98C440.908 154.82 441.15 154.594 441.37 154.302V151.368ZM442.438 147.162V156H441.802C441.65 156 441.554 155.926 441.514 155.778L441.418 155.04C441.158 155.352 440.862 155.604 440.53 155.796C440.198 155.988 439.814 156.084 439.378 156.084C439.03 156.084 438.714 156.018 438.43 155.886C438.146 155.75 437.904 155.552 437.704 155.292C437.504 155.032 437.35 154.708 437.242 154.32C437.134 153.932 437.08 153.486 437.08 152.982C437.08 152.534 437.14 152.118 437.26 151.734C437.38 151.346 437.552 151.01 437.776 150.726C438 150.442 438.274 150.22 438.598 150.06C438.926 149.896 439.294 149.814 439.702 149.814C440.074 149.814 440.392 149.878 440.656 150.006C440.924 150.13 441.162 150.304 441.37 150.528V147.162H442.438ZM449.123 149.922V156H448.487C448.335 156 448.239 155.926 448.199 155.778L448.115 155.124C447.851 155.416 447.555 155.652 447.227 155.832C446.899 156.008 446.523 156.096 446.099 156.096C445.767 156.096 445.473 156.042 445.217 155.934C444.965 155.822 444.753 155.666 444.581 155.466C444.409 155.266 444.279 155.024 444.191 154.74C444.107 154.456 444.065 154.142 444.065 153.798V149.922H445.133V153.798C445.133 154.258 445.237 154.614 445.445 154.866C445.657 155.118 445.979 155.244 446.411 155.244C446.727 155.244 447.021 155.17 447.293 155.022C447.569 154.87 447.823 154.662 448.055 154.398V149.922H449.123ZM455.047 151.002C455.015 151.046 454.983 151.08 454.951 151.104C454.919 151.128 454.875 151.14 454.819 151.14C454.759 151.14 454.693 151.116 454.621 151.068C454.549 151.016 454.459 150.96 454.351 150.9C454.247 150.84 454.117 150.786 453.961 150.738C453.809 150.686 453.621 150.66 453.397 150.66C453.097 150.66 452.833 150.714 452.605 150.822C452.377 150.926 452.185 151.078 452.029 151.278C451.877 151.478 451.761 151.72 451.681 152.004C451.605 152.288 451.567 152.606 451.567 152.958C451.567 153.326 451.609 153.654 451.693 153.942C451.777 154.226 451.895 154.466 452.047 154.662C452.203 154.854 452.389 155.002 452.605 155.106C452.825 155.206 453.071 155.256 453.343 155.256C453.603 155.256 453.817 155.226 453.985 155.166C454.153 155.102 454.291 155.032 454.399 154.956C454.511 154.88 454.603 154.812 454.675 154.752C454.751 154.688 454.825 154.656 454.897 154.656C454.985 154.656 455.053 154.69 455.101 154.758L455.401 155.148C455.269 155.312 455.119 155.452 454.951 155.568C454.783 155.684 454.601 155.782 454.405 155.862C454.213 155.938 454.011 155.994 453.799 156.03C453.587 156.066 453.371 156.084 453.151 156.084C452.771 156.084 452.417 156.014 452.089 155.874C451.765 155.734 451.483 155.532 451.243 155.268C451.003 155 450.815 154.672 450.679 154.284C450.543 153.896 450.475 153.454 450.475 152.958C450.475 152.506 450.537 152.088 450.661 151.704C450.789 151.32 450.973 150.99 451.213 150.714C451.457 150.434 451.755 150.216 452.107 150.06C452.463 149.904 452.871 149.826 453.331 149.826C453.759 149.826 454.135 149.896 454.459 150.036C454.787 150.172 455.077 150.366 455.329 150.618L455.047 151.002ZM458.413 156.096C457.933 156.096 457.563 155.962 457.303 155.694C457.047 155.426 456.919 155.04 456.919 154.536V150.816H456.187C456.123 150.816 456.069 150.798 456.025 150.762C455.981 150.722 455.959 150.662 455.959 150.582V150.156L456.955 150.03L457.201 148.152C457.213 148.092 457.239 148.044 457.279 148.008C457.323 147.968 457.379 147.948 457.447 147.948H457.987V150.042H459.745V150.816H457.987V154.464C457.987 154.72 458.049 154.91 458.173 155.034C458.297 155.158 458.457 155.22 458.653 155.22C458.765 155.22 458.861 155.206 458.941 155.178C459.025 155.146 459.097 155.112 459.157 155.076C459.217 155.04 459.267 155.008 459.307 154.98C459.351 154.948 459.389 154.932 459.421 154.932C459.477 154.932 459.527 154.966 459.571 155.034L459.883 155.544C459.699 155.716 459.477 155.852 459.217 155.952C458.957 156.048 458.689 156.096 458.413 156.096ZM465.046 149.922V156H463.978V149.922H465.046ZM465.274 148.014C465.274 148.118 465.252 148.216 465.208 148.308C465.168 148.396 465.112 148.476 465.04 148.548C464.972 148.616 464.89 148.67 464.794 148.71C464.702 148.75 464.604 148.77 464.5 148.77C464.396 148.77 464.298 148.75 464.206 148.71C464.118 148.67 464.04 148.616 463.972 148.548C463.904 148.476 463.85 148.396 463.81 148.308C463.77 148.216 463.75 148.118 463.75 148.014C463.75 147.91 463.77 147.812 463.81 147.72C463.85 147.624 463.904 147.542 463.972 147.474C464.04 147.402 464.118 147.346 464.206 147.306C464.298 147.266 464.396 147.246 464.5 147.246C464.604 147.246 464.702 147.266 464.794 147.306C464.89 147.346 464.972 147.402 465.04 147.474C465.112 147.542 465.168 147.624 465.208 147.72C465.252 147.812 465.274 147.91 465.274 148.014ZM466.801 156V149.922H467.443C467.595 149.922 467.689 149.996 467.725 150.144L467.803 150.768C468.027 150.492 468.279 150.266 468.559 150.09C468.839 149.914 469.163 149.826 469.531 149.826C469.939 149.826 470.269 149.94 470.521 150.168C470.777 150.396 470.961 150.704 471.073 151.092C471.161 150.872 471.273 150.682 471.409 150.522C471.549 150.362 471.705 150.23 471.877 150.126C472.049 150.022 472.231 149.946 472.423 149.898C472.619 149.85 472.817 149.826 473.017 149.826C473.337 149.826 473.621 149.878 473.869 149.982C474.121 150.082 474.333 150.23 474.505 150.426C474.681 150.622 474.815 150.864 474.907 151.152C474.999 151.436 475.045 151.762 475.045 152.13V156H473.971V152.13C473.971 151.654 473.867 151.294 473.659 151.05C473.451 150.802 473.151 150.678 472.759 150.678C472.583 150.678 472.415 150.71 472.255 150.774C472.099 150.834 471.961 150.924 471.841 151.044C471.721 151.164 471.625 151.316 471.553 151.5C471.485 151.68 471.451 151.89 471.451 152.13V156H470.377V152.13C470.377 151.642 470.279 151.278 470.083 151.038C469.887 150.798 469.601 150.678 469.225 150.678C468.961 150.678 468.717 150.75 468.493 150.894C468.269 151.034 468.063 151.226 467.875 151.47V156H466.801ZM479.962 153.264C479.47 153.28 479.05 153.32 478.702 153.384C478.358 153.444 478.076 153.524 477.856 153.624C477.64 153.724 477.482 153.842 477.382 153.978C477.286 154.114 477.238 154.266 477.238 154.434C477.238 154.594 477.264 154.732 477.316 154.848C477.368 154.964 477.438 155.06 477.526 155.136C477.618 155.208 477.724 155.262 477.844 155.298C477.968 155.33 478.1 155.346 478.24 155.346C478.428 155.346 478.6 155.328 478.756 155.292C478.912 155.252 479.058 155.196 479.194 155.124C479.334 155.052 479.466 154.966 479.59 154.866C479.718 154.766 479.842 154.652 479.962 154.524V153.264ZM476.512 150.78C476.848 150.456 477.21 150.214 477.598 150.054C477.986 149.894 478.416 149.814 478.888 149.814C479.228 149.814 479.53 149.87 479.794 149.982C480.058 150.094 480.28 150.25 480.46 150.45C480.64 150.65 480.776 150.892 480.868 151.176C480.96 151.46 481.006 151.772 481.006 152.112V156H480.532C480.428 156 480.348 155.984 480.292 155.952C480.236 155.916 480.192 155.848 480.16 155.748L480.04 155.172C479.88 155.32 479.724 155.452 479.572 155.568C479.42 155.68 479.26 155.776 479.092 155.856C478.924 155.932 478.744 155.99 478.552 156.03C478.364 156.074 478.154 156.096 477.922 156.096C477.686 156.096 477.464 156.064 477.256 156C477.048 155.932 476.866 155.832 476.71 155.7C476.558 155.568 476.436 155.402 476.344 155.202C476.256 154.998 476.212 154.758 476.212 154.482C476.212 154.242 476.278 154.012 476.41 153.792C476.542 153.568 476.756 153.37 477.052 153.198C477.348 153.026 477.734 152.886 478.21 152.778C478.686 152.666 479.27 152.602 479.962 152.586V152.112C479.962 151.64 479.86 151.284 479.656 151.044C479.452 150.8 479.154 150.678 478.762 150.678C478.498 150.678 478.276 150.712 478.096 150.78C477.92 150.844 477.766 150.918 477.634 151.002C477.506 151.082 477.394 151.156 477.298 151.224C477.206 151.288 477.114 151.32 477.022 151.32C476.95 151.32 476.888 151.302 476.836 151.266C476.784 151.226 476.74 151.178 476.704 151.122L476.512 150.78ZM484.751 153.03C484.967 153.03 485.157 153 485.321 152.94C485.485 152.88 485.623 152.796 485.735 152.688C485.847 152.58 485.931 152.452 485.987 152.304C486.043 152.152 486.071 151.986 486.071 151.806C486.071 151.434 485.957 151.138 485.729 150.918C485.505 150.698 485.179 150.588 484.751 150.588C484.319 150.588 483.989 150.698 483.761 150.918C483.537 151.138 483.425 151.434 483.425 151.806C483.425 151.986 483.453 152.152 483.509 152.304C483.569 152.452 483.655 152.58 483.767 152.688C483.879 152.796 484.017 152.88 484.181 152.94C484.345 153 484.535 153.03 484.751 153.03ZM486.677 156.33C486.677 156.182 486.635 156.062 486.551 155.97C486.467 155.878 486.353 155.806 486.209 155.754C486.069 155.702 485.905 155.666 485.717 155.646C485.529 155.622 485.329 155.604 485.117 155.592C484.909 155.58 484.697 155.568 484.481 155.556C484.265 155.544 484.057 155.524 483.857 155.496C483.633 155.6 483.449 155.732 483.305 155.892C483.165 156.048 483.095 156.232 483.095 156.444C483.095 156.58 483.129 156.706 483.197 156.822C483.269 156.942 483.377 157.044 483.521 157.128C483.665 157.216 483.845 157.284 484.061 157.332C484.281 157.384 484.539 157.41 484.835 157.41C485.123 157.41 485.381 157.384 485.609 157.332C485.837 157.28 486.029 157.206 486.185 157.11C486.345 157.014 486.467 156.9 486.551 156.768C486.635 156.636 486.677 156.49 486.677 156.33ZM487.763 150.162V150.558C487.763 150.69 487.679 150.774 487.511 150.81L486.821 150.9C486.957 151.164 487.025 151.456 487.025 151.776C487.025 152.072 486.967 152.342 486.851 152.586C486.739 152.826 486.583 153.032 486.383 153.204C486.183 153.376 485.943 153.508 485.663 153.6C485.383 153.692 485.079 153.738 484.751 153.738C484.467 153.738 484.199 153.704 483.947 153.636C483.819 153.716 483.721 153.802 483.653 153.894C483.585 153.982 483.551 154.072 483.551 154.164C483.551 154.308 483.609 154.418 483.725 154.494C483.845 154.566 484.001 154.618 484.193 154.65C484.385 154.682 484.603 154.702 484.847 154.71C485.095 154.718 485.347 154.732 485.603 154.752C485.863 154.768 486.115 154.798 486.359 154.842C486.607 154.886 486.827 154.958 487.019 155.058C487.211 155.158 487.365 155.296 487.481 155.472C487.601 155.648 487.661 155.876 487.661 156.156C487.661 156.416 487.595 156.668 487.463 156.912C487.335 157.156 487.149 157.372 486.905 157.56C486.661 157.752 486.361 157.904 486.005 158.016C485.653 158.132 485.255 158.19 484.811 158.19C484.367 158.19 483.979 158.146 483.647 158.058C483.315 157.97 483.039 157.852 482.819 157.704C482.599 157.556 482.433 157.384 482.321 157.188C482.213 156.996 482.159 156.794 482.159 156.582C482.159 156.282 482.253 156.028 482.441 155.82C482.629 155.612 482.887 155.446 483.215 155.322C483.035 155.242 482.891 155.136 482.783 155.004C482.679 154.868 482.627 154.686 482.627 154.458C482.627 154.37 482.643 154.28 482.675 154.188C482.707 154.092 482.755 153.998 482.819 153.906C482.887 153.81 482.969 153.72 483.065 153.636C483.161 153.552 483.273 153.478 483.401 153.414C483.101 153.246 482.867 153.024 482.699 152.748C482.531 152.468 482.447 152.144 482.447 151.776C482.447 151.48 482.503 151.212 482.615 150.972C482.731 150.728 482.891 150.522 483.095 150.354C483.299 150.182 483.541 150.05 483.821 149.958C484.105 149.866 484.415 149.82 484.751 149.82C485.015 149.82 485.261 149.85 485.489 149.91C485.717 149.966 485.925 150.05 486.113 150.162H487.763ZM492.842 152.298C492.842 152.05 492.806 151.824 492.734 151.62C492.666 151.412 492.564 151.234 492.428 151.086C492.296 150.934 492.134 150.818 491.942 150.738C491.75 150.654 491.532 150.612 491.288 150.612C490.776 150.612 490.37 150.762 490.07 151.062C489.774 151.358 489.59 151.77 489.518 152.298H492.842ZM493.706 155.148C493.574 155.308 493.416 155.448 493.232 155.568C493.048 155.684 492.85 155.78 492.638 155.856C492.43 155.932 492.214 155.988 491.99 156.024C491.766 156.064 491.544 156.084 491.324 156.084C490.904 156.084 490.516 156.014 490.16 155.874C489.808 155.73 489.502 155.522 489.242 155.25C488.986 154.974 488.786 154.634 488.642 154.23C488.498 153.826 488.426 153.362 488.426 152.838C488.426 152.414 488.49 152.018 488.618 151.65C488.75 151.282 488.938 150.964 489.182 150.696C489.426 150.424 489.724 150.212 490.076 150.06C490.428 149.904 490.824 149.826 491.264 149.826C491.628 149.826 491.964 149.888 492.272 150.012C492.584 150.132 492.852 150.308 493.076 150.54C493.304 150.768 493.482 151.052 493.61 151.392C493.738 151.728 493.802 152.112 493.802 152.544C493.802 152.712 493.784 152.824 493.748 152.88C493.712 152.936 493.644 152.964 493.544 152.964H489.482C489.494 153.348 489.546 153.682 489.638 153.966C489.734 154.25 489.866 154.488 490.034 154.68C490.202 154.868 490.402 155.01 490.634 155.106C490.866 155.198 491.126 155.244 491.414 155.244C491.682 155.244 491.912 155.214 492.104 155.154C492.3 155.09 492.468 155.022 492.608 154.95C492.748 154.878 492.864 154.812 492.956 154.752C493.052 154.688 493.134 154.656 493.202 154.656C493.29 154.656 493.358 154.69 493.406 154.758L493.706 155.148ZM340.565 173.704C340.565 174.348 340.463 174.94 340.259 175.48C340.055 176.016 339.767 176.478 339.395 176.866C339.023 177.254 338.575 177.556 338.051 177.772C337.531 177.984 336.955 178.09 336.323 178.09C335.691 178.09 335.115 177.984 334.595 177.772C334.075 177.556 333.629 177.254 333.257 176.866C332.885 176.478 332.597 176.016 332.393 175.48C332.189 174.94 332.087 174.348 332.087 173.704C332.087 173.06 332.189 172.47 332.393 171.934C332.597 171.394 332.885 170.93 333.257 170.542C333.629 170.15 334.075 169.846 334.595 169.63C335.115 169.414 335.691 169.306 336.323 169.306C336.955 169.306 337.531 169.414 338.051 169.63C338.575 169.846 339.023 170.15 339.395 170.542C339.767 170.93 340.055 171.394 340.259 171.934C340.463 172.47 340.565 173.06 340.565 173.704ZM339.371 173.704C339.371 173.176 339.299 172.702 339.155 172.282C339.011 171.862 338.807 171.508 338.543 171.22C338.279 170.928 337.959 170.704 337.583 170.548C337.207 170.392 336.787 170.314 336.323 170.314C335.863 170.314 335.445 170.392 335.069 170.548C334.693 170.704 334.371 170.928 334.103 171.22C333.839 171.508 333.635 171.862 333.491 172.282C333.347 172.702 333.275 173.176 333.275 173.704C333.275 174.232 333.347 174.706 333.491 175.126C333.635 175.542 333.839 175.896 334.103 176.188C334.371 176.476 334.693 176.698 335.069 176.854C335.445 177.006 335.863 177.082 336.323 177.082C336.787 177.082 337.207 177.006 337.583 176.854C337.959 176.698 338.279 176.476 338.543 176.188C338.807 175.896 339.011 175.542 339.155 175.126C339.299 174.706 339.371 174.232 339.371 173.704ZM342.87 172.804C343.002 172.656 343.142 172.522 343.29 172.402C343.438 172.282 343.594 172.18 343.758 172.096C343.926 172.008 344.102 171.942 344.286 171.898C344.474 171.85 344.676 171.826 344.892 171.826C345.224 171.826 345.516 171.882 345.768 171.994C346.024 172.102 346.236 172.258 346.404 172.462C346.576 172.662 346.706 172.904 346.794 173.188C346.882 173.472 346.926 173.786 346.926 174.13V178H345.852V174.13C345.852 173.67 345.746 173.314 345.534 173.062C345.326 172.806 345.008 172.678 344.58 172.678C344.264 172.678 343.968 172.754 343.692 172.906C343.42 173.058 343.168 173.264 342.936 173.524V178H341.862V171.922H342.504C342.656 171.922 342.75 171.996 342.786 172.144L342.87 172.804ZM349.657 169.162V178H348.589V169.162H349.657ZM356.633 171.922L353.243 179.794C353.207 179.874 353.161 179.938 353.105 179.986C353.053 180.034 352.971 180.058 352.859 180.058H352.067L353.177 177.646L350.669 171.922H351.593C351.685 171.922 351.757 171.946 351.809 171.994C351.865 172.038 351.903 172.088 351.923 172.144L353.549 175.972C353.613 176.14 353.667 176.316 353.711 176.5C353.767 176.312 353.827 176.134 353.891 175.966L355.469 172.144C355.493 172.08 355.533 172.028 355.589 171.988C355.649 171.944 355.715 171.922 355.787 171.922H356.633ZM363.294 173.686C363.59 173.686 363.848 173.65 364.068 173.578C364.288 173.502 364.47 173.396 364.614 173.26C364.762 173.12 364.872 172.952 364.944 172.756C365.016 172.556 365.052 172.334 365.052 172.09C365.052 171.858 365.016 171.648 364.944 171.46C364.872 171.272 364.764 171.112 364.62 170.98C364.476 170.848 364.294 170.748 364.074 170.68C363.854 170.608 363.594 170.572 363.294 170.572H362.088V173.686H363.294ZM363.294 169.324C363.874 169.324 364.376 169.392 364.8 169.528C365.224 169.664 365.574 169.854 365.85 170.098C366.126 170.342 366.33 170.634 366.462 170.974C366.598 171.314 366.666 171.686 366.666 172.09C366.666 172.51 366.596 172.896 366.456 173.248C366.316 173.596 366.106 173.896 365.826 174.148C365.546 174.4 365.194 174.596 364.77 174.736C364.35 174.876 363.858 174.946 363.294 174.946H362.088V178H360.474V169.324H363.294ZM375.608 173.662C375.608 174.298 375.502 174.882 375.29 175.414C375.078 175.946 374.78 176.404 374.396 176.788C374.012 177.172 373.55 177.47 373.01 177.682C372.47 177.894 371.87 178 371.21 178H367.904V169.324H371.21C371.87 169.324 372.47 169.432 373.01 169.648C373.55 169.86 374.012 170.158 374.396 170.542C374.78 170.922 375.078 171.378 375.29 171.91C375.502 172.442 375.608 173.026 375.608 173.662ZM373.952 173.662C373.952 173.186 373.888 172.76 373.76 172.384C373.636 172.004 373.454 171.684 373.214 171.424C372.978 171.16 372.69 170.958 372.35 170.818C372.014 170.678 371.634 170.608 371.21 170.608H369.524V176.716H371.21C371.634 176.716 372.014 176.646 372.35 176.506C372.69 176.366 372.978 176.166 373.214 175.906C373.454 175.642 373.636 175.322 373.76 174.946C373.888 174.566 373.952 174.138 373.952 173.662ZM378.652 170.608V173.176H381.904V174.466H378.652V178H377.032V169.324H382.504V170.608H378.652ZM388.832 173.764C388.408 173.988 388.088 174.26 387.872 174.58C387.66 174.9 387.554 175.248 387.554 175.624C387.554 175.884 387.602 176.114 387.698 176.314C387.794 176.51 387.92 176.676 388.076 176.812C388.232 176.948 388.41 177.052 388.61 177.124C388.81 177.192 389.014 177.226 389.222 177.226C389.67 177.226 390.072 177.144 390.428 176.98C390.788 176.816 391.102 176.596 391.37 176.32L388.832 173.764ZM394.376 178H393.338C393.222 178 393.128 177.986 393.056 177.958C392.984 177.93 392.906 177.872 392.822 177.784L391.952 176.908C391.576 177.272 391.142 177.562 390.65 177.778C390.162 177.99 389.624 178.096 389.036 178.096C388.716 178.096 388.402 178.042 388.094 177.934C387.79 177.826 387.516 177.67 387.272 177.466C387.028 177.258 386.832 177.006 386.684 176.71C386.536 176.414 386.462 176.08 386.462 175.708C386.462 175.428 386.508 175.164 386.6 174.916C386.696 174.664 386.828 174.432 386.996 174.22C387.164 174.008 387.362 173.818 387.59 173.65C387.818 173.482 388.068 173.338 388.34 173.218C388.096 172.906 387.916 172.606 387.8 172.318C387.684 172.026 387.626 171.724 387.626 171.412C387.626 171.12 387.678 170.846 387.782 170.59C387.89 170.334 388.044 170.112 388.244 169.924C388.444 169.732 388.686 169.582 388.97 169.474C389.258 169.362 389.58 169.306 389.936 169.306C390.252 169.306 390.54 169.358 390.8 169.462C391.06 169.562 391.284 169.696 391.472 169.864C391.66 170.032 391.808 170.228 391.916 170.452C392.028 170.672 392.092 170.902 392.108 171.142L391.442 171.274C391.31 171.306 391.212 171.244 391.148 171.088C391.12 170.984 391.074 170.876 391.01 170.764C390.95 170.652 390.87 170.55 390.77 170.458C390.674 170.366 390.556 170.29 390.416 170.23C390.28 170.17 390.12 170.14 389.936 170.14C389.736 170.14 389.554 170.172 389.39 170.236C389.23 170.3 389.092 170.39 388.976 170.506C388.864 170.618 388.778 170.752 388.718 170.908C388.658 171.06 388.628 171.226 388.628 171.406C388.628 171.546 388.644 171.68 388.676 171.808C388.708 171.936 388.758 172.066 388.826 172.198C388.898 172.33 388.988 172.464 389.096 172.6C389.204 172.736 389.334 172.88 389.486 173.032L391.958 175.546C392.11 175.274 392.232 174.992 392.324 174.7C392.416 174.404 392.476 174.11 392.504 173.818C392.512 173.742 392.536 173.682 392.576 173.638C392.616 173.594 392.672 173.572 392.744 173.572H393.398C393.394 174.032 393.322 174.484 393.182 174.928C393.042 175.368 392.84 175.782 392.576 176.17L394.376 178ZM406.217 173.662C406.217 174.298 406.111 174.882 405.899 175.414C405.687 175.946 405.389 176.404 405.005 176.788C404.621 177.172 404.159 177.47 403.619 177.682C403.079 177.894 402.479 178 401.819 178H398.513V169.324H401.819C402.479 169.324 403.079 169.432 403.619 169.648C404.159 169.86 404.621 170.158 405.005 170.542C405.389 170.922 405.687 171.378 405.899 171.91C406.111 172.442 406.217 173.026 406.217 173.662ZM404.561 173.662C404.561 173.186 404.497 172.76 404.369 172.384C404.245 172.004 404.063 171.684 403.823 171.424C403.587 171.16 403.299 170.958 402.959 170.818C402.623 170.678 402.243 170.608 401.819 170.608H400.133V176.716H401.819C402.243 176.716 402.623 176.646 402.959 176.506C403.299 176.366 403.587 176.166 403.823 175.906C404.063 175.642 404.245 175.322 404.369 174.946C404.497 174.566 404.561 174.138 404.561 173.662ZM415.916 173.662C415.916 174.298 415.81 174.888 415.598 175.432C415.39 175.972 415.094 176.44 414.71 176.836C414.326 177.232 413.864 177.542 413.324 177.766C412.784 177.986 412.184 178.096 411.524 178.096C410.868 178.096 410.27 177.986 409.73 177.766C409.19 177.542 408.726 177.232 408.338 176.836C407.954 176.44 407.656 175.972 407.444 175.432C407.232 174.888 407.126 174.298 407.126 173.662C407.126 173.026 407.232 172.438 407.444 171.898C407.656 171.354 407.954 170.884 408.338 170.488C408.726 170.092 409.19 169.784 409.73 169.564C410.27 169.34 410.868 169.228 411.524 169.228C411.964 169.228 412.378 169.28 412.766 169.384C413.154 169.484 413.51 169.628 413.834 169.816C414.158 170 414.448 170.226 414.704 170.494C414.964 170.758 415.184 171.054 415.364 171.382C415.544 171.71 415.68 172.066 415.772 172.45C415.868 172.834 415.916 173.238 415.916 173.662ZM414.266 173.662C414.266 173.186 414.202 172.76 414.074 172.384C413.946 172.004 413.764 171.682 413.528 171.418C413.292 171.154 413.004 170.952 412.664 170.812C412.328 170.672 411.948 170.602 411.524 170.602C411.1 170.602 410.718 170.672 410.378 170.812C410.042 170.952 409.754 171.154 409.514 171.418C409.278 171.682 409.096 172.004 408.968 172.384C408.84 172.76 408.776 173.186 408.776 173.662C408.776 174.138 408.84 174.566 408.968 174.946C409.096 175.322 409.278 175.642 409.514 175.906C409.754 176.166 410.042 176.366 410.378 176.506C410.718 176.646 411.1 176.716 411.524 176.716C411.948 176.716 412.328 176.646 412.664 176.506C413.004 176.366 413.292 176.166 413.528 175.906C413.764 175.642 413.946 175.322 414.074 174.946C414.202 174.566 414.266 174.138 414.266 173.662ZM423.291 175.954C423.379 175.954 423.457 175.988 423.525 176.056L424.161 176.746C423.809 177.182 423.375 177.516 422.859 177.748C422.347 177.98 421.731 178.096 421.011 178.096C420.367 178.096 419.787 177.986 419.271 177.766C418.759 177.546 418.321 177.24 417.957 176.848C417.593 176.456 417.313 175.988 417.117 175.444C416.925 174.9 416.829 174.306 416.829 173.662C416.829 173.01 416.933 172.414 417.141 171.874C417.349 171.33 417.641 170.862 418.017 170.47C418.397 170.078 418.849 169.774 419.373 169.558C419.897 169.338 420.477 169.228 421.113 169.228C421.745 169.228 422.305 169.332 422.793 169.54C423.285 169.748 423.703 170.02 424.047 170.356L423.507 171.106C423.475 171.154 423.433 171.196 423.381 171.232C423.333 171.268 423.265 171.286 423.177 171.286C423.117 171.286 423.055 171.27 422.991 171.238C422.927 171.202 422.857 171.16 422.781 171.112C422.705 171.06 422.617 171.004 422.517 170.944C422.417 170.884 422.301 170.83 422.169 170.782C422.037 170.73 421.883 170.688 421.707 170.656C421.535 170.62 421.335 170.602 421.107 170.602C420.719 170.602 420.363 170.672 420.039 170.812C419.719 170.948 419.443 171.148 419.211 171.412C418.979 171.672 418.799 171.992 418.671 172.372C418.543 172.748 418.479 173.178 418.479 173.662C418.479 174.15 418.547 174.584 418.683 174.964C418.823 175.344 419.011 175.664 419.247 175.924C419.483 176.184 419.761 176.384 420.081 176.524C420.401 176.66 420.745 176.728 421.113 176.728C421.333 176.728 421.531 176.716 421.707 176.692C421.887 176.668 422.051 176.63 422.199 176.578C422.351 176.526 422.493 176.46 422.625 176.38C422.761 176.296 422.895 176.194 423.027 176.074C423.067 176.038 423.109 176.01 423.153 175.99C423.197 175.966 423.243 175.954 423.291 175.954ZM432.317 178H430.709C430.597 178 430.507 177.972 430.439 177.916C430.375 177.86 430.323 177.796 430.283 177.724L428.273 174.394C428.241 174.494 428.203 174.58 428.159 174.652L426.233 177.724C426.185 177.792 426.129 177.856 426.065 177.916C426.005 177.972 425.925 178 425.825 178H424.319L427.199 173.536L424.433 169.324H426.041C426.153 169.324 426.233 169.34 426.281 169.372C426.333 169.4 426.381 169.448 426.425 169.516L428.399 172.696C428.439 172.596 428.487 172.496 428.543 172.396L430.355 169.546C430.399 169.47 430.447 169.414 430.499 169.378C430.551 169.342 430.617 169.324 430.697 169.324H432.239L429.449 173.47L432.317 178ZM436.664 178V172.834L435.992 172.756C435.908 172.736 435.838 172.706 435.782 172.666C435.73 172.622 435.704 172.56 435.704 172.48V172.042H436.664V171.454C436.664 171.106 436.712 170.798 436.808 170.53C436.908 170.258 437.048 170.03 437.228 169.846C437.412 169.658 437.632 169.516 437.888 169.42C438.144 169.324 438.432 169.276 438.752 169.276C439.024 169.276 439.274 169.316 439.502 169.396L439.478 169.93C439.47 170.026 439.416 170.078 439.316 170.086C439.22 170.094 439.09 170.098 438.926 170.098C438.742 170.098 438.574 170.122 438.422 170.17C438.274 170.218 438.146 170.296 438.038 170.404C437.93 170.512 437.846 170.654 437.786 170.83C437.73 171.006 437.702 171.224 437.702 171.484V172.042H439.454V172.816H437.738V178H436.664ZM442.838 171.826C443.282 171.826 443.682 171.9 444.038 172.048C444.394 172.196 444.698 172.406 444.95 172.678C445.202 172.95 445.394 173.28 445.526 173.668C445.662 174.052 445.73 174.482 445.73 174.958C445.73 175.438 445.662 175.87 445.526 176.254C445.394 176.638 445.202 176.966 444.95 177.238C444.698 177.51 444.394 177.72 444.038 177.868C443.682 178.012 443.282 178.084 442.838 178.084C442.39 178.084 441.986 178.012 441.626 177.868C441.27 177.72 440.966 177.51 440.714 177.238C440.462 176.966 440.268 176.638 440.132 176.254C440 175.87 439.934 175.438 439.934 174.958C439.934 174.482 440 174.052 440.132 173.668C440.268 173.28 440.462 172.95 440.714 172.678C440.966 172.406 441.27 172.196 441.626 172.048C441.986 171.9 442.39 171.826 442.838 171.826ZM442.838 177.25C443.438 177.25 443.886 177.05 444.182 176.65C444.478 176.246 444.626 175.684 444.626 174.964C444.626 174.24 444.478 173.676 444.182 173.272C443.886 172.868 443.438 172.666 442.838 172.666C442.534 172.666 442.268 172.718 442.04 172.822C441.816 172.926 441.628 173.076 441.476 173.272C441.328 173.468 441.216 173.71 441.14 173.998C441.068 174.282 441.032 174.604 441.032 174.964C441.032 175.684 441.18 176.246 441.476 176.65C441.776 177.05 442.23 177.25 442.838 177.25ZM448.098 173.14C448.29 172.724 448.526 172.4 448.806 172.168C449.086 171.932 449.428 171.814 449.832 171.814C449.96 171.814 450.082 171.828 450.198 171.856C450.318 171.884 450.424 171.928 450.516 171.988L450.438 172.786C450.414 172.886 450.354 172.936 450.258 172.936C450.202 172.936 450.12 172.924 450.012 172.9C449.904 172.876 449.782 172.864 449.646 172.864C449.454 172.864 449.282 172.892 449.13 172.948C448.982 173.004 448.848 173.088 448.728 173.2C448.612 173.308 448.506 173.444 448.41 173.608C448.318 173.768 448.234 173.952 448.158 174.16V178H447.084V171.922H447.696C447.812 171.922 447.892 171.944 447.936 171.988C447.98 172.032 448.01 172.108 448.026 172.216L448.098 173.14ZM451.455 178V171.922H452.097C452.249 171.922 452.343 171.996 452.379 172.144L452.457 172.768C452.681 172.492 452.933 172.266 453.213 172.09C453.493 171.914 453.817 171.826 454.185 171.826C454.593 171.826 454.923 171.94 455.175 172.168C455.431 172.396 455.615 172.704 455.727 173.092C455.815 172.872 455.927 172.682 456.063 172.522C456.203 172.362 456.359 172.23 456.531 172.126C456.703 172.022 456.885 171.946 457.077 171.898C457.273 171.85 457.471 171.826 457.671 171.826C457.991 171.826 458.275 171.878 458.523 171.982C458.775 172.082 458.987 172.23 459.159 172.426C459.335 172.622 459.469 172.864 459.561 173.152C459.653 173.436 459.699 173.762 459.699 174.13V178H458.625V174.13C458.625 173.654 458.521 173.294 458.313 173.05C458.105 172.802 457.805 172.678 457.413 172.678C457.237 172.678 457.069 172.71 456.909 172.774C456.753 172.834 456.615 172.924 456.495 173.044C456.375 173.164 456.279 173.316 456.207 173.5C456.139 173.68 456.105 173.89 456.105 174.13V178H455.031V174.13C455.031 173.642 454.933 173.278 454.737 173.038C454.541 172.798 454.255 172.678 453.879 172.678C453.615 172.678 453.371 172.75 453.147 172.894C452.923 173.034 452.717 173.226 452.529 173.47V178H451.455ZM464.617 175.264C464.125 175.28 463.705 175.32 463.357 175.384C463.013 175.444 462.731 175.524 462.511 175.624C462.295 175.724 462.137 175.842 462.037 175.978C461.941 176.114 461.893 176.266 461.893 176.434C461.893 176.594 461.919 176.732 461.971 176.848C462.023 176.964 462.093 177.06 462.181 177.136C462.273 177.208 462.379 177.262 462.499 177.298C462.623 177.33 462.755 177.346 462.895 177.346C463.083 177.346 463.255 177.328 463.411 177.292C463.567 177.252 463.713 177.196 463.849 177.124C463.989 177.052 464.121 176.966 464.245 176.866C464.373 176.766 464.497 176.652 464.617 176.524V175.264ZM461.167 172.78C461.503 172.456 461.865 172.214 462.253 172.054C462.641 171.894 463.071 171.814 463.543 171.814C463.883 171.814 464.185 171.87 464.449 171.982C464.713 172.094 464.935 172.25 465.115 172.45C465.295 172.65 465.431 172.892 465.523 173.176C465.615 173.46 465.661 173.772 465.661 174.112V178H465.187C465.083 178 465.003 177.984 464.947 177.952C464.891 177.916 464.847 177.848 464.815 177.748L464.695 177.172C464.535 177.32 464.379 177.452 464.227 177.568C464.075 177.68 463.915 177.776 463.747 177.856C463.579 177.932 463.399 177.99 463.207 178.03C463.019 178.074 462.809 178.096 462.577 178.096C462.341 178.096 462.119 178.064 461.911 178C461.703 177.932 461.521 177.832 461.365 177.7C461.213 177.568 461.091 177.402 460.999 177.202C460.911 176.998 460.867 176.758 460.867 176.482C460.867 176.242 460.933 176.012 461.065 175.792C461.197 175.568 461.411 175.37 461.707 175.198C462.003 175.026 462.389 174.886 462.865 174.778C463.341 174.666 463.925 174.602 464.617 174.586V174.112C464.617 173.64 464.515 173.284 464.311 173.044C464.107 172.8 463.809 172.678 463.417 172.678C463.153 172.678 462.931 172.712 462.751 172.78C462.575 172.844 462.421 172.918 462.289 173.002C462.161 173.082 462.049 173.156 461.953 173.224C461.861 173.288 461.769 173.32 461.677 173.32C461.605 173.32 461.543 173.302 461.491 173.266C461.439 173.226 461.395 173.178 461.359 173.122L461.167 172.78ZM469.071 178.096C468.591 178.096 468.221 177.962 467.961 177.694C467.705 177.426 467.577 177.04 467.577 176.536V172.816H466.845C466.781 172.816 466.727 172.798 466.683 172.762C466.639 172.722 466.617 172.662 466.617 172.582V172.156L467.613 172.03L467.859 170.152C467.871 170.092 467.897 170.044 467.937 170.008C467.981 169.968 468.037 169.948 468.105 169.948H468.645V172.042H470.403V172.816H468.645V176.464C468.645 176.72 468.707 176.91 468.831 177.034C468.955 177.158 469.115 177.22 469.311 177.22C469.423 177.22 469.519 177.206 469.599 177.178C469.683 177.146 469.755 177.112 469.815 177.076C469.875 177.04 469.925 177.008 469.965 176.98C470.009 176.948 470.047 176.932 470.079 176.932C470.135 176.932 470.185 176.966 470.229 177.034L470.541 177.544C470.357 177.716 470.135 177.852 469.875 177.952C469.615 178.048 469.347 178.096 469.071 178.096ZM477.87 175.264C477.378 175.28 476.958 175.32 476.61 175.384C476.266 175.444 475.984 175.524 475.764 175.624C475.548 175.724 475.39 175.842 475.29 175.978C475.194 176.114 475.146 176.266 475.146 176.434C475.146 176.594 475.172 176.732 475.224 176.848C475.276 176.964 475.346 177.06 475.434 177.136C475.526 177.208 475.632 177.262 475.752 177.298C475.876 177.33 476.008 177.346 476.148 177.346C476.336 177.346 476.508 177.328 476.664 177.292C476.82 177.252 476.966 177.196 477.102 177.124C477.242 177.052 477.374 176.966 477.498 176.866C477.626 176.766 477.75 176.652 477.87 176.524V175.264ZM474.42 172.78C474.756 172.456 475.118 172.214 475.506 172.054C475.894 171.894 476.324 171.814 476.796 171.814C477.136 171.814 477.438 171.87 477.702 171.982C477.966 172.094 478.188 172.25 478.368 172.45C478.548 172.65 478.684 172.892 478.776 173.176C478.868 173.46 478.914 173.772 478.914 174.112V178H478.44C478.336 178 478.256 177.984 478.2 177.952C478.144 177.916 478.1 177.848 478.068 177.748L477.948 177.172C477.788 177.32 477.632 177.452 477.48 177.568C477.328 177.68 477.168 177.776 477 177.856C476.832 177.932 476.652 177.99 476.46 178.03C476.272 178.074 476.062 178.096 475.83 178.096C475.594 178.096 475.372 178.064 475.164 178C474.956 177.932 474.774 177.832 474.618 177.7C474.466 177.568 474.344 177.402 474.252 177.202C474.164 176.998 474.12 176.758 474.12 176.482C474.12 176.242 474.186 176.012 474.318 175.792C474.45 175.568 474.664 175.37 474.96 175.198C475.256 175.026 475.642 174.886 476.118 174.778C476.594 174.666 477.178 174.602 477.87 174.586V174.112C477.87 173.64 477.768 173.284 477.564 173.044C477.36 172.8 477.062 172.678 476.67 172.678C476.406 172.678 476.184 172.712 476.004 172.78C475.828 172.844 475.674 172.918 475.542 173.002C475.414 173.082 475.302 173.156 475.206 173.224C475.114 173.288 475.022 173.32 474.93 173.32C474.858 173.32 474.796 173.302 474.744 173.266C474.692 173.226 474.648 173.178 474.612 173.122L474.42 172.78ZM481.645 169.162V178H480.577V169.162H481.645ZM484.481 169.162V178H483.413V169.162H484.481ZM488.775 171.826C489.219 171.826 489.619 171.9 489.975 172.048C490.331 172.196 490.635 172.406 490.887 172.678C491.139 172.95 491.331 173.28 491.463 173.668C491.599 174.052 491.667 174.482 491.667 174.958C491.667 175.438 491.599 175.87 491.463 176.254C491.331 176.638 491.139 176.966 490.887 177.238C490.635 177.51 490.331 177.72 489.975 177.868C489.619 178.012 489.219 178.084 488.775 178.084C488.327 178.084 487.923 178.012 487.563 177.868C487.207 177.72 486.903 177.51 486.651 177.238C486.399 176.966 486.205 176.638 486.069 176.254C485.937 175.87 485.871 175.438 485.871 174.958C485.871 174.482 485.937 174.052 486.069 173.668C486.205 173.28 486.399 172.95 486.651 172.678C486.903 172.406 487.207 172.196 487.563 172.048C487.923 171.9 488.327 171.826 488.775 171.826ZM488.775 177.25C489.375 177.25 489.823 177.05 490.119 176.65C490.415 176.246 490.563 175.684 490.563 174.964C490.563 174.24 490.415 173.676 490.119 173.272C489.823 172.868 489.375 172.666 488.775 172.666C488.471 172.666 488.205 172.718 487.977 172.822C487.753 172.926 487.565 173.076 487.413 173.272C487.265 173.468 487.153 173.71 487.077 173.998C487.005 174.282 486.969 174.604 486.969 174.964C486.969 175.684 487.117 176.246 487.413 176.65C487.713 177.05 488.167 177.25 488.775 177.25ZM501.31 171.922L499.342 178H498.496C498.392 178 498.32 177.932 498.28 177.796L496.936 173.674C496.904 173.582 496.878 173.49 496.858 173.398C496.838 173.302 496.818 173.208 496.798 173.116C496.778 173.208 496.758 173.302 496.738 173.398C496.718 173.49 496.692 173.584 496.66 173.68L495.292 177.796C495.256 177.932 495.176 178 495.052 178H494.248L492.28 171.922H493.12C493.204 171.922 493.274 171.944 493.33 171.988C493.39 172.032 493.43 172.084 493.45 172.144L494.614 176.056C494.682 176.344 494.736 176.616 494.776 176.872C494.812 176.74 494.848 176.606 494.884 176.47C494.924 176.334 494.966 176.196 495.01 176.056L496.294 172.12C496.314 172.06 496.348 172.01 496.396 171.97C496.448 171.93 496.51 171.91 496.582 171.91H497.05C497.13 171.91 497.196 171.93 497.248 171.97C497.3 172.01 497.336 172.06 497.356 172.12L498.61 176.056C498.654 176.196 498.694 176.334 498.73 176.47C498.766 176.606 498.8 176.74 498.832 176.872C498.852 176.74 498.876 176.608 498.904 176.476C498.936 176.34 498.97 176.2 499.006 176.056L500.194 172.144C500.214 172.08 500.252 172.028 500.308 171.988C500.364 171.944 500.43 171.922 500.506 171.922H501.31ZM506.336 174.298C506.336 174.05 506.3 173.824 506.228 173.62C506.16 173.412 506.058 173.234 505.922 173.086C505.79 172.934 505.628 172.818 505.436 172.738C505.244 172.654 505.026 172.612 504.782 172.612C504.27 172.612 503.864 172.762 503.564 173.062C503.268 173.358 503.084 173.77 503.012 174.298H506.336ZM507.2 177.148C507.068 177.308 506.91 177.448 506.726 177.568C506.542 177.684 506.344 177.78 506.132 177.856C505.924 177.932 505.708 177.988 505.484 178.024C505.26 178.064 505.038 178.084 504.818 178.084C504.398 178.084 504.01 178.014 503.654 177.874C503.302 177.73 502.996 177.522 502.736 177.25C502.48 176.974 502.28 176.634 502.136 176.23C501.992 175.826 501.92 175.362 501.92 174.838C501.92 174.414 501.984 174.018 502.112 173.65C502.244 173.282 502.432 172.964 502.676 172.696C502.92 172.424 503.218 172.212 503.57 172.06C503.922 171.904 504.318 171.826 504.758 171.826C505.122 171.826 505.458 171.888 505.766 172.012C506.078 172.132 506.346 172.308 506.57 172.54C506.798 172.768 506.976 173.052 507.104 173.392C507.232 173.728 507.296 174.112 507.296 174.544C507.296 174.712 507.278 174.824 507.242 174.88C507.206 174.936 507.138 174.964 507.038 174.964H502.976C502.988 175.348 503.04 175.682 503.132 175.966C503.228 176.25 503.36 176.488 503.528 176.68C503.696 176.868 503.896 177.01 504.128 177.106C504.36 177.198 504.62 177.244 504.908 177.244C505.176 177.244 505.406 177.214 505.598 177.154C505.794 177.09 505.962 177.022 506.102 176.95C506.242 176.878 506.358 176.812 506.45 176.752C506.546 176.688 506.628 176.656 506.696 176.656C506.784 176.656 506.852 176.69 506.9 176.758L507.2 177.148ZM512.568 173.368C512.368 173.1 512.152 172.914 511.92 172.81C511.688 172.702 511.428 172.648 511.14 172.648C510.576 172.648 510.142 172.85 509.838 173.254C509.534 173.658 509.382 174.234 509.382 174.982C509.382 175.378 509.416 175.718 509.484 176.002C509.552 176.282 509.652 176.514 509.784 176.698C509.916 176.878 510.078 177.01 510.27 177.094C510.462 177.178 510.68 177.22 510.924 177.22C511.276 177.22 511.582 177.14 511.842 176.98C512.106 176.82 512.348 176.594 512.568 176.302V173.368ZM513.636 169.162V178H513C512.848 178 512.752 177.926 512.712 177.778L512.616 177.04C512.356 177.352 512.06 177.604 511.728 177.796C511.396 177.988 511.012 178.084 510.576 178.084C510.228 178.084 509.912 178.018 509.628 177.886C509.344 177.75 509.102 177.552 508.902 177.292C508.702 177.032 508.548 176.708 508.44 176.32C508.332 175.932 508.278 175.486 508.278 174.982C508.278 174.534 508.338 174.118 508.458 173.734C508.578 173.346 508.75 173.01 508.974 172.726C509.198 172.442 509.472 172.22 509.796 172.06C510.124 171.896 510.492 171.814 510.9 171.814C511.272 171.814 511.59 171.878 511.854 172.006C512.122 172.13 512.36 172.304 512.568 172.528V169.162H513.636ZM322.682 192.35V195.356H326.216V196.304H322.682V200H321.518V191.402H326.816V192.35H322.682ZM329.156 193.922V200H328.088V193.922H329.156ZM329.384 192.014C329.384 192.118 329.362 192.216 329.318 192.308C329.278 192.396 329.222 192.476 329.15 192.548C329.082 192.616 329 192.67 328.904 192.71C328.812 192.75 328.714 192.77 328.61 192.77C328.506 192.77 328.408 192.75 328.316 192.71C328.228 192.67 328.15 192.616 328.082 192.548C328.014 192.476 327.96 192.396 327.92 192.308C327.88 192.216 327.86 192.118 327.86 192.014C327.86 191.91 327.88 191.812 327.92 191.72C327.96 191.624 328.014 191.542 328.082 191.474C328.15 191.402 328.228 191.346 328.316 191.306C328.408 191.266 328.506 191.246 328.61 191.246C328.714 191.246 328.812 191.266 328.904 191.306C329 191.346 329.082 191.402 329.15 191.474C329.222 191.542 329.278 191.624 329.318 191.72C329.362 191.812 329.384 191.91 329.384 192.014ZM332.014 191.162V200H330.946V191.162H332.014ZM337.814 196.298C337.814 196.05 337.778 195.824 337.706 195.62C337.638 195.412 337.536 195.234 337.4 195.086C337.268 194.934 337.106 194.818 336.914 194.738C336.722 194.654 336.504 194.612 336.26 194.612C335.748 194.612 335.342 194.762 335.042 195.062C334.746 195.358 334.562 195.77 334.49 196.298H337.814ZM338.678 199.148C338.546 199.308 338.388 199.448 338.204 199.568C338.02 199.684 337.822 199.78 337.61 199.856C337.402 199.932 337.186 199.988 336.962 200.024C336.738 200.064 336.516 200.084 336.296 200.084C335.876 200.084 335.488 200.014 335.132 199.874C334.78 199.73 334.474 199.522 334.214 199.25C333.958 198.974 333.758 198.634 333.614 198.23C333.47 197.826 333.398 197.362 333.398 196.838C333.398 196.414 333.462 196.018 333.59 195.65C333.722 195.282 333.91 194.964 334.154 194.696C334.398 194.424 334.696 194.212 335.048 194.06C335.4 193.904 335.796 193.826 336.236 193.826C336.6 193.826 336.936 193.888 337.244 194.012C337.556 194.132 337.824 194.308 338.048 194.54C338.276 194.768 338.454 195.052 338.582 195.392C338.71 195.728 338.774 196.112 338.774 196.544C338.774 196.712 338.756 196.824 338.72 196.88C338.684 196.936 338.616 196.964 338.516 196.964H334.454C334.466 197.348 334.518 197.682 334.61 197.966C334.706 198.25 334.838 198.488 335.006 198.68C335.174 198.868 335.374 199.01 335.606 199.106C335.838 199.198 336.098 199.244 336.386 199.244C336.654 199.244 336.884 199.214 337.076 199.154C337.272 199.09 337.44 199.022 337.58 198.95C337.72 198.878 337.836 198.812 337.928 198.752C338.024 198.688 338.106 198.656 338.174 198.656C338.262 198.656 338.33 198.69 338.378 198.758L338.678 199.148ZM346.697 194.924C346.649 195.012 346.575 195.056 346.475 195.056C346.415 195.056 346.347 195.034 346.271 194.99C346.195 194.946 346.101 194.898 345.989 194.846C345.881 194.79 345.751 194.74 345.599 194.696C345.447 194.648 345.267 194.624 345.059 194.624C344.879 194.624 344.717 194.648 344.573 194.696C344.429 194.74 344.305 194.802 344.201 194.882C344.101 194.962 344.023 195.056 343.967 195.164C343.915 195.268 343.889 195.382 343.889 195.506C343.889 195.662 343.933 195.792 344.021 195.896C344.113 196 344.233 196.09 344.381 196.166C344.529 196.242 344.697 196.31 344.885 196.37C345.073 196.426 345.265 196.488 345.461 196.556C345.661 196.62 345.855 196.692 346.043 196.772C346.231 196.852 346.399 196.952 346.547 197.072C346.695 197.192 346.813 197.34 346.901 197.516C346.993 197.688 347.039 197.896 347.039 198.14C347.039 198.42 346.989 198.68 346.889 198.92C346.789 199.156 346.641 199.362 346.445 199.538C346.249 199.71 346.009 199.846 345.725 199.946C345.441 200.046 345.113 200.096 344.741 200.096C344.317 200.096 343.933 200.028 343.589 199.892C343.245 199.752 342.953 199.574 342.713 199.358L342.965 198.95C342.997 198.898 343.035 198.858 343.079 198.83C343.123 198.802 343.179 198.788 343.247 198.788C343.319 198.788 343.395 198.816 343.475 198.872C343.555 198.928 343.651 198.99 343.763 199.058C343.879 199.126 344.019 199.188 344.183 199.244C344.347 199.3 344.551 199.328 344.795 199.328C345.003 199.328 345.185 199.302 345.341 199.25C345.497 199.194 345.627 199.12 345.731 199.028C345.835 198.936 345.911 198.83 345.959 198.71C346.011 198.59 346.037 198.462 346.037 198.326C346.037 198.158 345.991 198.02 345.899 197.912C345.811 197.8 345.693 197.706 345.545 197.63C345.397 197.55 345.227 197.482 345.035 197.426C344.847 197.366 344.653 197.304 344.453 197.24C344.257 197.176 344.063 197.104 343.871 197.024C343.683 196.94 343.515 196.836 343.367 196.712C343.219 196.588 343.099 196.436 343.007 196.256C342.919 196.072 342.875 195.85 342.875 195.59C342.875 195.358 342.923 195.136 343.019 194.924C343.115 194.708 343.255 194.52 343.439 194.36C343.623 194.196 343.849 194.066 344.117 193.97C344.385 193.874 344.691 193.826 345.035 193.826C345.435 193.826 345.793 193.89 346.109 194.018C346.429 194.142 346.705 194.314 346.937 194.534L346.697 194.924ZM349.476 193.922V200H348.408V193.922H349.476ZM349.704 192.014C349.704 192.118 349.682 192.216 349.638 192.308C349.598 192.396 349.542 192.476 349.47 192.548C349.402 192.616 349.32 192.67 349.224 192.71C349.132 192.75 349.034 192.77 348.93 192.77C348.826 192.77 348.728 192.75 348.636 192.71C348.548 192.67 348.47 192.616 348.402 192.548C348.334 192.476 348.28 192.396 348.24 192.308C348.2 192.216 348.18 192.118 348.18 192.014C348.18 191.91 348.2 191.812 348.24 191.72C348.28 191.624 348.334 191.542 348.402 191.474C348.47 191.402 348.548 191.346 348.636 191.306C348.728 191.266 348.826 191.246 348.93 191.246C349.034 191.246 349.132 191.266 349.224 191.306C349.32 191.346 349.402 191.402 349.47 191.474C349.542 191.542 349.598 191.624 349.638 191.72C349.682 191.812 349.704 191.91 349.704 192.014ZM355.425 194.378C355.425 194.454 355.411 194.528 355.383 194.6C355.359 194.672 355.325 194.734 355.281 194.786L351.987 199.166H355.311V200H350.733V199.556C350.733 199.504 350.745 199.444 350.769 199.376C350.793 199.304 350.829 199.236 350.877 199.172L354.189 194.762H350.919V193.922H355.425V194.378ZM360.607 196.298C360.607 196.05 360.571 195.824 360.499 195.62C360.431 195.412 360.329 195.234 360.193 195.086C360.061 194.934 359.899 194.818 359.707 194.738C359.515 194.654 359.297 194.612 359.053 194.612C358.541 194.612 358.135 194.762 357.835 195.062C357.539 195.358 357.355 195.77 357.283 196.298H360.607ZM361.471 199.148C361.339 199.308 361.181 199.448 360.997 199.568C360.813 199.684 360.615 199.78 360.403 199.856C360.195 199.932 359.979 199.988 359.755 200.024C359.531 200.064 359.309 200.084 359.089 200.084C358.669 200.084 358.281 200.014 357.925 199.874C357.573 199.73 357.267 199.522 357.007 199.25C356.751 198.974 356.551 198.634 356.407 198.23C356.263 197.826 356.191 197.362 356.191 196.838C356.191 196.414 356.255 196.018 356.383 195.65C356.515 195.282 356.703 194.964 356.947 194.696C357.191 194.424 357.489 194.212 357.841 194.06C358.193 193.904 358.589 193.826 359.029 193.826C359.393 193.826 359.729 193.888 360.037 194.012C360.349 194.132 360.617 194.308 360.841 194.54C361.069 194.768 361.247 195.052 361.375 195.392C361.503 195.728 361.567 196.112 361.567 196.544C361.567 196.712 361.549 196.824 361.513 196.88C361.477 196.936 361.409 196.964 361.309 196.964H357.247C357.259 197.348 357.311 197.682 357.403 197.966C357.499 198.25 357.631 198.488 357.799 198.68C357.967 198.868 358.167 199.01 358.399 199.106C358.631 199.198 358.891 199.244 359.179 199.244C359.447 199.244 359.677 199.214 359.869 199.154C360.065 199.09 360.233 199.022 360.373 198.95C360.513 198.878 360.629 198.812 360.721 198.752C360.817 198.688 360.899 198.656 360.967 198.656C361.055 198.656 361.123 198.69 361.171 198.758L361.471 199.148ZM370.948 193.922V200H370.312C370.16 200 370.064 199.926 370.024 199.778L369.94 199.124C369.676 199.416 369.38 199.652 369.052 199.832C368.724 200.008 368.348 200.096 367.924 200.096C367.592 200.096 367.298 200.042 367.042 199.934C366.79 199.822 366.578 199.666 366.406 199.466C366.234 199.266 366.104 199.024 366.016 198.74C365.932 198.456 365.89 198.142 365.89 197.798V193.922H366.958V197.798C366.958 198.258 367.062 198.614 367.27 198.866C367.482 199.118 367.804 199.244 368.236 199.244C368.552 199.244 368.846 199.17 369.118 199.022C369.394 198.87 369.648 198.662 369.88 198.398V193.922H370.948ZM373.715 198.536C373.911 198.8 374.125 198.986 374.357 199.094C374.589 199.202 374.849 199.256 375.137 199.256C375.705 199.256 376.141 199.054 376.445 198.65C376.749 198.246 376.901 197.67 376.901 196.922C376.901 196.526 376.865 196.186 376.793 195.902C376.725 195.618 376.625 195.386 376.493 195.206C376.361 195.022 376.199 194.888 376.007 194.804C375.815 194.72 375.597 194.678 375.353 194.678C375.005 194.678 374.699 194.758 374.435 194.918C374.175 195.078 373.935 195.304 373.715 195.596V198.536ZM373.661 194.864C373.917 194.548 374.213 194.294 374.549 194.102C374.885 193.91 375.269 193.814 375.701 193.814C376.053 193.814 376.371 193.882 376.655 194.018C376.939 194.15 377.181 194.348 377.381 194.612C377.581 194.872 377.735 195.196 377.843 195.584C377.951 195.972 378.005 196.418 378.005 196.922C378.005 197.37 377.945 197.788 377.825 198.176C377.705 198.56 377.531 198.894 377.303 199.178C377.079 199.458 376.803 199.68 376.475 199.844C376.151 200.004 375.785 200.084 375.377 200.084C375.005 200.084 374.685 200.022 374.417 199.898C374.153 199.77 373.919 199.594 373.715 199.37V202.058H372.641V193.922H373.283C373.435 193.922 373.529 193.996 373.565 194.144L373.661 194.864ZM384.304 200.096C383.824 200.096 383.454 199.962 383.194 199.694C382.938 199.426 382.81 199.04 382.81 198.536V194.816H382.078C382.014 194.816 381.96 194.798 381.916 194.762C381.872 194.722 381.85 194.662 381.85 194.582V194.156L382.846 194.03L383.092 192.152C383.104 192.092 383.13 192.044 383.17 192.008C383.214 191.968 383.27 191.948 383.338 191.948H383.878V194.042H385.636V194.816H383.878V198.464C383.878 198.72 383.94 198.91 384.064 199.034C384.188 199.158 384.348 199.22 384.544 199.22C384.656 199.22 384.752 199.206 384.832 199.178C384.916 199.146 384.988 199.112 385.048 199.076C385.108 199.04 385.158 199.008 385.198 198.98C385.242 198.948 385.28 198.932 385.312 198.932C385.368 198.932 385.418 198.966 385.462 199.034L385.774 199.544C385.59 199.716 385.368 199.852 385.108 199.952C384.848 200.048 384.58 200.096 384.304 200.096ZM389.265 193.826C389.709 193.826 390.109 193.9 390.465 194.048C390.821 194.196 391.125 194.406 391.377 194.678C391.629 194.95 391.821 195.28 391.953 195.668C392.089 196.052 392.157 196.482 392.157 196.958C392.157 197.438 392.089 197.87 391.953 198.254C391.821 198.638 391.629 198.966 391.377 199.238C391.125 199.51 390.821 199.72 390.465 199.868C390.109 200.012 389.709 200.084 389.265 200.084C388.817 200.084 388.413 200.012 388.053 199.868C387.697 199.72 387.393 199.51 387.141 199.238C386.889 198.966 386.695 198.638 386.559 198.254C386.427 197.87 386.361 197.438 386.361 196.958C386.361 196.482 386.427 196.052 386.559 195.668C386.695 195.28 386.889 194.95 387.141 194.678C387.393 194.406 387.697 194.196 388.053 194.048C388.413 193.9 388.817 193.826 389.265 193.826ZM389.265 199.25C389.865 199.25 390.313 199.05 390.609 198.65C390.905 198.246 391.053 197.684 391.053 196.964C391.053 196.24 390.905 195.676 390.609 195.272C390.313 194.868 389.865 194.666 389.265 194.666C388.961 194.666 388.695 194.718 388.467 194.822C388.243 194.926 388.055 195.076 387.903 195.272C387.755 195.468 387.643 195.71 387.567 195.998C387.495 196.282 387.459 196.604 387.459 196.964C387.459 197.684 387.607 198.246 387.903 198.65C388.203 199.05 388.657 199.25 389.265 199.25ZM401.946 198.89V200H397.146V198.89H398.904V193.832C398.904 193.632 398.91 193.426 398.922 193.214L397.674 194.258C397.602 194.314 397.53 194.35 397.458 194.366C397.39 194.378 397.324 194.378 397.26 194.366C397.2 194.354 397.146 194.334 397.098 194.306C397.05 194.274 397.014 194.24 396.99 194.204L396.522 193.562L399.168 191.312H400.386V198.89H401.946ZM409.357 195.662C409.357 196.418 409.275 197.076 409.111 197.636C408.951 198.192 408.727 198.652 408.439 199.016C408.155 199.38 407.817 199.652 407.425 199.832C407.037 200.008 406.617 200.096 406.165 200.096C405.713 200.096 405.293 200.008 404.905 199.832C404.521 199.652 404.187 199.38 403.903 199.016C403.619 198.652 403.397 198.192 403.237 197.636C403.077 197.076 402.997 196.418 402.997 195.662C402.997 194.902 403.077 194.244 403.237 193.688C403.397 193.132 403.619 192.672 403.903 192.308C404.187 191.944 404.521 191.674 404.905 191.498C405.293 191.318 405.713 191.228 406.165 191.228C406.617 191.228 407.037 191.318 407.425 191.498C407.817 191.674 408.155 191.944 408.439 192.308C408.727 192.672 408.951 193.132 409.111 193.688C409.275 194.244 409.357 194.902 409.357 195.662ZM407.827 195.662C407.827 195.034 407.781 194.514 407.689 194.102C407.597 193.69 407.473 193.362 407.317 193.118C407.165 192.874 406.989 192.704 406.789 192.608C406.589 192.508 406.381 192.458 406.165 192.458C405.953 192.458 405.747 192.508 405.547 192.608C405.351 192.704 405.177 192.874 405.025 193.118C404.873 193.362 404.751 193.69 404.659 194.102C404.571 194.514 404.527 195.034 404.527 195.662C404.527 196.29 404.571 196.81 404.659 197.222C404.751 197.634 404.873 197.962 405.025 198.206C405.177 198.45 405.351 198.622 405.547 198.722C405.747 198.818 405.953 198.866 406.165 198.866C406.381 198.866 406.589 198.818 406.789 198.722C406.989 198.622 407.165 198.45 407.317 198.206C407.473 197.962 407.597 197.634 407.689 197.222C407.781 196.81 407.827 196.29 407.827 195.662ZM422.95 191.324V200H421.528V194.396C421.528 194.172 421.54 193.93 421.564 193.67L418.942 198.596C418.818 198.832 418.628 198.95 418.372 198.95H418.144C417.888 198.95 417.698 198.832 417.574 198.596L414.922 193.652C414.934 193.784 414.944 193.914 414.952 194.042C414.96 194.17 414.964 194.288 414.964 194.396V200H413.542V191.324H414.76C414.832 191.324 414.894 191.326 414.946 191.33C414.998 191.334 415.044 191.344 415.084 191.36C415.128 191.376 415.166 191.402 415.198 191.438C415.234 191.474 415.268 191.522 415.3 191.582L417.898 196.4C417.966 196.528 418.028 196.66 418.084 196.796C418.144 196.932 418.202 197.072 418.258 197.216C418.314 197.068 418.372 196.926 418.432 196.79C418.492 196.65 418.556 196.516 418.624 196.388L421.186 191.582C421.218 191.522 421.252 191.474 421.288 191.438C421.324 191.402 421.362 191.376 421.402 191.36C421.446 191.344 421.494 191.334 421.546 191.33C421.598 191.326 421.66 191.324 421.732 191.324H422.95ZM428.132 198.74C428.432 198.74 428.684 198.704 428.888 198.632C429.092 198.56 429.254 198.464 429.374 198.344C429.498 198.224 429.586 198.084 429.638 197.924C429.694 197.764 429.722 197.594 429.722 197.414C429.722 197.226 429.692 197.058 429.632 196.91C429.572 196.758 429.478 196.63 429.35 196.526C429.222 196.418 429.056 196.336 428.852 196.28C428.652 196.224 428.41 196.196 428.126 196.196H426.5V198.74H428.132ZM426.5 192.572V195.08H427.784C428.336 195.08 428.752 194.98 429.032 194.78C429.316 194.58 429.458 194.262 429.458 193.826C429.458 193.374 429.33 193.052 429.074 192.86C428.818 192.668 428.418 192.572 427.874 192.572H426.5ZM427.874 191.324C428.442 191.324 428.928 191.378 429.332 191.486C429.736 191.594 430.066 191.748 430.322 191.948C430.582 192.148 430.772 192.39 430.892 192.674C431.012 192.958 431.072 193.278 431.072 193.634C431.072 193.838 431.042 194.034 430.982 194.222C430.922 194.406 430.828 194.58 430.7 194.744C430.576 194.904 430.416 195.05 430.22 195.182C430.028 195.314 429.798 195.426 429.53 195.518C430.722 195.786 431.318 196.43 431.318 197.45C431.318 197.818 431.248 198.158 431.108 198.47C430.968 198.782 430.764 199.052 430.496 199.28C430.228 199.504 429.898 199.68 429.506 199.808C429.114 199.936 428.666 200 428.162 200H424.886V191.324H427.874ZM439.029 197.264C438.537 197.28 438.117 197.32 437.769 197.384C437.425 197.444 437.143 197.524 436.923 197.624C436.707 197.724 436.549 197.842 436.449 197.978C436.353 198.114 436.305 198.266 436.305 198.434C436.305 198.594 436.331 198.732 436.383 198.848C436.435 198.964 436.505 199.06 436.593 199.136C436.685 199.208 436.791 199.262 436.911 199.298C437.035 199.33 437.167 199.346 437.307 199.346C437.495 199.346 437.667 199.328 437.823 199.292C437.979 199.252 438.125 199.196 438.261 199.124C438.401 199.052 438.533 198.966 438.657 198.866C438.785 198.766 438.909 198.652 439.029 198.524V197.264ZM435.579 194.78C435.915 194.456 436.277 194.214 436.665 194.054C437.053 193.894 437.483 193.814 437.955 193.814C438.295 193.814 438.597 193.87 438.861 193.982C439.125 194.094 439.347 194.25 439.527 194.45C439.707 194.65 439.843 194.892 439.935 195.176C440.027 195.46 440.073 195.772 440.073 196.112V200H439.599C439.495 200 439.415 199.984 439.359 199.952C439.303 199.916 439.259 199.848 439.227 199.748L439.107 199.172C438.947 199.32 438.791 199.452 438.639 199.568C438.487 199.68 438.327 199.776 438.159 199.856C437.991 199.932 437.811 199.99 437.619 200.03C437.431 200.074 437.221 200.096 436.989 200.096C436.753 200.096 436.531 200.064 436.323 200C436.115 199.932 435.933 199.832 435.777 199.7C435.625 199.568 435.503 199.402 435.411 199.202C435.323 198.998 435.279 198.758 435.279 198.482C435.279 198.242 435.345 198.012 435.477 197.792C435.609 197.568 435.823 197.37 436.119 197.198C436.415 197.026 436.801 196.886 437.277 196.778C437.753 196.666 438.337 196.602 439.029 196.586V196.112C439.029 195.64 438.927 195.284 438.723 195.044C438.519 194.8 438.221 194.678 437.829 194.678C437.565 194.678 437.343 194.712 437.163 194.78C436.987 194.844 436.833 194.918 436.701 195.002C436.573 195.082 436.461 195.156 436.365 195.224C436.273 195.288 436.181 195.32 436.089 195.32C436.017 195.32 435.955 195.302 435.903 195.266C435.851 195.226 435.807 195.178 435.771 195.122L435.579 194.78ZM442.714 195.14C442.906 194.724 443.142 194.4 443.422 194.168C443.702 193.932 444.044 193.814 444.448 193.814C444.576 193.814 444.698 193.828 444.814 193.856C444.934 193.884 445.04 193.928 445.132 193.988L445.054 194.786C445.03 194.886 444.97 194.936 444.874 194.936C444.818 194.936 444.736 194.924 444.628 194.9C444.52 194.876 444.398 194.864 444.262 194.864C444.07 194.864 443.898 194.892 443.746 194.948C443.598 195.004 443.464 195.088 443.344 195.2C443.228 195.308 443.122 195.444 443.026 195.608C442.934 195.768 442.85 195.952 442.774 196.16V200H441.7V193.922H442.312C442.428 193.922 442.508 193.944 442.552 193.988C442.596 194.032 442.626 194.108 442.642 194.216L442.714 195.14ZM449.893 196.298C449.893 196.05 449.857 195.824 449.785 195.62C449.717 195.412 449.615 195.234 449.479 195.086C449.347 194.934 449.185 194.818 448.993 194.738C448.801 194.654 448.583 194.612 448.339 194.612C447.827 194.612 447.421 194.762 447.121 195.062C446.825 195.358 446.641 195.77 446.569 196.298H449.893ZM450.757 199.148C450.625 199.308 450.467 199.448 450.283 199.568C450.099 199.684 449.901 199.78 449.689 199.856C449.481 199.932 449.265 199.988 449.041 200.024C448.817 200.064 448.595 200.084 448.375 200.084C447.955 200.084 447.567 200.014 447.211 199.874C446.859 199.73 446.553 199.522 446.293 199.25C446.037 198.974 445.837 198.634 445.693 198.23C445.549 197.826 445.477 197.362 445.477 196.838C445.477 196.414 445.541 196.018 445.669 195.65C445.801 195.282 445.989 194.964 446.233 194.696C446.477 194.424 446.775 194.212 447.127 194.06C447.479 193.904 447.875 193.826 448.315 193.826C448.679 193.826 449.015 193.888 449.323 194.012C449.635 194.132 449.903 194.308 450.127 194.54C450.355 194.768 450.533 195.052 450.661 195.392C450.789 195.728 450.853 196.112 450.853 196.544C450.853 196.712 450.835 196.824 450.799 196.88C450.763 196.936 450.695 196.964 450.595 196.964H446.533C446.545 197.348 446.597 197.682 446.689 197.966C446.785 198.25 446.917 198.488 447.085 198.68C447.253 198.868 447.453 199.01 447.685 199.106C447.917 199.198 448.177 199.244 448.465 199.244C448.733 199.244 448.963 199.214 449.155 199.154C449.351 199.09 449.519 199.022 449.659 198.95C449.799 198.878 449.915 198.812 450.007 198.752C450.103 198.688 450.185 198.656 450.253 198.656C450.341 198.656 450.409 198.69 450.457 198.758L450.757 199.148ZM456.249 195.14C456.441 194.724 456.677 194.4 456.957 194.168C457.237 193.932 457.579 193.814 457.983 193.814C458.111 193.814 458.233 193.828 458.349 193.856C458.469 193.884 458.575 193.928 458.667 193.988L458.589 194.786C458.565 194.886 458.505 194.936 458.409 194.936C458.353 194.936 458.271 194.924 458.163 194.9C458.055 194.876 457.933 194.864 457.797 194.864C457.605 194.864 457.433 194.892 457.281 194.948C457.133 195.004 456.999 195.088 456.879 195.2C456.763 195.308 456.657 195.444 456.561 195.608C456.469 195.768 456.385 195.952 456.309 196.16V200H455.235V193.922H455.847C455.963 193.922 456.043 193.944 456.087 193.988C456.131 194.032 456.161 194.108 456.177 194.216L456.249 195.14ZM463.428 196.298C463.428 196.05 463.392 195.824 463.32 195.62C463.252 195.412 463.15 195.234 463.014 195.086C462.882 194.934 462.72 194.818 462.528 194.738C462.336 194.654 462.118 194.612 461.874 194.612C461.362 194.612 460.956 194.762 460.656 195.062C460.36 195.358 460.176 195.77 460.104 196.298H463.428ZM464.292 199.148C464.16 199.308 464.002 199.448 463.818 199.568C463.634 199.684 463.436 199.78 463.224 199.856C463.016 199.932 462.8 199.988 462.576 200.024C462.352 200.064 462.13 200.084 461.91 200.084C461.49 200.084 461.102 200.014 460.746 199.874C460.394 199.73 460.088 199.522 459.828 199.25C459.572 198.974 459.372 198.634 459.228 198.23C459.084 197.826 459.012 197.362 459.012 196.838C459.012 196.414 459.076 196.018 459.204 195.65C459.336 195.282 459.524 194.964 459.768 194.696C460.012 194.424 460.31 194.212 460.662 194.06C461.014 193.904 461.41 193.826 461.85 193.826C462.214 193.826 462.55 193.888 462.858 194.012C463.17 194.132 463.438 194.308 463.662 194.54C463.89 194.768 464.068 195.052 464.196 195.392C464.324 195.728 464.388 196.112 464.388 196.544C464.388 196.712 464.37 196.824 464.334 196.88C464.298 196.936 464.23 196.964 464.13 196.964H460.068C460.08 197.348 460.132 197.682 460.224 197.966C460.32 198.25 460.452 198.488 460.62 198.68C460.788 198.868 460.988 199.01 461.22 199.106C461.452 199.198 461.712 199.244 462 199.244C462.268 199.244 462.498 199.214 462.69 199.154C462.886 199.09 463.054 199.022 463.194 198.95C463.334 198.878 463.45 198.812 463.542 198.752C463.638 198.688 463.72 198.656 463.788 198.656C463.876 198.656 463.944 198.69 463.992 198.758L464.292 199.148ZM469.93 195.002C469.898 195.046 469.866 195.08 469.834 195.104C469.802 195.128 469.758 195.14 469.702 195.14C469.642 195.14 469.576 195.116 469.504 195.068C469.432 195.016 469.342 194.96 469.234 194.9C469.13 194.84 469 194.786 468.844 194.738C468.692 194.686 468.504 194.66 468.28 194.66C467.98 194.66 467.716 194.714 467.488 194.822C467.26 194.926 467.068 195.078 466.912 195.278C466.76 195.478 466.644 195.72 466.564 196.004C466.488 196.288 466.45 196.606 466.45 196.958C466.45 197.326 466.492 197.654 466.576 197.942C466.66 198.226 466.778 198.466 466.93 198.662C467.086 198.854 467.272 199.002 467.488 199.106C467.708 199.206 467.954 199.256 468.226 199.256C468.486 199.256 468.7 199.226 468.868 199.166C469.036 199.102 469.174 199.032 469.282 198.956C469.394 198.88 469.486 198.812 469.558 198.752C469.634 198.688 469.708 198.656 469.78 198.656C469.868 198.656 469.936 198.69 469.984 198.758L470.284 199.148C470.152 199.312 470.002 199.452 469.834 199.568C469.666 199.684 469.484 199.782 469.288 199.862C469.096 199.938 468.894 199.994 468.682 200.03C468.47 200.066 468.254 200.084 468.034 200.084C467.654 200.084 467.3 200.014 466.972 199.874C466.648 199.734 466.366 199.532 466.126 199.268C465.886 199 465.698 198.672 465.562 198.284C465.426 197.896 465.358 197.454 465.358 196.958C465.358 196.506 465.42 196.088 465.544 195.704C465.672 195.32 465.856 194.99 466.096 194.714C466.34 194.434 466.638 194.216 466.99 194.06C467.346 193.904 467.754 193.826 468.214 193.826C468.642 193.826 469.018 193.896 469.342 194.036C469.67 194.172 469.96 194.366 470.212 194.618L469.93 195.002ZM475.555 195.002C475.523 195.046 475.491 195.08 475.459 195.104C475.427 195.128 475.383 195.14 475.327 195.14C475.267 195.14 475.201 195.116 475.129 195.068C475.057 195.016 474.967 194.96 474.859 194.9C474.755 194.84 474.625 194.786 474.469 194.738C474.317 194.686 474.129 194.66 473.905 194.66C473.605 194.66 473.341 194.714 473.113 194.822C472.885 194.926 472.693 195.078 472.537 195.278C472.385 195.478 472.269 195.72 472.189 196.004C472.113 196.288 472.075 196.606 472.075 196.958C472.075 197.326 472.117 197.654 472.201 197.942C472.285 198.226 472.403 198.466 472.555 198.662C472.711 198.854 472.897 199.002 473.113 199.106C473.333 199.206 473.579 199.256 473.851 199.256C474.111 199.256 474.325 199.226 474.493 199.166C474.661 199.102 474.799 199.032 474.907 198.956C475.019 198.88 475.111 198.812 475.183 198.752C475.259 198.688 475.333 198.656 475.405 198.656C475.493 198.656 475.561 198.69 475.609 198.758L475.909 199.148C475.777 199.312 475.627 199.452 475.459 199.568C475.291 199.684 475.109 199.782 474.913 199.862C474.721 199.938 474.519 199.994 474.307 200.03C474.095 200.066 473.879 200.084 473.659 200.084C473.279 200.084 472.925 200.014 472.597 199.874C472.273 199.734 471.991 199.532 471.751 199.268C471.511 199 471.323 198.672 471.187 198.284C471.051 197.896 470.983 197.454 470.983 196.958C470.983 196.506 471.045 196.088 471.169 195.704C471.297 195.32 471.481 194.99 471.721 194.714C471.965 194.434 472.263 194.216 472.615 194.06C472.971 193.904 473.379 193.826 473.839 193.826C474.267 193.826 474.643 193.896 474.967 194.036C475.295 194.172 475.585 194.366 475.837 194.618L475.555 195.002ZM479.512 193.826C479.956 193.826 480.356 193.9 480.712 194.048C481.068 194.196 481.372 194.406 481.624 194.678C481.876 194.95 482.068 195.28 482.2 195.668C482.336 196.052 482.404 196.482 482.404 196.958C482.404 197.438 482.336 197.87 482.2 198.254C482.068 198.638 481.876 198.966 481.624 199.238C481.372 199.51 481.068 199.72 480.712 199.868C480.356 200.012 479.956 200.084 479.512 200.084C479.064 200.084 478.66 200.012 478.3 199.868C477.944 199.72 477.64 199.51 477.388 199.238C477.136 198.966 476.942 198.638 476.806 198.254C476.674 197.87 476.608 197.438 476.608 196.958C476.608 196.482 476.674 196.052 476.806 195.668C476.942 195.28 477.136 194.95 477.388 194.678C477.64 194.406 477.944 194.196 478.3 194.048C478.66 193.9 479.064 193.826 479.512 193.826ZM479.512 199.25C480.112 199.25 480.56 199.05 480.856 198.65C481.152 198.246 481.3 197.684 481.3 196.964C481.3 196.24 481.152 195.676 480.856 195.272C480.56 194.868 480.112 194.666 479.512 194.666C479.208 194.666 478.942 194.718 478.714 194.822C478.49 194.926 478.302 195.076 478.15 195.272C478.002 195.468 477.89 195.71 477.814 195.998C477.742 196.282 477.706 196.604 477.706 196.964C477.706 197.684 477.854 198.246 478.15 198.65C478.45 199.05 478.904 199.25 479.512 199.25ZM483.758 200V193.922H484.4C484.552 193.922 484.646 193.996 484.682 194.144L484.76 194.768C484.984 194.492 485.236 194.266 485.516 194.09C485.796 193.914 486.12 193.826 486.488 193.826C486.896 193.826 487.226 193.94 487.478 194.168C487.734 194.396 487.918 194.704 488.03 195.092C488.118 194.872 488.23 194.682 488.366 194.522C488.506 194.362 488.662 194.23 488.834 194.126C489.006 194.022 489.188 193.946 489.38 193.898C489.576 193.85 489.774 193.826 489.974 193.826C490.294 193.826 490.578 193.878 490.826 193.982C491.078 194.082 491.29 194.23 491.462 194.426C491.638 194.622 491.772 194.864 491.864 195.152C491.956 195.436 492.002 195.762 492.002 196.13V200H490.928V196.13C490.928 195.654 490.824 195.294 490.616 195.05C490.408 194.802 490.108 194.678 489.716 194.678C489.54 194.678 489.372 194.71 489.212 194.774C489.056 194.834 488.918 194.924 488.798 195.044C488.678 195.164 488.582 195.316 488.51 195.5C488.442 195.68 488.408 195.89 488.408 196.13V200H487.334V196.13C487.334 195.642 487.236 195.278 487.04 195.038C486.844 194.798 486.558 194.678 486.182 194.678C485.918 194.678 485.674 194.75 485.45 194.894C485.226 195.034 485.02 195.226 484.832 195.47V200H483.758ZM497.693 196.298C497.693 196.05 497.657 195.824 497.585 195.62C497.517 195.412 497.415 195.234 497.279 195.086C497.147 194.934 496.985 194.818 496.793 194.738C496.601 194.654 496.383 194.612 496.139 194.612C495.627 194.612 495.221 194.762 494.921 195.062C494.625 195.358 494.441 195.77 494.369 196.298H497.693ZM498.557 199.148C498.425 199.308 498.267 199.448 498.083 199.568C497.899 199.684 497.701 199.78 497.489 199.856C497.281 199.932 497.065 199.988 496.841 200.024C496.617 200.064 496.395 200.084 496.175 200.084C495.755 200.084 495.367 200.014 495.011 199.874C494.659 199.73 494.353 199.522 494.093 199.25C493.837 198.974 493.637 198.634 493.493 198.23C493.349 197.826 493.277 197.362 493.277 196.838C493.277 196.414 493.341 196.018 493.469 195.65C493.601 195.282 493.789 194.964 494.033 194.696C494.277 194.424 494.575 194.212 494.927 194.06C495.279 193.904 495.675 193.826 496.115 193.826C496.479 193.826 496.815 193.888 497.123 194.012C497.435 194.132 497.703 194.308 497.927 194.54C498.155 194.768 498.333 195.052 498.461 195.392C498.589 195.728 498.653 196.112 498.653 196.544C498.653 196.712 498.635 196.824 498.599 196.88C498.563 196.936 498.495 196.964 498.395 196.964H494.333C494.345 197.348 494.397 197.682 494.489 197.966C494.585 198.25 494.717 198.488 494.885 198.68C495.053 198.868 495.253 199.01 495.485 199.106C495.717 199.198 495.977 199.244 496.265 199.244C496.533 199.244 496.763 199.214 496.955 199.154C497.151 199.09 497.319 199.022 497.459 198.95C497.599 198.878 497.715 198.812 497.807 198.752C497.903 198.688 497.985 198.656 498.053 198.656C498.141 198.656 498.209 198.69 498.257 198.758L498.557 199.148ZM500.973 194.804C501.105 194.656 501.245 194.522 501.393 194.402C501.541 194.282 501.697 194.18 501.861 194.096C502.029 194.008 502.205 193.942 502.389 193.898C502.577 193.85 502.779 193.826 502.995 193.826C503.327 193.826 503.619 193.882 503.871 193.994C504.127 194.102 504.339 194.258 504.507 194.462C504.679 194.662 504.809 194.904 504.897 195.188C504.985 195.472 505.029 195.786 505.029 196.13V200H503.955V196.13C503.955 195.67 503.849 195.314 503.637 195.062C503.429 194.806 503.111 194.678 502.683 194.678C502.367 194.678 502.071 194.754 501.795 194.906C501.523 195.058 501.271 195.264 501.039 195.524V200H499.965V193.922H500.607C500.759 193.922 500.853 193.996 500.889 194.144L500.973 194.804ZM510.617 195.368C510.417 195.1 510.201 194.914 509.969 194.81C509.737 194.702 509.477 194.648 509.189 194.648C508.625 194.648 508.191 194.85 507.887 195.254C507.583 195.658 507.431 196.234 507.431 196.982C507.431 197.378 507.465 197.718 507.533 198.002C507.601 198.282 507.701 198.514 507.833 198.698C507.965 198.878 508.127 199.01 508.319 199.094C508.511 199.178 508.729 199.22 508.973 199.22C509.325 199.22 509.631 199.14 509.891 198.98C510.155 198.82 510.397 198.594 510.617 198.302V195.368ZM511.685 191.162V200H511.049C510.897 200 510.801 199.926 510.761 199.778L510.665 199.04C510.405 199.352 510.109 199.604 509.777 199.796C509.445 199.988 509.061 200.084 508.625 200.084C508.277 200.084 507.961 200.018 507.677 199.886C507.393 199.75 507.151 199.552 506.951 199.292C506.751 199.032 506.597 198.708 506.489 198.32C506.381 197.932 506.327 197.486 506.327 196.982C506.327 196.534 506.387 196.118 506.507 195.734C506.627 195.346 506.799 195.01 507.023 194.726C507.247 194.442 507.521 194.22 507.845 194.06C508.173 193.896 508.541 193.814 508.949 193.814C509.321 193.814 509.639 193.878 509.903 194.006C510.171 194.13 510.409 194.304 510.617 194.528V191.162H511.685ZM517.439 196.298C517.439 196.05 517.403 195.824 517.331 195.62C517.263 195.412 517.161 195.234 517.025 195.086C516.893 194.934 516.731 194.818 516.539 194.738C516.347 194.654 516.129 194.612 515.885 194.612C515.373 194.612 514.967 194.762 514.667 195.062C514.371 195.358 514.187 195.77 514.115 196.298H517.439ZM518.303 199.148C518.171 199.308 518.013 199.448 517.829 199.568C517.645 199.684 517.447 199.78 517.235 199.856C517.027 199.932 516.811 199.988 516.587 200.024C516.363 200.064 516.141 200.084 515.921 200.084C515.501 200.084 515.113 200.014 514.757 199.874C514.405 199.73 514.099 199.522 513.839 199.25C513.583 198.974 513.383 198.634 513.239 198.23C513.095 197.826 513.023 197.362 513.023 196.838C513.023 196.414 513.087 196.018 513.215 195.65C513.347 195.282 513.535 194.964 513.779 194.696C514.023 194.424 514.321 194.212 514.673 194.06C515.025 193.904 515.421 193.826 515.861 193.826C516.225 193.826 516.561 193.888 516.869 194.012C517.181 194.132 517.449 194.308 517.673 194.54C517.901 194.768 518.079 195.052 518.207 195.392C518.335 195.728 518.399 196.112 518.399 196.544C518.399 196.712 518.381 196.824 518.345 196.88C518.309 196.936 518.241 196.964 518.141 196.964H514.079C514.091 197.348 514.143 197.682 514.235 197.966C514.331 198.25 514.463 198.488 514.631 198.68C514.799 198.868 514.999 199.01 515.231 199.106C515.463 199.198 515.723 199.244 516.011 199.244C516.279 199.244 516.509 199.214 516.701 199.154C516.897 199.09 517.065 199.022 517.205 198.95C517.345 198.878 517.461 198.812 517.553 198.752C517.649 198.688 517.731 198.656 517.799 198.656C517.887 198.656 517.955 198.69 518.003 198.758L518.303 199.148ZM523.671 195.368C523.471 195.1 523.255 194.914 523.023 194.81C522.791 194.702 522.531 194.648 522.243 194.648C521.679 194.648 521.245 194.85 520.941 195.254C520.637 195.658 520.485 196.234 520.485 196.982C520.485 197.378 520.519 197.718 520.587 198.002C520.655 198.282 520.755 198.514 520.887 198.698C521.019 198.878 521.181 199.01 521.373 199.094C521.565 199.178 521.783 199.22 522.027 199.22C522.379 199.22 522.685 199.14 522.945 198.98C523.209 198.82 523.451 198.594 523.671 198.302V195.368ZM524.739 191.162V200H524.103C523.951 200 523.855 199.926 523.815 199.778L523.719 199.04C523.459 199.352 523.163 199.604 522.831 199.796C522.499 199.988 522.115 200.084 521.679 200.084C521.331 200.084 521.015 200.018 520.731 199.886C520.447 199.75 520.205 199.552 520.005 199.292C519.805 199.032 519.651 198.708 519.543 198.32C519.435 197.932 519.381 197.486 519.381 196.982C519.381 196.534 519.441 196.118 519.561 195.734C519.681 195.346 519.853 195.01 520.077 194.726C520.301 194.442 520.575 194.22 520.899 194.06C521.227 193.896 521.595 193.814 522.003 193.814C522.375 193.814 522.693 193.878 522.957 194.006C523.225 194.13 523.463 194.304 523.671 194.528V191.162H524.739Z" fill="#262626"/>
</g>
</svg>
